<?xml version="1.0" standalone="no"?>
<!DOCTYPE svg PUBLIC "-//W3C//DTD SVG 20010904//EN"
 "http://www.w3.org/TR/2001/REC-SVG-20010904/DTD/svg10.dtd">
<svg version="1.0" xmlns="http://www.w3.org/2000/svg"
 width="512.000000pt" height="512.000000pt" viewBox="0 0 512.000000 512.000000"
 preserveAspectRatio="xMidYMid meet">

<g transform="translate(0.000000,512.000000) scale(0.100000,-0.100000)"
fill="#000000" stroke="none">
<path d="M2365 4795 c-131 -29 -237 -87 -343 -189 -226 -216 -392 -522 -465
-857 -37 -167 -50 -284 -50 -464 -1 -185 13 -262 68 -388 20 -45 39 -89 41
-97 3 -11 -52 -44 -204 -123 -227 -117 -286 -163 -336 -262 -14 -27 -51 -155
-83 -282 l-58 -233 -132 0 -133 0 2 988 3 989 28 36 c50 66 57 67 344 67 277
0 295 3 322 51 12 22 12 31 2 57 -21 51 -42 54 -338 50 l-269 -3 -66 -33 c-68
-33 -118 -82 -152 -149 -35 -69 -37 -169 -34 -1403 l3 -1215 23 -57 c29 -73
96 -141 170 -176 l57 -27 583 -3 c321 -1 582 -6 580 -11 -2 -4 -64 -142 -138
-305 l-135 -296 -162 0 -162 0 -21 -27 c-26 -33 -21 -79 11 -105 20 -17 90
-18 1160 -18 813 0 1145 3 1162 11 24 11 47 47 47 73 0 7 -9 25 -21 40 l-20
26 -163 0 -162 0 -148 328 c-198 437 -188 415 -216 429 -19 10 -264 13 -1093
13 -1180 0 -1110 -4 -1163 66 l-29 37 -3 209 -3 208 1235 0 1235 0 21 27 c26
33 21 79 -11 106 -20 16 -84 17 -1039 17 l-1018 0 53 211 c57 222 82 281 137
321 18 13 122 69 231 124 l198 102 102 -105 c167 -172 302 -263 467 -315 65
-20 96 -23 225 -23 167 0 236 15 365 80 128 65 318 217 404 324 l28 35 205
-102 c149 -75 211 -101 226 -96 39 12 57 35 57 74 0 23 -7 43 -17 52 -10 8
-99 57 -198 108 -99 51 -181 94 -183 95 -1 1 11 31 28 66 45 98 68 207 78 381
26 420 -60 761 -267 1070 -140 208 -315 379 -456 444 -128 59 -281 78 -410 49z
m230 -150 c115 -24 187 -67 301 -180 207 -204 338 -428 405 -694 41 -160 41
-160 -30 -103 -107 86 -272 155 -451 188 -134 25 -437 25 -575 0 -195 -35
-393 -112 -502 -196 -60 -45 -62 -43 -38 60 67 288 202 543 393 741 80 83 108
106 176 139 117 57 204 70 321 45z m80 -925 c124 -14 226 -37 318 -72 60 -23
77 -34 73 -46 -129 -479 -295 -709 -522 -720 -92 -5 -163 15 -243 69 -135 90
-257 301 -322 557 -29 112 -34 106 109 151 196 62 393 82 587 61z m-756 -509
c55 -127 135 -243 228 -331 87 -83 86 -80 52 -190 -23 -73 -56 -136 -88 -164
-20 -18 -21 -18 -58 10 -134 100 -296 308 -346 441 -77 210 -58 379 58 499
l47 49 33 -111 c19 -61 52 -153 74 -203z m1383 181 c54 -109 50 -301 -9 -449
-54 -135 -162 -272 -298 -380 l-79 -63 -27 26 c-34 33 -75 117 -97 199 l-17
65 25 17 c147 101 278 315 367 595 l37 118 34 -33 c18 -17 47 -60 64 -95z
m-763 -666 l94 -1 17 -60 c21 -78 51 -143 90 -200 18 -26 30 -48 28 -50 -1 -2
-32 -13 -68 -25 -125 -42 -315 -36 -433 14 l-37 15 40 62 c41 63 71 135 91
215 l12 46 36 -8 c20 -4 78 -8 130 -8z m475 -1956 c75 -164 136 -301 136 -305
0 -3 -297 -5 -660 -5 -363 0 -660 3 -660 6 0 4 52 122 116 263 65 141 126 275
136 299 l19 42 388 0 389 0 136 -300z"/>
<path d="M3667 4120 c-35 -28 -38 -87 -6 -116 19 -17 44 -19 284 -24 296 -6
296 -6 342 -86 l23 -39 0 -767 c0 -552 3 -774 11 -792 23 -49 104 -53 129 -7
7 14 10 262 8 818 l-3 798 -24 49 c-33 66 -91 122 -160 155 -55 26 -59 26
-316 29 -254 3 -261 3 -288 -18z"/>
<path d="M3822 2311 c-58 -20 -111 -59 -153 -112 -46 -58 -398 -677 -415 -730
-46 -140 33 -310 176 -378 l55 -26 440 0 c428 0 441 1 486 21 67 31 124 87
159 156 25 51 30 73 30 134 0 46 -6 90 -17 116 -20 50 -397 704 -421 732 -52
58 -165 106 -246 106 -23 -1 -65 -9 -94 -19z m178 -156 c42 -21 59 -47 247
-375 219 -379 206 -353 201 -412 -8 -84 -70 -142 -161 -153 -29 -4 -214 -5
-412 -3 -356 3 -360 3 -397 26 -67 42 -99 120 -75 188 11 34 319 577 382 675
13 19 38 43 56 52 42 21 121 22 159 2z"/>
<path d="M3870 1950 c-18 -18 -20 -33 -20 -140 0 -110 2 -121 22 -140 30 -27
73 -26 103 5 24 23 25 31 25 133 0 95 -3 113 -21 136 -26 33 -79 36 -109 6z"/>
<path d="M3900 1483 c-33 -12 -50 -37 -50 -73 0 -83 109 -105 141 -29 16 40
-3 84 -43 98 -17 6 -31 11 -32 10 -1 0 -8 -3 -16 -6z"/>
<path d="M2291 1553 c-32 -27 -37 -73 -11 -106 l21 -27 183 0 c197 0 218 5
230 55 7 29 -15 79 -39 89 -9 3 -95 6 -190 6 -150 0 -176 -2 -194 -17z"/>
</g>
</svg>
