<?xml version="1.0" standalone="no"?>
<!DOCTYPE svg PUBLIC "-//W3C//DTD SVG 20010904//EN"
 "http://www.w3.org/TR/2001/REC-SVG-20010904/DTD/svg10.dtd">
<svg version="1.0" xmlns="http://www.w3.org/2000/svg"
 width="1024.000000pt" height="1024.000000pt" viewBox="0 0 1024.000000 1024.000000"
 preserveAspectRatio="xMidYMid meet">

<g transform="translate(0.000000,1024.000000) scale(0.100000,-0.100000)"
fill="#000000" stroke="none">
<path d="M3390 10221 c-26 -50 7 -485 55 -723 71 -348 228 -649 466 -895 l86
-89 -23 -17 c-13 -10 -46 -59 -74 -110 -67 -124 -63 -119 -106 -127 -34 -7
-29 -8 31 -9 72 -1 185 -11 434 -37 80 -9 163 -17 185 -19 23 -2 70 -8 106
-14 36 -5 86 -12 112 -15 179 -23 449 -85 618 -143 311 -105 746 -301 1045
-468 115 -64 164 -97 410 -276 61 -44 126 -91 146 -104 21 -13 39 -28 40 -32
2 -5 18 -18 36 -28 46 -29 216 -160 234 -181 13 -16 12 -16 -18 -1 -17 9 -37
22 -45 30 -7 7 -29 24 -48 37 -19 14 -50 38 -68 55 -36 32 -122 76 -134 69 -4
-3 -5 3 -1 12 4 11 3 15 -5 10 -6 -3 -28 3 -49 14 -21 11 -33 20 -28 20 6 0
-5 10 -23 21 -24 16 -36 18 -46 10 -10 -8 -23 -4 -54 19 -23 17 -44 30 -47 30
-6 0 -28 11 -145 74 -117 63 -352 177 -490 238 -169 74 -173 75 -200 83 -14 4
-47 18 -75 30 -27 12 -115 48 -195 79 -80 32 -163 66 -185 76 -92 42 -331 122
-475 159 -249 65 -429 101 -725 146 -49 8 -101 18 -115 24 -24 9 -23 10 12 10
20 1 47 -3 60 -7 13 -5 34 -5 48 -1 l25 7 -26 1 c-14 1 -39 5 -55 11 -114 39
-992 51 -1204 17 -380 -62 -581 -129 -663 -222 -18 -20 -18 -20 -8 1 10 21 41
50 91 87 l25 18 -25 -12 c-71 -34 -99 -60 -129 -120 -26 -51 -31 -74 -31 -131
0 -235 226 -513 614 -758 120 -75 376 -220 521 -293 155 -79 146 -67 129 -157
-7 -41 -20 -127 -29 -190 -9 -63 -25 -155 -36 -204 -17 -80 -23 -93 -54 -119
-20 -16 -43 -43 -51 -60 -9 -18 -53 -69 -97 -114 -45 -46 -76 -83 -69 -83 21
0 13 -22 -29 -77 -40 -51 -41 -54 -25 -78 21 -32 21 -123 0 -153 -14 -20 -14
-24 5 -51 20 -28 53 -148 66 -243 5 -32 13 -49 24 -53 18 -5 122 -116 178
-188 l31 -41 -81 -44 c-45 -24 -91 -52 -102 -62 -11 -10 -36 -29 -55 -42 l-35
-24 -158 100 c-86 56 -187 119 -222 141 -157 97 -426 274 -486 320 -318 241
-352 273 -374 350 -9 33 -35 90 -56 126 -50 84 -59 115 -48 172 16 87 92 207
162 258 37 27 47 29 124 29 107 0 135 13 213 97 94 100 133 165 134 221 1 68
-44 152 -129 238 -130 133 -283 181 -376 119 -49 -32 -129 -156 -160 -245 -44
-131 -150 -204 -427 -295 -199 -65 -265 -115 -466 -352 -152 -178 -268 -369
-320 -524 -68 -203 -74 -584 -15 -1049 15 -121 26 -171 40 -191 20 -29 76 -55
138 -65 35 -6 41 -3 56 20 10 15 55 133 100 264 79 228 168 461 200 522 26 50
112 104 189 119 51 9 161 -2 229 -25 41 -14 56 -14 92 -4 64 18 106 1 444
-177 442 -234 745 -408 861 -498 l57 -43 11 -106 c13 -122 46 -229 103 -335
22 -40 37 -76 35 -79 -5 -5 -53 1 -296 34 -402 54 -439 55 -502 15 -71 -45
-73 -54 -198 -661 -38 -184 -85 -407 -104 -495 -19 -88 -58 -268 -86 -400 -95
-449 -134 -625 -140 -624 -3 0 -35 37 -72 82 -37 45 -119 138 -184 207 -110
118 -258 310 -317 411 l-27 46 41 28 c62 43 139 133 139 161 0 92 -309 534
-373 534 -8 0 -38 -18 -68 -40 -30 -21 -79 -57 -109 -78 -30 -21 -80 -55 -110
-77 -76 -53 -192 -149 -274 -228 -61 -58 -69 -70 -68 -100 3 -71 81 -208 220
-384 70 -89 97 -112 150 -124 30 -6 42 -1 125 54 51 33 95 65 99 71 4 6 15 3
29 -9 36 -33 217 -278 336 -456 117 -176 218 -318 428 -606 72 -98 158 -216
192 -263 l61 -85 -24 -46 c-28 -57 -292 -509 -339 -583 -32 -50 -62 -132 -45
-121 5 3 10 0 12 -6 3 -10 155 -28 246 -29 37 0 44 3 53 28 27 70 258 512 268
512 8 -1 196 -256 266 -363 39 -58 64 -87 77 -87 26 0 220 78 237 95 13 13 12
18 -7 37 -31 34 -396 523 -413 554 -13 25 -10 33 51 148 36 66 76 145 90 173
22 47 28 53 57 53 31 0 452 -66 485 -76 10 -3 25 -31 38 -71 44 -136 137 -293
241 -407 34 -37 60 -68 58 -70 -2 -2 -17 -10 -34 -18 -186 -93 -264 -145 -317
-211 -78 -99 -99 -184 -55 -224 66 -61 174 -78 492 -78 320 0 543 17 720 56
95 20 384 121 405 141 19 18 21 27 15 76 -4 30 -9 61 -12 69 -3 8 12 30 35 53
63 59 115 61 557 24 94 -7 213 -19 265 -25 95 -11 246 -44 265 -58 6 -4 30
-13 55 -20 50 -14 140 -60 140 -72 0 -4 -16 -31 -36 -60 -72 -107 -98 -169
-97 -231 1 -67 6 -78 38 -78 19 0 25 6 29 33 6 33 15 128 16 160 0 10 4 16 8
13 4 -2 16 8 26 23 11 15 34 38 52 50 66 46 98 50 320 47 212 -3 248 0 239 15
-3 4 -12 6 -19 3 -8 -3 -17 -1 -20 4 -3 5 -23 6 -45 2 -22 -4 -42 -3 -43 1 -2
5 -47 9 -101 10 -53 1 -100 5 -102 10 -3 4 -14 6 -25 4 -11 -2 -20 1 -20 6 0
6 -4 8 -9 4 -10 -6 -157 34 -204 56 -17 7 -23 15 -16 19 7 5 5 9 -5 13 -9 4
-16 2 -16 -4 0 -6 -6 -6 -17 0 -10 5 -20 9 -23 9 -23 1 -59 16 -54 23 3 5 -3
10 -13 11 -25 2 -36 4 -53 11 -45 18 -154 40 -219 43 -41 2 -80 9 -86 14 -7 6
-20 8 -29 4 -9 -4 -16 -1 -16 6 0 8 -11 10 -32 6 l-33 -6 29 11 c20 8 38 9 63
1 28 -9 32 -8 23 3 -11 13 -92 26 -84 14 8 -13 -56 -15 -67 -2 -6 7 -17 13
-23 13 -6 0 -4 -5 4 -10 12 -8 12 -10 1 -10 -34 0 -227 35 -232 43 -3 4 -17 5
-31 2 -15 -4 -29 -2 -33 4 -3 6 -11 8 -17 5 -7 -5 -9 -2 -6 7 4 11 -5 14 -41
15 -25 1 -64 7 -86 14 -22 6 -53 15 -70 18 -19 5 -31 14 -33 27 -5 27 -11 32
-22 16 -7 -12 -14 -11 -46 2 -22 9 -33 16 -26 16 6 1 12 8 12 17 0 12 -4 14
-13 7 -6 -6 -28 -13 -47 -16 -19 -3 -29 -3 -22 0 6 2 12 11 12 20 0 12 -2 12
-16 -2 -14 -14 -19 -14 -33 -2 -9 7 -32 20 -51 27 -19 7 -43 20 -52 28 -10 8
-18 12 -18 8 0 -4 -13 2 -29 13 -16 12 -34 21 -40 21 -6 0 -11 5 -11 11 0 6
15 9 37 7 22 -2 38 2 40 9 6 17 -41 27 -66 13 -21 -11 -31 3 -11 15 16 10 12
25 -7 25 -16 0 -16 -2 -3 -11 11 -8 9 -9 -10 -3 -14 4 -27 11 -28 15 -2 5 -7
7 -11 4 -4 -2 -21 0 -37 5 l-29 8 32 1 c59 2 173 -22 173 -36 0 -7 5 -13 11
-13 5 0 7 5 4 10 -3 6 -3 10 1 10 17 0 327 -52 414 -69 52 -11 154 -29 225
-41 158 -25 256 -43 675 -120 179 -33 388 -71 465 -85 77 -14 176 -33 220 -41
44 -8 166 -30 270 -49 265 -48 286 -52 320 -65 17 -6 36 -13 44 -15 11 -4 11
-8 0 -22 -11 -13 -11 -17 -1 -21 7 -2 18 -10 25 -17 6 -7 36 -38 65 -68 52
-53 53 -57 53 -111 0 -31 -3 -71 -6 -88 -10 -43 -51 -118 -61 -110 -4 4 -4 1
0 -6 5 -8 1 -19 -10 -28 -17 -13 -16 -14 21 -12 37 3 42 7 67 53 46 83 53 137
33 235 -17 86 -35 130 -63 163 -8 9 -13 19 -11 21 4 4 622 -117 660 -129 14
-5 19 -16 19 -41 0 -35 -24 -94 -38 -94 -16 0 -72 -53 -72 -68 0 -9 5 -44 11
-79 l11 -64 1079 2 c638 0 1077 5 1073 10 -3 5 4 9 14 9 33 0 38 43 31 285 -7
231 -19 329 -42 352 -7 7 -57 22 -112 33 -55 12 -117 25 -137 31 l-38 10 0
214 c0 251 4 241 -111 276 -59 18 -77 20 -107 11 -42 -13 -47 -11 -34 15 6 10
54 126 107 258 142 353 193 473 231 541 24 42 34 74 34 103 0 36 30 102 172
384 l173 341 102 103 c110 111 138 125 168 80 21 -33 37 -251 33 -464 -1 -94
0 -175 5 -179 4 -4 7 231 7 523 l0 530 -90 56 c-49 31 -94 57 -100 57 -5 0
-10 5 -10 11 0 5 -4 7 -10 4 -5 -3 -10 -1 -10 4 0 6 -7 11 -15 11 -8 0 -15 5
-15 10 0 6 -28 -7 -62 -29 -60 -38 -88 -41 -75 -8 5 13 111 57 138 57 13 0 41
-15 177 -93 35 -21 66 -37 68 -37 2 0 4 8 4 18 0 20 -211 142 -246 142 -12 0
-41 -7 -64 -15 -56 -20 -133 -19 -176 1 -20 10 -45 34 -59 59 -22 36 -36 47
-121 83 -52 23 -101 42 -109 42 -19 0 -81 -72 -108 -127 -40 -79 -61 -156 -53
-197 7 -35 12 -39 110 -88 l104 -51 55 17 c66 21 115 14 152 -20 30 -27 33
-70 9 -135 -8 -24 -15 -57 -15 -74 0 -16 -5 -61 -11 -100 -10 -60 -36 -119
-187 -418 -132 -261 -183 -353 -203 -364 -14 -9 -37 -39 -50 -67 -12 -28 -61
-121 -107 -206 -221 -407 -365 -681 -511 -972 -88 -174 -163 -319 -167 -321
-5 -3 -32 -8 -62 -12 l-54 -7 7 70 c4 38 36 271 72 518 94 655 182 1279 190
1354 4 36 8 68 10 71 2 3 50 -17 106 -46 126 -64 154 -71 204 -50 53 22 72 41
107 110 80 159 107 299 108 550 0 461 -85 840 -328 1450 -86 217 -163 420
-163 430 0 2 107 1 238 -2 249 -6 491 6 617 32 39 8 107 33 152 55 169 83 202
179 127 366 -32 81 -118 229 -177 304 -89 113 -227 270 -331 378 -109 113
-110 113 -98 145 24 67 51 222 87 501 l15 120 -26 54 c-19 38 -47 70 -100 115
-41 34 -77 71 -79 82 -2 11 -6 61 -9 110 -17 251 -102 545 -241 830 -58 119
-95 179 -212 349 l-41 60 27 40 c14 22 122 182 240 356 269 396 291 432 291
473 0 77 -79 139 -150 118 -49 -14 -64 -33 -245 -296 -256 -371 -357 -515
-362 -515 -3 0 -45 38 -93 84 -51 48 -128 108 -184 142 -78 47 -98 64 -107 91
-53 162 -354 330 -804 448 -207 55 -308 68 -515 69 -159 0 -205 -3 -330 -26
-80 -15 -201 -29 -270 -33 -69 -3 -165 -13 -215 -21 -112 -19 -373 -85 -514
-130 -58 -19 -106 -34 -107 -34 -1 0 -21 28 -45 63 -69 99 -172 218 -250 288
-39 35 -90 81 -113 102 -51 47 -235 170 -336 225 -41 22 -129 64 -194 92 -101
43 -128 50 -170 48 l-51 -4 43 -8 c23 -5 42 -12 42 -17 0 -5 7 -6 15 -3 8 4
15 2 15 -4 0 -5 12 -12 28 -15 48 -9 211 -81 205 -90 -3 -6 -1 -7 5 -4 17 11
209 -100 328 -190 96 -72 267 -253 349 -368 36 -51 72 -99 80 -105 12 -10 -7
-23 -112 -75 -201 -97 -356 -198 -508 -331 -58 -51 -61 -52 -71 -31 -45 94
-277 496 -353 612 -101 156 -229 312 -311 383 -120 102 -378 252 -434 252 -15
0 -30 -8 -36 -19z m105 -28 c40 -21 208 -120 269 -160 142 -93 328 -309 446
-518 9 -16 32 -56 50 -88 18 -32 33 -69 33 -83 0 -13 4 -24 9 -24 5 0 6 -4 3
-10 -3 -5 -3 -16 2 -22 4 -7 8 -15 8 -18 2 -19 70 -121 73 -111 3 8 -1 17 -8
21 -7 4 -11 13 -8 20 4 13 83 -126 83 -147 0 -7 6 -18 13 -25 6 -6 12 -20 12
-29 0 -9 7 -22 15 -29 22 -18 19 -29 -19 -69 -18 -20 -49 -52 -67 -71 -44 -46
-82 -70 -112 -70 -62 0 -135 -59 -174 -140 -32 -66 -51 -90 -72 -90 -14 0 -14
2 -1 10 13 8 13 10 -2 10 -10 0 -30 12 -47 28 -112 106 -140 134 -173 175 -46
55 -50 72 -7 28 59 -63 41 -21 -23 51 -36 40 -79 95 -97 121 -46 68 -153 294
-189 402 -46 135 -93 443 -108 711 -10 157 1 171 91 127z m3460 -569 c112 -16
205 -40 205 -53 0 -5 10 -12 23 -16 15 -5 18 -8 7 -11 -8 -3 -53 7 -100 22
-170 52 -183 54 -310 55 -69 0 -137 -5 -150 -10 l-25 -11 25 2 c14 1 30 -1 37
-5 6 -4 14 -3 18 3 3 5 19 10 34 10 21 0 31 -6 36 -22 l8 -23 4 23 c4 19 25
34 22 15 -4 -22 2 -43 10 -38 5 3 12 1 15 -3 3 -5 18 -8 35 -7 19 1 28 -2 24
-11 -2 -6 1 -15 8 -20 8 -4 10 -3 5 4 -4 7 -1 12 6 12 7 0 19 -9 26 -20 7 -11
18 -20 25 -20 6 0 4 5 -5 11 -10 5 -18 18 -18 27 0 13 2 14 9 4 4 -7 16 -14
25 -16 10 -1 21 -7 24 -12 11 -15 44 -14 38 1 -3 9 0 12 9 9 8 -3 14 -9 13
-12 0 -4 0 -16 1 -27 1 -17 3 -18 14 -5 7 9 22 15 35 14 12 -1 22 3 22 7 0 5
11 9 25 9 14 0 25 -4 25 -10 0 -5 -4 -10 -10 -10 -5 0 -10 -5 -10 -11 0 -6 8
-8 18 -5 9 3 24 1 32 -4 13 -8 12 -10 -2 -10 -10 0 -18 -7 -18 -15 0 -8 -5
-15 -11 -15 -6 0 -25 -6 -42 -14 -43 -19 -69 -28 -86 -32 -8 -1 -17 -6 -20
-11 -3 -4 -26 -18 -51 -31 -89 -44 -323 -248 -302 -261 9 -5 2 -19 -25 -49
-21 -23 -42 -42 -47 -42 -5 0 1 9 14 20 13 11 19 20 14 20 -5 0 2 7 14 16 12
8 22 20 22 25 0 22 -11 12 -130 -127 -183 -213 -349 -457 -475 -701 -20 -40
-38 -73 -40 -73 -1 0 -61 21 -131 46 -71 25 -209 70 -307 100 -157 47 -239 69
-434 114 -29 7 -53 17 -53 24 0 18 81 157 142 242 64 91 213 280 228 289 5 3
10 11 10 17 0 6 -7 5 -17 -3 -11 -9 -9 -2 6 19 13 18 26 30 29 27 4 -3 0 -10
-8 -15 -8 -5 -11 -12 -7 -16 4 -4 14 1 21 12 8 10 10 21 5 22 -5 2 -9 8 -9 14
0 6 7 8 14 5 10 -4 13 -1 9 9 -6 17 13 19 21 2 3 -7 3 -2 0 11 -5 18 -3 23 8
19 8 -3 23 1 33 9 17 13 17 15 3 10 -28 -10 -21 2 8 13 14 6 22 15 19 20 -4 6
-3 10 2 8 4 -1 40 30 78 68 39 39 88 85 110 103 48 40 26 30 -30 -13 -77 -60
-150 -128 -147 -138 1 -5 -1 -7 -6 -4 -7 4 -89 -74 -205 -197 -78 -83 -265
-349 -328 -468 -18 -32 -38 -59 -45 -59 -13 0 -40 6 -149 33 -22 5 -34 12 -27
14 6 3 12 18 12 33 0 16 5 32 11 36 6 3 9 17 6 30 -2 13 0 25 5 26 7 3 11 14
23 78 3 19 -21 79 -42 102 -10 12 -24 16 -36 12 -16 -5 -19 -3 -14 10 6 14 3
16 -16 10 -12 -3 -34 -13 -49 -21 -16 -7 -28 -11 -28 -7 0 11 43 69 84 113 25
26 33 39 20 33 -12 -6 -45 -40 -74 -76 -55 -68 -98 -88 -139 -67 -15 8 -20 7
-26 -7 -6 -16 -7 -16 -17 1 -9 17 -11 17 -28 2 -21 -19 -37 -4 -18 17 43 44
35 45 -14 2 -52 -47 -102 -73 -116 -60 -7 8 107 133 196 217 206 192 392 302
731 430 198 74 574 154 771 163 116 5 115 3 -9 -25 -40 -9 -50 -14 -36 -19 17
-6 14 -11 -23 -33 -23 -15 -46 -27 -52 -27 -5 0 -10 -4 -10 -10 0 -15 5 -13
63 20 118 67 354 134 517 149 123 10 275 5 415 -15z m-120 -40 c-9 -9 -19 -13
-23 -10 -3 4 0 11 8 16 24 15 33 11 15 -6z m2116 -46 c-22 -29 -57 -80 -78
-113 -20 -33 -39 -62 -42 -65 -3 -3 -10 -13 -16 -22 -14 -24 -183 -268 -260
-377 -54 -76 -134 -186 -143 -196 -5 -6 -26 -35 -47 -65 -21 -30 -46 -66 -57
-79 -23 -30 -23 -48 0 -30 15 13 16 12 3 -3 -7 -10 -17 -15 -22 -13 -4 3 -26
-22 -49 -56 -41 -62 -49 -92 -12 -45 16 21 21 23 26 11 3 -9 0 -15 -9 -15 -8
0 -15 -7 -15 -15 0 -23 30 -18 40 8 8 21 9 21 9 -6 1 -16 -3 -26 -8 -23 -13 8
-34 -21 -26 -35 6 -8 10 -7 17 2 7 10 8 8 3 -6 -4 -11 -8 -25 -8 -32 0 -7 -4
-10 -9 -7 -5 4 -7 12 -4 20 3 9 -1 14 -14 14 -30 0 -32 -15 -5 -40 36 -34 33
-74 -9 -116 -19 -19 -29 -34 -23 -34 6 0 7 -3 4 -7 -7 -7 11 -33 22 -33 4 0 7
11 7 24 0 14 -4 22 -10 19 -6 -3 -2 3 9 14 11 11 21 20 21 19 4 -3 -32 -196
-38 -201 -7 -7 -5 11 8 79 5 29 4 37 -5 32 -6 -4 -9 -11 -6 -16 3 -5 1 -11 -4
-14 -5 -3 -7 -15 -4 -25 3 -10 0 -22 -6 -25 -6 -4 -11 -2 -11 4 0 6 -11 23
-24 37 -14 15 -22 31 -19 36 4 6 1 7 -7 2 -9 -5 -11 -1 -6 16 3 13 3 18 0 11
-3 -6 -10 -10 -15 -6 -5 3 -5 14 2 26 9 16 8 19 -2 13 -9 -6 -11 -3 -6 9 4 9
3 15 -2 12 -15 -10 -7 -60 16 -92 12 -17 19 -35 15 -39 -4 -5 -2 -5 5 -2 13 8
58 -57 49 -72 -3 -5 1 -15 10 -22 13 -10 44 -71 46 -89 0 -3 5 -14 11 -25 6
-11 20 -62 33 -113 35 -150 27 -329 -16 -372 -3 -3 -6 -17 -7 -31 -1 -14 -22
-56 -46 -93 -40 -59 -47 -65 -56 -49 -6 10 -11 13 -11 6 0 -6 4 -14 9 -18 5
-3 7 -17 5 -32 -4 -23 -3 -25 11 -13 8 7 13 15 11 18 -6 5 15 28 28 29 5 1 13
7 18 15 8 10 9 9 4 -4 -3 -10 -1 -20 5 -23 18 -12 -2 -25 -21 -15 -16 8 -18 8
-14 -5 4 -8 1 -15 -5 -15 -6 0 -20 -9 -32 -21 -11 -11 -24 -18 -27 -14 -4 3
-2 9 3 13 11 7 16 42 7 42 -3 0 -21 -12 -40 -27 -19 -14 -48 -26 -64 -26 -16
0 -24 -4 -17 -7 10 -7 -120 -52 -176 -63 -11 -2 1 -5 27 -8 25 -2 44 -1 42 2
-6 11 49 18 84 11 l34 -7 -39 -22 c-109 -61 -307 -45 -466 39 -34 18 -92 66
-143 117 -68 68 -94 103 -124 166 -64 132 -89 257 -84 408 2 66 2 68 -8 32 -5
-22 -7 -85 -5 -140 9 -166 76 -332 182 -452 53 -59 72 -90 39 -62 -9 7 -26 18
-38 24 -54 27 -200 275 -226 385 -20 86 -23 260 -6 315 8 27 14 51 12 53 -2 2
-7 -6 -11 -17 -6 -21 -25 -29 -25 -12 0 5 23 45 52 88 72 108 168 201 254 246
112 58 166 69 364 72 187 3 245 14 311 58 35 23 66 62 204 257 44 62 111 156
149 209 38 53 164 231 279 396 182 260 261 365 274 365 2 0 -14 -24 -36 -52z
m-2861 8 c0 -3 -4 -8 -10 -11 -5 -3 -10 -1 -10 4 0 6 5 11 10 11 6 0 10 -2 10
-4z m2958 -33 c2 -14 -4 -26 -18 -33 -42 -23 -67 11 -34 45 22 21 48 15 52
-12z m-1765 -20 c-7 -2 -19 -2 -25 0 -7 3 -2 5 12 5 14 0 19 -2 13 -5z m401
-87 c44 -20 77 -39 73 -42 -3 -3 -18 1 -35 10 -16 8 -65 29 -108 46 -44 17
-85 38 -93 45 -18 17 46 -6 163 -59z m-450 44 c-10 -4 -21 -6 -24 -3 -8 7 24
22 34 16 5 -4 1 -10 -10 -13z m-32 -180 c-14 -23 0 -27 18 -5 7 8 18 15 24 15
8 0 8 -3 0 -8 -6 -4 -13 -15 -17 -24 -4 -12 -2 -15 9 -11 7 3 14 10 14 16 0 6
2 8 5 5 3 -3 1 -17 -4 -31 -9 -22 -8 -25 6 -20 11 4 14 2 9 -5 -4 -8 -2 -10 7
-6 8 3 22 -2 31 -11 9 -9 20 -13 26 -10 14 9 12 -8 -2 -25 -7 -8 -3 -6 10 4
22 19 22 19 22 -3 0 -18 4 -21 20 -16 27 9 67 -24 61 -50 l-4 -20 -8 20 c-7
19 -8 19 -8 -1 -1 -12 -11 -29 -23 -38 -23 -15 -22 -15 7 -5 16 5 35 15 42 21
7 5 20 8 28 4 9 -3 15 0 15 10 0 8 5 12 10 9 6 -3 10 -1 10 5 0 6 5 8 10 5 6
-3 10 -2 10 3 0 5 16 14 36 20 26 8 34 8 31 -1 -2 -6 -18 -15 -35 -19 -18 -5
-32 -13 -32 -18 0 -6 -5 -9 -12 -7 -6 1 -14 -6 -16 -16 -4 -19 16 -20 31 -2 6
7 10 6 13 -2 3 -7 12 -9 21 -6 13 5 13 3 3 -14 -12 -19 -89 -73 -104 -73 -15
0 -175 -142 -236 -211 -84 -94 -112 -129 -170 -214 -62 -89 -105 -136 -153
-165 -48 -28 -72 -61 -137 -185 -67 -128 -66 -126 -97 -114 -14 5 -28 8 -30 6
-5 -6 63 -33 104 -41 29 -7 33 -5 39 21 12 54 63 208 64 193 0 -12 3 -11 11 3
6 10 8 25 5 33 -4 10 -2 12 6 8 8 -5 9 -2 5 9 -3 9 -1 19 5 23 7 5 8 2 3 -7
-6 -9 -2 -8 11 3 22 19 75 33 154 43 56 6 161 -18 285 -64 28 -11 63 -22 79
-26 29 -6 29 -7 -29 -36 -32 -16 -77 -45 -101 -64 -23 -19 -45 -31 -48 -26 -3
5 -45 23 -94 41 -48 17 -97 38 -110 46 -25 16 -28 12 -58 -83 l-13 -43 70 -56
c78 -62 86 -73 69 -103 -14 -27 -37 -26 -80 2 -48 32 -109 55 -167 62 -40 6
-51 4 -65 -12 -20 -22 -54 -129 -104 -323 -20 -80 -38 -146 -39 -148 -2 -2
-15 4 -29 13 -14 9 -29 14 -34 11 -12 -7 -3 39 42 220 38 151 41 197 18 217
-13 10 -14 9 -3 -10 10 -19 9 -23 -3 -23 -8 0 -22 7 -30 16 -14 13 -14 19 -1
50 16 40 4 47 -14 7 -10 -22 -14 -24 -22 -12 -7 12 -9 11 -9 -3 0 -28 -15 -29
-86 -2 -48 18 -81 24 -111 21 -23 -2 -44 -1 -45 2 -2 4 -52 26 -113 50 -60 24
-114 47 -119 52 -12 11 46 177 91 259 37 69 139 226 160 248 7 7 34 41 60 75
26 34 51 64 55 65 4 2 8 8 8 12 0 13 79 100 190 210 117 116 146 141 188 165
17 11 32 24 32 29 0 5 3 6 7 3 3 -4 11 -2 18 3 32 26 261 98 273 85 3 -3 -3
-5 -14 -6 -16 0 -15 -2 4 -10 29 -11 45 -3 37 20 -5 13 -4 14 7 3 10 -10 10
-16 0 -32z m757 -79 c31 -44 40 -68 20 -56 -18 12 -69 87 -69 104 0 18 6 12
49 -48z m-674 29 c3 -5 1 -10 -4 -10 -6 0 -11 5 -11 10 0 6 2 10 4 10 3 0 8
-4 11 -10z m45 -14 c0 -11 -19 -15 -25 -6 -3 5 1 10 9 10 9 0 16 -2 16 -4z
m1578 -36 c-22 -30 -35 -41 -22 -17 9 16 36 47 41 47 2 0 -6 -13 -19 -30z
m-1009 -40 c57 -17 100 -34 97 -37 -9 -10 -137 28 -186 54 -25 13 -38 22 -29
19 9 -2 62 -18 118 -36z m-1182 -15 c0 -8 -4 -12 -9 -9 -5 3 -6 10 -3 15 9 13
12 11 12 -6z m1484 -143 c24 -16 51 -37 59 -47 8 -10 -12 -1 -45 22 -33 22
-67 43 -75 46 -13 5 -13 6 1 6 8 1 35 -12 60 -27z m-501 -34 c0 -5 5 -6 11 -3
15 10 69 -15 69 -31 0 -8 9 -14 21 -14 14 0 24 -10 32 -30 6 -17 19 -30 28
-30 9 0 22 -7 29 -15 7 -8 9 -15 5 -15 -11 0 43 -52 67 -64 11 -6 21 -15 21
-21 0 -5 8 -16 18 -23 11 -7 19 -19 19 -27 0 -7 3 -15 8 -17 12 -5 52 -85 46
-91 -3 -3 3 -3 14 -1 15 5 21 -1 27 -28 5 -18 9 -38 9 -45 1 -6 5 -15 10 -20
5 -4 6 -3 2 5 -4 7 -2 12 6 12 7 0 22 13 33 29 11 17 21 28 23 27 1 -2 -10
-23 -27 -47 -95 -141 -138 -159 -411 -170 -107 -5 -220 -11 -250 -15 -37 -4
-73 -1 -110 10 -30 8 -116 32 -191 53 l-137 38 74 110 c138 205 252 312 419
390 86 41 135 53 135 33z m532 -45 c18 -15 36 -32 40 -38 4 -5 8 -6 8 -1 0 6
7 1 15 -10 13 -16 14 -16 9 -1 -9 24 -1 21 27 -10 13 -16 20 -25 15 -21 -5 4
-15 3 -22 -3 -9 -7 -20 -3 -41 17 -15 14 -45 33 -65 41 -22 9 -35 20 -31 26 4
6 0 8 -10 4 -11 -4 -14 -2 -10 9 8 21 28 17 65 -13z m-1721 -6 c-10 -9 -11 -8
-5 6 3 10 9 15 12 12 3 -3 0 -11 -7 -18z m-62 -71 c-17 -26 -34 -45 -36 -42
-6 6 60 96 65 91 2 -1 -11 -24 -29 -49z m1926 -17 c4 -5 -8 -29 -26 -54 -33
-46 -52 -62 -27 -22 20 30 30 59 19 52 -11 -6 -24 11 -17 23 7 11 45 12 51 1z
m285 7 c0 -2 -8 -10 -17 -17 -16 -13 -17 -12 -4 4 13 16 21 21 21 13z m-3867
-15 c20 0 37 -6 37 -12 0 -6 -16 -47 -35 -90 -19 -44 -35 -88 -35 -99 0 -22
-22 -39 -28 -22 -2 7 -8 12 -13 12 -6 0 -19 8 -30 18 -11 11 -39 25 -62 32
-75 22 -74 22 -39 36 17 8 32 19 32 24 0 6 -2 10 -4 10 -18 0 -176 -24 -241
-36 -100 -19 -132 -31 -138 -53 -3 -14 3 -16 32 -14 20 1 26 -1 14 -3 -20 -5
-21 -8 -12 -25 9 -19 9 -19 -10 -10 -21 12 -40 10 -100 -8 -19 -6 -38 -8 -42
-5 -9 5 30 89 62 136 12 16 39 33 67 42 91 30 413 76 487 70 11 -1 37 -2 58
-3z m1607 -51 c0 -5 -10 -15 -22 -21 l-23 -12 20 21 c23 24 25 25 25 12z
m-1764 -130 c70 -44 74 -111 18 -280 -38 -113 -40 -115 -74 -122 -37 -8 -261
8 -308 22 -23 7 -24 8 -5 9 33 1 38 19 11 40 -23 19 -23 19 -30 0 -4 -11 -15
-27 -23 -35 -30 -31 -26 11 10 101 74 182 114 233 209 267 57 21 158 20 192
-2z m3944 -14 c0 -2 -7 -9 -15 -16 -13 -11 -14 -10 -9 4 5 14 24 23 24 12z
m-350 -20 c0 -2 -8 -10 -17 -17 -16 -13 -17 -12 -4 4 13 16 21 21 21 13z m438
-110 c37 -56 81 -133 99 -171 18 -39 46 -100 63 -136 16 -37 30 -72 30 -78 0
-6 4 -19 9 -29 55 -100 115 -514 92 -637 -8 -45 -9 -40 -10 55 -1 93 -6 147
-26 280 -5 29 -42 159 -86 294 -5 15 -6 33 -2 39 3 5 1 7 -4 4 -6 -4 -14 5
-18 20 -3 15 -22 61 -42 103 -19 41 -35 85 -35 97 0 12 -6 21 -12 20 -6 -1
-10 6 -8 17 2 10 -1 15 -7 11 -7 -4 -8 0 -5 10 4 10 2 15 -7 13 -15 -3 -70 92
-62 106 3 5 1 6 -4 3 -6 -4 -18 4 -27 18 -10 15 -12 25 -6 25 7 0 4 7 -4 16
-18 18 -22 39 -5 28 6 -3 41 -52 77 -108z m-4378 66 c0 -5 -9 -17 -20 -27 -20
-19 -58 -93 -79 -158 -7 -20 -17 -37 -22 -37 -5 0 -9 -7 -9 -16 0 -11 -6 -15
-20 -11 -11 3 -20 0 -20 -6 0 -8 -34 -13 -108 -15 -103 -2 -106 -2 -81 14 37
24 54 53 39 68 -8 8 -9 6 -4 -8 6 -16 4 -18 -10 -13 -9 4 -15 3 -12 -2 7 -11
-16 -31 -42 -36 -18 -3 -20 -1 -12 20 36 96 93 176 137 194 69 28 263 52 263
33z m825 -137 c221 -44 298 -63 490 -122 217 -66 546 -188 648 -239 56 -29 55
-25 9 -169 -14 -44 -25 -83 -24 -87 4 -17 -60 -6 -162 27 -60 19 -115 35 -123
35 -8 0 -141 43 -296 96 -370 125 -645 206 -787 230 -19 3 -38 8 -42 11 -5 2
-27 6 -50 9 -24 3 -44 9 -46 14 -2 4 -12 5 -24 2 -20 -5 -20 -5 -2 24 12 18
14 25 5 20 -9 -6 -12 -5 -9 5 3 8 10 13 15 12 5 -1 7 11 5 27 -3 21 1 32 12
36 9 3 14 10 11 15 -3 4 -3 20 1 34 5 20 9 23 15 13 6 -8 6 1 2 21 l-6 34 89
-6 c49 -4 170 -23 269 -42z m-845 -135 c0 -5 -5 -10 -11 -10 -5 0 -7 5 -4 10
3 6 8 10 11 10 2 0 4 -4 4 -10z m2155 -251 c46 -12 164 -56 183 -67 9 -6 5
-28 -17 -93 -37 -108 -69 -179 -81 -179 -6 0 -9 -5 -7 -12 2 -11 -10 -13 -43
-9 -5 0 -10 11 -10 23 0 20 -1 21 -13 4 -12 -16 -14 -16 -26 -2 -7 9 -17 13
-22 10 -11 -6 -49 13 -72 38 -17 17 -18 26 -8 81 6 34 20 86 30 115 11 30 17
60 14 68 -6 17 13 19 21 2 3 -7 3 -3 0 10 -6 25 -4 26 51 11z m528 -42 c44
-18 83 -57 57 -57 -5 0 -17 -17 -25 -37 -17 -39 -79 -262 -109 -387 -9 -38
-17 -71 -19 -73 -4 -3 -121 46 -157 67 -14 8 -28 13 -32 12 -5 -1 -8 2 -8 8 0
40 94 398 120 456 l19 45 53 -7 c29 -3 75 -16 101 -27z m-613 14 c0 -6 -4 -13
-10 -16 -5 -3 -10 1 -10 9 0 9 5 16 10 16 6 0 10 -4 10 -9z m1936 -77 c14 -31
23 -64 21 -73 -2 -9 -11 7 -19 36 -9 28 -21 61 -28 72 -6 12 -8 21 -5 21 3 0
17 -25 31 -56z m-3656 -48 c244 -44 505 -105 735 -171 299 -86 708 -233 953
-343 l102 -45 -27 -30 c-26 -29 -27 -29 -3 -14 35 24 62 22 30 -3 -22 -17 -23
-21 -10 -34 18 -17 164 -69 241 -85 30 -7 69 -22 86 -34 36 -26 276 -232 379
-327 40 -36 94 -82 120 -102 27 -21 65 -52 84 -71 51 -48 88 -69 110 -62 11 4
47 -8 92 -31 112 -56 186 -81 325 -110 162 -33 243 -60 263 -87 114 -161 286
-530 420 -902 89 -249 137 -367 197 -490 30 -60 52 -118 49 -128 -2 -9 0 -15
5 -11 11 6 32 -44 23 -57 -3 -5 0 -9 6 -9 7 0 9 -7 6 -16 -3 -8 -2 -13 3 -10
5 3 12 -6 16 -21 3 -15 25 -70 47 -123 22 -52 65 -167 94 -255 101 -305 146
-529 164 -829 22 -346 -22 -619 -120 -755 -38 -52 -63 -65 -109 -56 -66 12
-198 84 -184 100 4 4 3 5 -4 1 -7 -4 -23 0 -36 9 -22 14 -23 19 -16 77 5 35 9
93 10 129 5 146 -61 182 -390 213 -30 3 -57 9 -60 14 -18 25 -69 92 -96 123
-72 84 -98 120 -226 309 -297 435 -454 867 -528 1445 -34 266 -40 414 -34 807
6 367 -1 588 -17 588 -5 0 -8 -17 -7 -37 2 -36 -8 -215 -19 -368 -7 -88 7
-706 15 -701 3 2 7 -30 8 -73 2 -126 31 -333 80 -571 64 -316 65 -321 59 -335
-6 -17 -143 -85 -171 -85 -12 0 -31 -9 -43 -21 -12 -11 -26 -18 -31 -15 -5 3
-39 -24 -76 -59 -53 -52 -70 -63 -81 -54 -9 7 -14 8 -14 1 0 -6 -30 -10 -74
-9 -48 1 -73 5 -69 12 3 5 0 5 -7 -2 -7 -6 -27 -9 -47 -6 -19 3 -44 1 -56 -5
-48 -24 -145 -52 -192 -56 -27 -2 -50 -5 -50 -6 0 -3 -7 -4 -150 -19 -165 -19
-412 -7 -655 29 -69 11 -177 19 -240 19 -63 0 -126 1 -140 1 -14 1 -36 2 -50
3 -52 2 -194 -6 -167 -10 15 -2 27 -9 27 -14 0 -6 -6 -7 -12 -3 -10 5 -10 4
-2 -5 9 -10 17 -10 34 -1 12 6 28 9 36 6 8 -3 13 -2 10 3 -3 4 25 8 62 9 l67
0 -55 -12 c-128 -30 -294 -119 -425 -228 -56 -46 -95 -72 -98 -65 -2 7 -17 19
-33 27 -16 8 -40 22 -54 31 -14 9 -96 58 -184 108 -87 50 -183 106 -212 124
-51 31 -66 47 -43 47 6 0 38 19 70 42 40 28 71 42 94 43 40 1 42 -2 18 -21
-16 -12 -9 -13 47 -11 36 2 74 -1 85 -6 11 -6 36 -12 55 -14 19 -2 45 -5 58
-8 33 -8 27 4 -10 20 -18 8 -28 14 -22 15 12 0 106 -39 157 -65 30 -16 35 -11
12 11 -8 9 -15 13 -15 10 0 -3 -21 7 -47 23 -56 34 -209 98 -408 172 -162 60
-518 220 -547 246 -27 24 -111 133 -103 133 4 0 -18 26 -48 58 -31 31 -66 71
-78 87 -54 71 -109 105 -170 105 -9 0 -33 19 -52 43 -20 23 -51 60 -71 82 -20
22 -36 44 -36 48 0 5 -4 6 -9 2 -5 -3 -12 4 -16 15 -3 11 -9 20 -13 20 -4 0
-18 18 -32 40 -14 22 -28 40 -33 40 -4 0 -5 5 -2 10 3 6 2 10 -4 10 -18 0 -41
57 -41 100 0 23 -11 75 -25 116 -26 77 -30 98 -17 76 5 -7 8 34 7 90 -2 103
-2 103 29 132 17 16 24 26 16 21 -8 -4 -5 2 7 14 12 11 27 39 33 61 6 22 14
40 19 40 4 0 21 19 38 43 34 46 49 62 112 121 23 21 48 51 56 67 8 15 26 108
40 206 15 98 30 194 35 213 5 20 17 74 25 120 18 91 134 452 166 510 10 19 30
61 43 93 39 90 126 215 205 295 39 40 69 76 66 81 -2 5 2 12 10 15 8 3 15 9
14 13 -3 19 2 34 9 29 8 -5 47 52 40 58 -1 2 -41 -14 -87 -36 -79 -37 -111
-42 -111 -18 0 9 21 14 36 8 3 -2 11 7 18 20 6 12 36 37 65 56 50 33 81 42
161 50 19 2 42 6 50 9 59 23 284 14 460 -17z m3696 -72 c-6 -21 -4 -25 8 -21
9 4 18 1 22 -5 4 -7 3 -8 -4 -4 -8 5 -12 -3 -12 -23 0 -17 3 -31 8 -31 4 0 7
-27 7 -59 0 -33 -3 -57 -7 -54 -5 2 -8 26 -8 53 0 27 -7 70 -16 96 -8 25 -13
52 -10 60 9 25 18 15 12 -12z m-2039 -16 c-3 -7 -5 -2 -5 12 0 14 2 19 5 13 2
-7 2 -19 0 -25z m2763 -183 c22 -126 36 -328 22 -305 -5 8 -12 38 -16 65 -45
331 -56 411 -55 420 2 29 32 -84 49 -180z m-3085 -45 c15 -6 25 -13 22 -16 -6
-6 -67 23 -67 32 0 3 4 3 9 0 4 -3 21 -10 36 -16z m630 -38 c5 -13 4 -14 -6
-5 -9 9 -18 9 -31 2 -24 -13 -35 -4 -19 15 14 17 47 10 56 -12z m1759 -19 c-7
-43 -23 -67 -19 -31 1 13 3 33 4 46 0 12 6 22 11 22 7 0 8 -14 4 -37z m-2088
-68 c18 -13 18 -14 -4 -8 -12 3 -25 9 -28 14 -8 14 10 11 32 -6z m2067 -15 c3
-11 1 -18 -4 -14 -5 3 -9 12 -9 20 0 20 7 17 13 -6z m131 -95 c9 -9 16 -23 16
-31 0 -9 -15 -3 -45 18 -52 37 -64 68 -16 43 16 -8 36 -22 45 -30z m787 -194
c16 -25 29 -59 29 -75 0 -67 -71 -522 -84 -534 -10 -11 -12 -6 -11 25 3 63 53
394 71 476 5 21 3 27 -11 27 -9 0 -15 6 -12 13 2 6 10 11 16 9 16 -3 -35 96
-68 133 l-26 30 34 -30 c18 -16 47 -50 62 -74z m-2286 49 c10 -11 16 -20 13
-20 -3 0 -13 9 -23 20 -10 11 -16 20 -13 20 3 0 13 -9 23 -20z m1190 -40 c3
-5 0 -10 -8 -10 -8 0 -17 -6 -20 -14 -3 -7 -24 -23 -46 -35 -47 -24 -64 -28
-36 -7 18 13 18 13 -1 25 -11 7 -13 11 -3 8 8 -3 26 2 40 9 l24 15 -25 -6
c-19 -5 -22 -4 -10 4 8 6 22 8 32 5 9 -2 19 0 23 6 8 13 22 13 30 0z m975
-110 c0 -5 -10 -12 -22 -14 -64 -13 -88 -15 -88 -6 0 10 52 28 88 29 12 1 22
-3 22 -9z m-130 -31 c0 -18 -18 -9 -23 12 -4 16 -3 18 9 8 8 -6 14 -15 14 -20z
m-7117 -43 c-12 -27 -13 -40 -5 -65 15 -44 7 -39 -24 15 l-27 46 24 19 c39 30
51 24 32 -15z m117 -201 c7 -8 8 -15 2 -15 -5 0 -15 7 -22 15 -7 8 -8 15 -2
15 5 0 15 -7 22 -15z m6846 -132 c27 -14 58 -34 69 -43 11 -9 52 -39 90 -65
39 -26 78 -57 88 -69 10 -11 15 -14 11 -6 -24 47 290 -263 366 -360 l35 -45
-45 36 c-68 54 -227 159 -305 201 -75 41 -49 42 43 1 96 -42 92 -35 -68 106
-90 81 -145 124 -225 179 -67 45 -123 91 -114 92 4 0 28 -12 55 -27z m-7208
-50 c-64 -67 -224 -163 -273 -163 -34 0 -170 -57 -167 -70 2 -9 -7 -10 -32 -6
-53 10 -107 -23 -212 -128 -92 -91 -327 -396 -361 -468 -17 -35 -33 -50 -33
-30 0 15 136 228 195 307 81 108 225 265 271 297 57 39 136 74 239 103 50 14
113 37 142 50 60 27 213 127 239 157 17 18 19 18 22 3 2 -9 -11 -33 -30 -52z
m7943 -620 c13 -16 12 -17 -3 -4 -10 7 -18 15 -18 17 0 8 8 3 21 -13z m54 -63
c10 -11 16 -20 13 -20 -3 0 -13 9 -23 20 -10 11 -16 20 -13 20 3 0 13 -9 23
-20z m-7861 -271 c20 -12 36 -25 36 -31 0 -5 8 -7 19 -3 12 3 29 -3 47 -18
135 -112 536 -387 899 -617 200 -127 260 -167 205 -140 -36 18 -319 191 -430
262 -52 34 -124 79 -160 101 -119 73 -324 209 -395 262 -38 29 -86 61 -105 71
-51 28 -147 103 -154 120 -7 18 -4 18 38 -7z m247 -245 c9 -11 2 -9 -18 6 -18
13 -33 25 -33 27 0 8 38 -17 51 -33z m115 -81 c-6 -6 -46 20 -46 30 0 4 11 0
25 -9 14 -9 24 -19 21 -21z m29 -13 c3 -5 1 -10 -4 -10 -6 0 -11 5 -11 10 0 6
2 10 4 10 3 0 8 -4 11 -10z m58 -30 c22 -26 22 -33 -2 -18 -11 7 -17 16 -14
22 4 5 -1 7 -10 3 -10 -3 -17 -2 -17 3 0 17 25 11 43 -10z m132 -98 c-3 -3
-11 0 -18 7 -9 10 -8 11 6 5 10 -3 15 -9 12 -12z m1157 -224 c61 -35 73 -71
73 -228 0 -154 -8 -183 -66 -261 -52 -70 -55 -84 -29 -150 12 -30 34 -101 49
-159 l27 -105 36 0 c21 0 48 -9 65 -21 15 -11 87 -60 158 -108 136 -93 164
-114 131 -102 -16 6 -112 18 -431 56 -73 9 -205 27 -399 54 -10 1 -24 10 -31
19 -7 9 -14 14 -17 11 -3 -2 -8 8 -11 24 -3 16 -20 42 -37 58 -41 38 -96 147
-115 226 -19 81 -19 218 0 292 44 169 136 273 345 390 63 35 68 36 140 30 49
-3 87 -13 112 -26z m213 -275 c31 -44 70 -114 87 -155 17 -40 35 -79 40 -85 7
-9 7 -13 0 -13 -6 0 -12 5 -14 11 -2 6 -17 12 -33 12 -16 1 -64 22 -105 47
l-75 45 -12 125 c-17 190 -19 180 22 134 19 -21 60 -76 90 -121z m-700 137 c3
-5 1 -10 -4 -10 -6 0 -11 5 -11 10 0 6 2 10 4 10 3 0 8 -4 11 -10z m932 -324
c54 -30 60 -46 18 -46 -14 0 -35 14 -54 35 -48 56 -46 56 36 11z m210 -100
c17 -2 68 -16 114 -32 73 -26 79 -29 53 -35 -36 -7 -106 -43 -129 -65 -9 -9
-14 -23 -11 -30 14 -36 -55 -7 -201 85 -45 28 -56 47 -22 38 11 -3 29 1 39 11
26 21 80 40 105 35 11 -2 34 -5 52 -7z m3382 -168 c141 -318 304 -586 548
-895 40 -51 73 -94 73 -97 0 -2 -17 -2 -37 0 -21 2 -144 13 -273 24 -829 71
-1050 97 -1050 126 0 7 -12 26 -26 43 -20 25 -34 31 -64 31 -29 0 -44 6 -62
28 -47 54 -56 58 -79 28 -11 -14 -24 -26 -28 -26 -5 0 -23 51 -41 113 -48 166
-115 309 -187 404 -14 18 -24 36 -21 38 3 3 65 10 139 15 161 13 238 25 343
56 84 25 180 31 251 14 36 -8 43 -7 70 19 45 42 116 91 133 91 8 0 44 14 79
30 36 17 78 34 94 37 19 4 35 16 45 34 8 16 18 29 22 29 5 0 36 -64 71 -142z
m-1734 -123 c352 -52 391 -65 489 -160 60 -59 108 -144 140 -252 50 -165 76
-283 56 -253 -6 10 -10 11 -10 3 0 -32 -280 2 -480 57 l-45 13 30 13 c17 7 38
13 48 14 9 0 17 5 17 11 0 6 -11 8 -27 5 -16 -2 -46 -7 -68 -11 -22 -3 -76
-18 -120 -32 -44 -14 -87 -27 -95 -28 -29 -3 -138 -71 -297 -185 -80 -57 -254
-130 -373 -155 -51 -11 -250 -14 -250 -4 0 5 -7 9 -16 9 -25 0 -97 79 -123
135 -29 61 -39 166 -21 221 7 21 32 81 57 133 102 215 372 417 638 480 78 18
273 12 450 -14z m-1640 -65 c3 -6 -1 -7 -9 -4 -18 7 -21 14 -7 14 6 0 13 -4
16 -10z m-1528 -76 c-3 -3 -12 -4 -19 -1 -8 3 -5 6 6 6 11 1 17 -2 13 -5z
m-102 -49 c72 -9 247 -31 390 -50 143 -19 402 -53 575 -75 173 -23 412 -55
530 -71 118 -17 311 -40 427 -53 117 -12 216 -26 220 -29 3 -4 1 -17 -4 -30
-11 -24 -11 -24 -95 -12 -45 7 -121 18 -168 24 -47 6 -148 20 -225 31 -164 22
-557 76 -665 90 -41 6 -178 24 -305 40 -126 17 -279 37 -340 46 -195 26 -439
54 -476 54 -31 0 -40 -6 -68 -45 -18 -25 -36 -43 -41 -40 -5 3 -15 -14 -24
-37 -15 -40 -97 -407 -166 -743 -181 -880 -251 -1238 -253 -1281 -2 -83 13
-97 130 -118 54 -9 186 -32 293 -51 107 -19 303 -52 435 -74 437 -74 598 -102
790 -137 105 -18 312 -54 460 -79 513 -86 921 -156 1230 -211 311 -55 605
-106 940 -164 99 -17 187 -33 195 -35 8 -3 119 -22 245 -44 230 -40 319 -56
860 -151 159 -28 293 -54 296 -58 4 -4 3 -18 -2 -31 -7 -17 -14 -21 -27 -16
-9 4 -64 16 -122 26 -211 39 -1103 198 -1595 285 -203 36 -509 90 -680 120
-170 30 -481 84 -690 119 -561 96 -819 140 -1046 180 -112 20 -323 56 -469 81
-146 24 -341 58 -435 74 -93 16 -280 48 -415 70 -304 50 -398 68 -429 81 -22
9 -23 13 -17 72 4 34 7 78 7 97 0 39 166 871 254 1270 31 140 74 345 96 455
48 240 83 376 105 409 24 37 49 38 279 11z m-61 -105 c35 -13 59 -64 52 -106
-12 -61 -92 -97 -129 -56 -8 9 -20 36 -26 59 -13 48 -5 72 31 97 26 19 38 19
72 6z m6997 -54 c22 -9 45 -14 50 -10 5 3 9 2 8 -3 -1 -4 1 -16 5 -25 7 -15
10 -16 23 -3 22 22 37 8 20 -18 -24 -37 -57 -34 -136 14 -19 11 -42 18 -52 16
-15 -4 -16 -1 -8 22 6 14 18 34 27 45 17 18 17 18 20 -2 2 -13 18 -26 43 -36z
m144 -134 c-3 -3 -11 0 -18 7 -9 10 -8 11 6 5 10 -3 15 -9 12 -12z m415 -14
c0 -12 -28 3 -34 18 -4 11 -2 12 14 1 11 -6 20 -15 20 -19z m-80 12 c0 -5 -5
-10 -11 -10 -5 0 -7 5 -4 10 3 6 8 10 11 10 2 0 4 -4 4 -10z m-286 -9 c3 -5
20 -8 37 -7 22 2 38 -6 60 -28 17 -18 27 -24 24 -13 -4 10 -2 17 5 17 6 0 8
-5 4 -12 -5 -7 -2 -9 8 -6 11 5 15 0 14 -15 -1 -28 -18 -31 -44 -7 -14 13 -22
16 -22 8 0 -8 -3 -9 -8 -3 -8 12 -39 31 -69 44 -23 11 -40 31 -24 31 5 0 12
-4 15 -9z m151 -11 c3 -5 2 -10 -4 -10 -5 0 -13 5 -16 10 -3 6 -2 10 4 10 5 0
13 -4 16 -10z m38 -21 c-13 -13 -6 -42 8 -33 5 3 9 0 9 -5 0 -20 -20 -11 -32
13 -13 31 -3 65 14 48 9 -9 9 -15 1 -23z m47 21 c-8 -5 -19 -10 -25 -10 -5 0
-3 5 5 10 8 5 20 10 25 10 6 0 3 -5 -5 -10z m80 6 c0 -3 -4 -8 -10 -11 -5 -3
-10 -1 -10 4 0 6 5 11 10 11 6 0 10 -2 10 -4z m-339 -23 c13 -17 13 -17 -6 -3
-11 8 -22 16 -24 17 -2 2 0 3 6 3 6 0 17 -8 24 -17z m363 0 c-5 -5 -12 -12
-16 -18 -4 -6 -8 -2 -8 8 0 9 7 17 17 17 9 0 12 -3 7 -7z m-24 -38 c11 7 14
-8 4 -18 -13 -13 -34 7 -33 32 0 26 0 26 10 3 5 -13 13 -20 19 -17z m106 8
c-5 -40 -19 -68 -36 -71 -12 -3 -12 0 2 15 9 10 19 33 23 51 8 39 16 43 11 5z
m-146 -4 c0 -11 -4 -18 -10 -14 -5 3 -7 12 -3 20 7 21 13 19 13 -6z m-193 -18
c41 -21 62 -26 71 -19 14 13 17 -9 3 -31 -8 -12 -12 -12 -26 3 -9 9 -33 25
-54 36 -86 46 -82 54 6 11z m303 9 c0 -5 -4 -10 -10 -10 -5 0 -10 5 -10 10 0
6 5 10 10 10 6 0 10 -4 10 -10z m105 -11 c11 -16 1 -19 -13 -3 -7 8 -8 14 -3
14 5 0 13 -5 16 -11z m-194 -39 c5 0 9 6 10 13 0 8 2 8 6 -2 5 -11 7 -11 15 0
8 11 9 11 5 -1 -2 -8 -14 -15 -28 -15 -14 0 -24 6 -25 15 0 9 1 10 3 3 3 -7 9
-13 14 -13z m234 11 c3 -5 1 -12 -4 -15 -5 -3 -11 1 -15 9 -6 16 9 21 19 6z
m-85 -11 c0 -5 -2 -10 -4 -10 -3 0 -8 5 -11 10 -3 6 -1 10 4 10 6 0 11 -4 11
-10z m-4330 -21 c-11 -8 -6 -9 21 -7 26 3 35 0 32 -8 -3 -8 3 -11 14 -9 10 2
18 4 18 5 0 10 96 7 150 -5 39 -8 160 -31 270 -49 110 -19 232 -42 270 -51
158 -36 813 -155 985 -180 365 -51 406 -57 500 -65 123 -10 335 -39 381 -51
45 -11 76 -37 84 -71 4 -14 1 -61 -5 -104 -6 -43 -29 -218 -50 -389 -55 -431
-53 -420 -110 -810 -46 -316 -128 -878 -130 -882 0 0 -9 1 -20 4 -16 4 -20 14
-20 47 0 39 52 410 130 926 127 841 151 1091 110 1158 -11 17 -24 32 -29 32
-5 0 -17 7 -25 15 -10 10 -49 20 -103 26 -48 5 -126 16 -173 24 -124 22 -741
122 -835 135 -78 12 -278 45 -920 155 -176 30 -349 59 -385 65 -36 6 -74 15
-85 20 -23 10 -136 35 -147 32 -17 -4 -7 18 13 29 17 9 20 8 14 -2 -5 -7 2 -5
16 4 13 9 28 17 34 17 5 0 3 -5 -5 -11z m866 -31 c10 -12 13 -18 7 -14 -7 4
-13 3 -13 -3 0 -6 -6 -8 -14 -5 -14 5 -19 44 -5 44 3 0 14 -10 25 -22z m3551
-20 c-3 -8 -6 -5 -6 6 -1 11 2 17 5 13 3 -3 4 -12 1 -19z m-3449 0 c24 -24 14
-40 -20 -33 -40 9 -42 10 -35 30 7 18 38 20 55 3z m-5824 -208 c30 -75 117
-208 198 -304 37 -44 66 -82 63 -84 -5 -6 -31 21 -86 89 -25 31 -44 44 -63 45
-15 1 -25 0 -22 -3 3 -3 0 -11 -7 -17 -12 -14 -60 -9 -51 5 3 5 0 9 -5 9 -6 0
-11 -7 -11 -15 0 -8 4 -15 8 -15 5 0 9 -7 9 -15 0 -13 -3 -13 -18 1 -11 10
-19 12 -24 4 -3 -5 -11 -8 -16 -4 -5 3 -6 10 -3 16 5 8 1 9 -12 3 -10 -4 -27
-7 -37 -7 -9 0 -15 -3 -12 -9 4 -5 4 -9 1 -9 -2 0 -11 -3 -19 -6 -10 -3 -17 1
-20 13 -2 10 -3 6 -1 -9 2 -16 -1 -28 -7 -28 -6 0 -7 -4 -4 -10 3 -5 0 -10 -8
-10 -7 0 -23 -9 -35 -20 -12 -11 -25 -21 -29 -23 -4 -1 -18 -13 -32 -26 -28
-25 -177 -115 -209 -125 -16 -5 -24 5 -51 64 -17 39 -31 74 -31 79 0 6 -5 13
-10 16 -10 6 12 -55 49 -141 18 -40 18 -41 -1 -53 -16 -10 -19 -10 -13 1 6 10
5 11 -6 1 -26 -25 -58 -15 -84 27 -14 22 -25 42 -25 46 0 3 -9 18 -20 34 l-20
28 26 37 c14 21 32 45 41 53 14 14 17 14 30 -4 15 -19 15 -18 9 2 -5 17 6 34
56 81 80 77 144 132 134 116 -14 -24 5 -13 110 68 58 44 107 79 108 77 2 -2 8
-12 14 -23 10 -17 11 -16 6 11 -5 26 0 35 31 63 51 44 71 38 99 -29z m1715 -8
c62 -45 91 -126 91 -247 l0 -65 -39 0 c-22 0 -46 -2 -54 -6 -10 -4 -16 6 -21
35 -9 57 -42 93 -89 94 -30 1 -44 -6 -76 -37 -124 -121 -175 -484 -81 -578 44
-43 82 -38 138 17 25 25 48 44 51 43 3 -2 23 -14 44 -27 l37 -23 -42 -79 c-55
-103 -115 -165 -175 -177 -143 -31 -233 105 -233 354 0 220 97 514 208 633 82
87 176 112 241 63z m517 -78 c69 -33 116 -183 117 -369 1 -339 -185 -705 -359
-705 -147 0 -220 125 -217 370 3 300 135 617 293 700 44 24 121 25 166 4z
m6712 -24 c4 -12 3 -13 -10 -3 -8 7 -18 10 -21 6 -4 -3 -7 -1 -7 6 0 17 32 10
38 -9z m-8773 -93 c15 -28 25 -50 22 -47 -10 9 -57 81 -57 87 0 4 -8 16 -17
27 -18 21 -18 21 3 3 12 -9 34 -41 49 -70z m2409 43 c19 -7 23 -21 35 -111 26
-200 97 -594 104 -575 4 10 7 28 7 42 0 29 98 596 105 602 2 2 26 -2 54 -9 43
-11 50 -16 46 -33 -3 -12 -34 -183 -70 -381 -36 -198 -78 -424 -93 -503 l-27
-142 -50 6 c-27 4 -53 9 -56 13 -3 3 -13 67 -23 141 -21 175 -88 581 -94 575
-3 -2 -10 -37 -17 -77 -105 -620 -100 -601 -124 -594 -9 2 -31 7 -48 11 -22 4
-33 12 -33 23 0 9 18 109 39 222 22 113 51 277 66 365 29 176 61 349 76 408
10 38 11 39 46 32 19 -3 45 -10 57 -15z m6264 -51 l22 -25 -34 -80 c-18 -43
-67 -149 -109 -234 -41 -85 -87 -183 -101 -217 -14 -35 -35 -77 -47 -95 l-20
-33 6 33 c4 21 3 32 -5 32 -6 0 -9 -3 -6 -8 7 -11 -17 -38 -34 -36 -8 0 -23 2
-32 2 -10 1 -18 9 -18 17 0 10 309 633 337 678 3 5 8 5 12 0 3 -4 16 -19 29
-34z m-5585 -43 c72 -30 117 -124 117 -245 l0 -66 -57 5 -57 5 -9 42 c-9 49
-45 83 -88 83 -77 0 -115 -139 -55 -202 12 -13 52 -48 88 -78 88 -73 110 -114
116 -210 9 -169 -72 -356 -179 -410 -51 -26 -114 -25 -169 3 -68 34 -101 106
-108 233 l-5 97 24 -6 c13 -4 40 -7 60 -7 35 0 37 -2 43 -41 9 -56 52 -99 101
-99 44 0 79 31 95 87 18 58 -6 101 -84 157 -123 88 -146 130 -146 263 0 177
62 322 165 385 36 21 103 23 148 4z m4048 -43 c49 -29 50 -105 2 -143 -35 -27
-65 -25 -94 6 -35 37 -33 98 4 130 33 28 49 30 88 7z m-3601 -38 c85 -14 164
-25 177 -25 18 0 23 -6 23 -24 0 -34 -30 -190 -38 -198 -4 -4 -37 -2 -74 5
-43 7 -71 8 -77 2 -6 -6 -24 -93 -41 -195 -66 -400 -106 -619 -111 -625 -3 -2
-26 1 -52 7 -33 7 -47 15 -47 26 0 9 30 196 66 415 36 219 64 400 62 402 -2 3
-37 9 -78 15 -41 6 -75 12 -78 14 -4 5 28 197 35 209 5 9 5 9 233 -28z m5250
21 c0 -3 -4 -8 -10 -11 -5 -3 -10 -1 -10 4 0 6 5 11 10 11 6 0 10 -2 10 -4z
m-8929 -33 c13 -16 12 -17 -3 -4 -10 7 -18 15 -18 17 0 8 8 3 21 -13z m4061
-48 c47 -7 104 -18 125 -24 42 -12 86 -51 101 -91 30 -79 21 -239 -19 -345
-10 -28 -34 -66 -53 -84 l-34 -33 19 -42 c25 -55 25 -166 -1 -298 -11 -57 -20
-124 -20 -149 l0 -46 -47 8 c-26 5 -52 14 -57 19 -7 7 -5 51 7 133 18 128 21
185 11 212 -9 23 -53 43 -111 51 l-50 6 -11 -43 c-6 -24 -21 -108 -34 -187
l-23 -143 -50 7 c-27 3 -52 8 -54 10 -5 4 141 859 175 1027 7 31 8 32 126 12z
m410 -61 c33 -6 37 -9 32 -33 -42 -245 -104 -669 -104 -716 0 -87 37 -155 86
-155 30 0 80 44 103 89 22 44 34 97 61 261 51 324 79 491 84 499 6 9 106 -8
106 -18 0 -6 -8 -55 -74 -470 -60 -370 -115 -514 -217 -567 -67 -34 -181 -4
-220 59 -63 104 -55 247 52 920 24 149 19 143 91 131z m4284 -190 c-47 -93
-85 -165 -85 -161 -1 12 163 337 167 333 2 -2 -35 -80 -82 -172z m-3505 81
c67 -35 102 -113 115 -254 l7 -81 -30 0 c-17 0 -44 -3 -60 -6 -29 -6 -30 -4
-37 36 -9 59 -22 80 -62 96 -64 27 -121 -14 -173 -126 -56 -119 -74 -323 -41
-443 6 -21 24 -52 40 -70 24 -27 35 -32 71 -31 38 1 48 7 82 45 33 37 41 41
55 31 9 -7 29 -17 45 -23 32 -13 33 -20 7 -77 -58 -129 -157 -221 -223 -208
-17 3 -42 8 -53 10 -36 6 -60 24 -98 67 -63 74 -93 211 -82 379 15 250 91 471
202 589 84 88 153 108 235 66z m432 -78 c114 -19 209 -36 212 -39 4 -4 -20
-176 -30 -209 -5 -14 -14 -14 -83 -3 -42 7 -80 9 -83 6 -4 -4 -14 -52 -22
-107 -50 -315 -120 -740 -122 -743 -2 -2 -26 0 -54 4 -43 6 -51 10 -51 28 0
21 8 73 90 584 23 145 40 265 38 267 -1 2 -36 8 -76 13 -41 6 -76 13 -78 15
-9 9 29 217 40 217 6 0 104 -15 219 -33z m-5456 -207 c71 -99 157 -205 197
-245 118 -114 286 -322 286 -352 0 -20 6 -26 -75 82 -67 89 -211 261 -237 282
-10 8 -18 8 -33 -3 -19 -14 -19 -14 5 -12 16 2 27 -4 36 -20 6 -13 15 -24 20
-25 5 -1 8 -6 6 -10 -1 -5 2 -6 8 -2 5 3 10 2 10 -3 0 -4 10 -19 23 -32 12
-14 21 -28 19 -32 -1 -5 2 -8 8 -8 5 0 10 -7 10 -16 0 -8 5 -12 10 -9 6 3 10
-1 10 -10 0 -9 4 -14 9 -10 5 3 12 1 16 -5 3 -5 0 -10 -7 -11 -7 0 -4 -4 6 -8
11 -4 20 -15 22 -24 3 -22 -2 -21 -28 3 -12 11 -27 20 -32 20 -6 0 -3 -7 7
-14 20 -15 24 -60 5 -54 -7 3 -14 14 -16 25 -2 12 -12 23 -23 26 -12 3 -17 1
-12 -6 4 -7 0 -8 -11 -4 -14 6 -16 3 -11 -16 6 -21 5 -21 -9 -4 -8 11 -12 25
-9 33 6 16 -13 19 -22 4 -3 -5 -11 -10 -16 -10 -6 0 -3 7 5 16 18 17 21 34 7
34 -5 0 -11 7 -15 15 -9 25 12 17 44 -16 22 -23 30 -27 30 -15 0 9 -4 16 -10
16 -12 0 -135 120 -143 140 -5 13 -7 13 -16 0 -5 -8 -13 -11 -18 -7 -4 5 -2
12 5 16 10 6 9 14 -4 39 -8 18 -20 32 -26 32 -5 0 -7 7 -4 16 3 8 2 13 -3 10
-5 -3 -12 1 -15 10 -3 8 -2 12 3 9 5 -3 12 -1 15 4 3 5 -3 11 -13 14 -11 2
-31 22 -45 43 -41 63 -88 129 -96 134 -15 11 -60 86 -60 100 0 13 2 13 11 0 9
-12 10 -11 6 8 -3 12 -1 22 4 22 5 0 9 -3 9 -7 1 -5 12 -21 26 -38 l26 -30
-26 46 c-29 51 -35 87 -10 54 9 -11 72 -99 141 -195z m5834 144 c4 -2 1 -38
-6 -81 -7 -43 -34 -208 -59 -368 -71 -441 -104 -636 -109 -641 -6 -6 -81 6
-96 16 -9 5 0 85 38 321 52 319 117 705 126 747 5 21 9 23 53 16 26 -3 50 -8
53 -10z m424 -73 c42 -24 91 -111 112 -200 22 -93 24 -303 4 -406 -45 -233
-166 -459 -268 -501 -80 -34 -182 -3 -232 70 -114 165 -97 581 34 842 95 190
229 264 350 195z m-6401 -67 c9 -24 7 -27 -9 -10 -17 17 -19 26 -6 26 5 0 12
-7 15 -16z m6774 1 c2 -2 63 -294 123 -590 16 -82 32 -151 34 -154 3 -2 5 11
5 30 0 50 87 659 95 667 6 6 78 -8 94 -17 11 -7 6 -58 -27 -287 -23 -154 -57
-389 -77 -524 -45 -311 -41 -291 -68 -286 -12 3 -38 7 -58 11 l-35 5 -23 138
c-22 130 -120 624 -125 629 -2 2 -17 -95 -35 -215 -61 -411 -72 -487 -76 -498
-2 -8 -18 -9 -54 -1 -43 8 -51 13 -51 32 0 13 18 133 40 267 32 202 86 576
107 743 8 68 7 67 70 59 32 -3 59 -8 61 -9z m-6798 -50 c0 -5 -5 -3 -10 5 -5
8 -10 11 -10 5 0 -5 -5 -3 -10 5 -16 25 -11 31 10 13 11 -10 20 -22 20 -28z
m8568 0 c-13 -24 -26 -45 -31 -45 -4 0 3 20 15 45 13 24 26 45 31 45 4 0 -3
-20 -15 -45z m-8551 -20 c0 -8 -4 -12 -9 -9 -5 3 -6 10 -3 15 9 13 12 11 12
-6z m8419 3 c24 -11 26 -16 22 -60 -3 -27 -8 -51 -12 -55 -3 -4 -32 5 -64 19
-31 15 -65 29 -74 32 -21 6 -23 28 -6 56 10 15 24 20 60 20 26 0 59 -5 74 -12z
m-86 -113 c39 -19 70 -40 70 -45 0 -14 -49 -141 -59 -154 -5 -6 -12 -26 -16
-43 -3 -18 -10 -33 -14 -33 -3 0 -12 -13 -18 -29 -9 -26 -9 -29 6 -24 9 4 5
-3 -9 -16 -17 -16 -20 -21 -7 -17 27 8 20 -3 -8 -14 -17 -6 -25 -17 -25 -33 0
-13 -3 -27 -7 -31 -5 -4 -8 -11 -8 -14 -3 -31 -56 -162 -66 -162 -5 0 -6 -6
-3 -14 7 -19 -34 -15 -47 4 -8 13 -11 13 -22 -1 -6 -9 -19 -14 -27 -11 -13 4
-13 3 -2 -10 9 -11 9 -18 3 -23 -6 -3 -15 -20 -20 -38 -7 -23 -9 -26 -10 -11
-1 24 -27 39 -37 22 -4 -7 -3 -8 4 -4 7 4 12 2 12 -3 0 -6 -5 -11 -10 -11 -6
0 -8 -11 -4 -26 5 -19 4 -25 -5 -20 -6 4 -11 2 -11 -3 0 -6 -5 -11 -11 -11 -5
0 -7 5 -3 12 4 7 3 8 -5 4 -6 -4 -9 -11 -6 -16 2 -4 -1 -25 -8 -46 -12 -33
-14 -35 -19 -16 -4 12 -2 20 2 17 10 -6 8 61 -3 71 -3 4 -4 19 -2 33 4 23 4
22 -6 -4 -7 -16 -16 -35 -21 -42 -5 -7 -6 -18 -2 -24 4 -8 3 -9 -4 -5 -7 4
-12 5 -12 2 0 -2 -3 -11 -6 -20 -4 -11 0 -14 15 -11 12 2 19 0 16 -5 -3 -5
-14 -7 -24 -5 -13 2 -28 -11 -50 -45 -17 -26 -31 -53 -31 -59 0 -6 -4 -11 -10
-11 -14 0 -42 -59 -34 -72 5 -7 3 -8 -5 -4 -8 5 -14 0 -18 -13 -3 -12 -9 -21
-14 -21 -4 0 0 20 11 45 11 25 17 45 14 45 -5 0 5 13 34 45 6 7 12 21 12 30 0
11 5 15 15 11 8 -3 15 -1 15 4 0 6 -7 10 -15 10 -8 0 -15 4 -15 9 0 5 11 8 24
7 16 -2 23 1 19 10 -2 7 0 22 6 33 7 13 8 22 1 26 -5 3 -10 11 -10 16 0 6 5 7
12 3 8 -5 9 -2 5 9 -3 10 -2 17 3 17 6 0 10 9 10 20 0 11 5 19 11 18 6 -2 13
10 14 25 6 45 345 707 363 707 1 0 34 -16 72 -35z m-8200 5 c0 -5 -2 -10 -4
-10 -3 0 -8 5 -11 10 -3 6 -1 10 4 10 6 0 11 -4 11 -10z m8307 -132 c-3 -7 -5
-2 -5 12 0 14 2 19 5 13 2 -7 2 -19 0 -25z m-8172 -38 c3 -5 -1 -10 -9 -10 -9
0 -16 5 -16 10 0 6 4 10 9 10 6 0 13 -4 16 -10z m30 -51 c2 -12 -4 -15 -22
-13 -14 1 -28 6 -31 10 -4 4 1 4 12 0 14 -5 17 -3 12 10 -4 11 -1 14 11 12 9
-2 17 -10 18 -19z m120 -109 c-4 -11 -2 -20 4 -20 6 0 11 -4 11 -10 0 -5 -4
-10 -9 -10 -12 0 -24 37 -16 50 11 17 17 11 10 -10z m672 -25 c19 -39 9 -105
-16 -113 -8 -3 -11 0 -7 7 5 7 1 8 -10 4 -11 -4 -13 -8 -6 -11 7 -2 10 -8 6
-13 -10 -16 -39 -9 -67 16 -21 20 -27 35 -27 65 0 51 27 80 75 80 30 0 38 -5
52 -35z m-552 14 c-7 -11 -35 -12 -35 -1 0 4 9 8 20 9 11 1 18 -2 15 -8z m-37
-18 c18 -11 12 -43 -8 -48 -13 -4 -13 -3 0 6 13 9 13 12 1 23 -11 10 -14 10
-18 0 -3 -6 -9 -9 -14 -6 -6 3 -5 11 2 20 13 16 19 17 37 5z m55 -5 c4 -10 1
-13 -8 -9 -8 3 -12 9 -9 14 7 12 11 11 17 -5z m-23 -56 c0 -5 -2 -10 -4 -10
-3 0 -8 5 -11 10 -3 6 -1 10 4 10 6 0 11 -4 11 -10z m7610 -274 c0 -6 -8 -2
-16 9 -15 20 -15 20 -30 1 -8 -11 -14 -26 -14 -35 0 -8 -3 -11 -7 -8 -3 4 2
25 12 47 l18 40 18 -22 c11 -11 19 -26 19 -32z m20 24 c0 -5 -4 -10 -10 -10
-5 0 -10 5 -10 10 0 6 5 10 10 10 6 0 10 -4 10 -10z m-30 -51 c0 -4 -9 -7 -20
-6 -11 1 -20 2 -20 3 0 1 3 10 6 18 5 13 9 14 20 5 8 -6 14 -15 14 -20z m-98
-51 c-9 -9 -12 -7 -12 12 0 19 3 21 12 12 9 -9 9 -15 0 -24z m63 1 c-6 -17 -9
-19 -16 -8 -8 12 -10 12 -18 -1 -6 -8 -13 -11 -17 -8 -3 4 1 15 11 24 14 15
18 15 26 3 7 -11 9 -10 9 5 0 11 3 17 6 13 3 -3 3 -15 -1 -28z m-261 -44 c-9
-14 -18 -25 -20 -25 -2 0 2 11 8 25 6 14 15 25 20 25 5 0 1 -11 -8 -25z m201
15 c3 -5 1 -10 -4 -10 -6 0 -11 5 -11 10 0 6 2 10 4 10 3 0 8 -4 11 -10z m5
-35 c-7 -9 -15 -13 -19 -10 -3 3 1 10 9 15 21 14 24 12 10 -5z m-7006 -30 l17
-30 -20 24 c-12 13 -21 28 -21 34 0 12 0 11 24 -28z m6896 -5 c6 -11 8 -20 6
-20 -3 0 -10 9 -16 20 -6 11 -8 20 -6 20 3 0 10 -9 16 -20z m-60 -30 c0 -5 -5
-10 -11 -10 -5 0 -7 5 -4 10 3 6 8 10 11 10 2 0 4 -4 4 -10z m386 -52 c4 -6 3
-8 -3 -5 -5 3 -10 0 -10 -8 0 -10 5 -11 19 -4 10 6 16 14 13 20 -4 5 9 9 29 9
20 0 36 -2 36 -5 0 -15 -279 -134 -313 -135 -25 0 11 19 61 34 74 20 101 39
85 58 -10 11 -8 14 10 15 12 1 23 7 25 13 2 5 8 8 13 4 5 -3 9 0 9 5 0 15 17
14 26 -1z m-6141 -28 c39 -6 205 -33 370 -61 165 -28 316 -53 335 -55 19 -3
42 -8 50 -11 8 -4 18 -5 23 -5 14 3 46 -36 34 -42 -7 -2 -1 -5 12 -5 13 -1 22
-4 18 -7 -6 -7 46 -64 58 -64 5 0 15 -7 24 -16 43 -41 174 -133 184 -127 5 3
7 1 4 -4 -4 -6 5 -14 19 -17 27 -7 164 -104 164 -116 0 -4 14 -7 31 -8 46 -1
44 -7 -5 -19 -37 -8 -43 -7 -39 4 7 18 -46 10 -127 -19 -30 -11 -68 -23 -85
-27 -27 -6 -28 -8 -10 -15 11 -4 31 -10 45 -12 46 -8 132 -57 140 -80 11 -27
10 -84 -1 -84 -5 0 -6 -6 -3 -14 3 -8 -4 -21 -18 -30 -53 -34 -476 -135 -488
-116 -4 6 -17 6 -35 1 -29 -9 -29 -9 -5 -11 l25 -2 -25 -8 c-14 -4 -34 -8 -45
-8 -16 0 -17 1 -2 5 9 2 17 9 17 15 0 6 -8 7 -17 3 -10 -3 -40 -11 -66 -16
-27 -5 -52 -11 -56 -13 -8 -5 -78 -14 -163 -20 -32 -3 -61 -7 -65 -9 -14 -8
-55 12 -48 23 4 7 -3 9 -22 5 -27 -6 -27 -6 -9 9 15 12 17 19 9 27 -8 8 -17 2
-34 -20 -18 -25 -30 -31 -58 -31 -123 0 -157 3 -175 13 -12 6 -28 10 -36 9
-12 -2 -12 -1 -1 6 15 10 7 52 -10 52 -6 0 -7 9 -4 20 11 33 -14 23 -29 -13
-14 -30 -14 -31 -15 -7 -1 18 -4 21 -10 11 -7 -10 -11 -5 -16 18 -3 17 -11 33
-16 36 -5 4 -6 -1 -2 -10 3 -10 0 -21 -7 -25 -7 -4 -9 -13 -5 -20 6 -9 10 -9
17 1 8 11 8 11 4 -1 -3 -8 -9 -23 -12 -32 -4 -10 -14 -18 -23 -18 -9 0 -12 3
-6 8 16 11 15 44 -1 38 -9 -3 -14 1 -14 11 0 19 18 79 31 105 5 10 6 18 2 18
-12 0 -53 -67 -53 -85 0 -8 -4 -15 -10 -15 -5 0 -6 7 -3 17 4 11 3 14 -5 9
-22 -13 -13 25 19 80 38 66 93 115 184 160 62 31 76 34 120 29 36 -4 46 -3 35
4 -11 8 -5 9 23 4 29 -4 37 -3 35 8 -4 16 106 23 135 8 9 -5 17 -6 17 -2 0 4
-20 16 -45 26 -25 11 -45 24 -45 30 0 6 -3 8 -6 4 -13 -12 -80 32 -117 77 -21
25 -37 48 -37 51 0 3 -13 17 -30 32 -18 15 -29 32 -26 40 3 8 -1 25 -10 39 -9
13 -12 24 -6 24 17 0 24 33 8 42 -9 5 -13 21 -11 44 2 33 0 35 -21 31 -13 -2
-21 0 -18 4 3 5 13 9 23 9 9 0 23 6 30 13 10 10 17 6 37 -18 16 -20 22 -23 17
-10 -14 41 -28 60 -43 60 -19 0 -26 42 -8 48 7 2 3 2 -9 0 -13 -2 -31 1 -40 6
-10 5 -29 14 -43 20 l-25 12 25 -6 c14 -3 57 -10 95 -15z m-161 -2 c27 -29 89
-141 89 -164 0 -13 3 -24 8 -24 5 0 9 -5 9 -12 0 -18 -59 42 -85 87 -22 37
-49 125 -38 125 2 0 10 -6 17 -12z m56 -8 c0 -5 -5 -10 -11 -10 -5 0 -7 5 -4
10 3 6 8 10 11 10 2 0 4 -4 4 -10z m6093 -13 c16 10 67 12 67 3 0 -4 -31 -18
-70 -30 -38 -12 -77 -28 -87 -36 -25 -19 -47 -18 -39 2 5 12 -3 10 -32 -7 -29
-18 -34 -19 -23 -5 20 24 89 58 126 61 16 2 31 9 34 16 3 11 5 11 9 1 2 -6 9
-9 15 -5z m-6027 -33 c-9 -8 -21 -12 -28 -8 -8 5 -6 10 8 15 31 12 37 10 20
-7z m16 -36 c-7 -7 -12 -8 -12 -2 0 14 12 26 19 19 2 -3 -1 -11 -7 -17z m5638
-13 c0 -8 -7 -15 -15 -15 -9 0 -12 6 -9 15 4 8 10 15 15 15 5 0 9 -7 9 -15z
m-4750 -44 c0 -4 -11 -6 -25 -3 -14 2 -25 6 -25 8 0 2 11 4 25 4 14 0 25 -4
25 -9z m-894 -41 c0 -22 -3 -35 -7 -28 -4 7 -6 15 -3 19 2 4 0 11 -6 14 -8 5
-7 11 1 21 15 19 15 20 15 -26z m5596 18 c-7 -7 -12 -8 -12 -2 0 14 12 26 19
19 2 -3 -1 -11 -7 -17z m38 -278 c-10 -7 -11 -10 -2 -10 6 0 12 -4 12 -10 0
-13 -27 -2 -33 14 -3 7 4 13 16 14 17 1 19 -1 7 -8z m-33 -16 c-3 -3 -12 -4
-19 -1 -8 3 -5 6 6 6 11 1 17 -2 13 -5z m-117 -14 c0 -5 -2 -10 -4 -10 -3 0
-8 5 -11 10 -3 6 -1 10 4 10 6 0 11 -4 11 -10z m-65 -20 c3 -6 -1 -7 -9 -4
-18 7 -21 14 -7 14 6 0 13 -4 16 -10z m115 0 c13 -9 13 -10 0 -10 -8 0 -22 5
-30 10 -13 9 -13 10 0 10 8 0 22 -5 30 -10z m178 -23 c-16 -6 -28 -14 -28 -19
0 -4 -10 -8 -22 -8 -18 1 -14 5 17 20 22 11 45 19 50 19 6 -1 -2 -6 -17 -12z
m882 3 c0 -5 -2 -10 -4 -10 -3 0 -8 5 -11 10 -3 6 -1 10 4 10 6 0 11 -4 11
-10z m-1650 -20 c13 -11 28 -20 33 -20 6 0 8 -3 5 -6 -6 -6 -88 33 -88 41 0
12 29 3 50 -15z m684 -19 c-2 -3 -12 3 -22 13 -16 17 -16 18 5 5 12 -7 20 -15
17 -18z m964 -36 c-3 -3 -9 2 -12 12 -6 14 -5 15 5 6 7 -7 10 -15 7 -18z
m-1038 11 c0 -2 -7 -7 -16 -10 -8 -3 -12 -2 -9 4 6 10 25 14 25 6z m-497 -31
c20 -14 37 -28 37 -31 0 -6 -67 32 -84 48 -22 19 12 7 47 -17z m537 -6 c0 -6
-4 -7 -10 -4 -5 3 -10 11 -10 16 0 6 5 7 10 4 6 -3 10 -11 10 -16z m-435 -67
c-3 -3 -11 0 -18 7 -9 10 -8 11 6 5 10 -3 15 -9 12 -12z m1412 12 c-3 -3 -12
-4 -19 -1 -8 3 -5 6 6 6 11 1 17 -2 13 -5z"/>
<path d="M4326 9123 c-6 -14 -5 -15 5 -6 7 7 10 15 7 18 -3 3 -9 -2 -12 -12z"/>
<path d="M4396 9132 c-2 -4 2 -16 10 -27 8 -10 14 -14 14 -8 0 7 -5 15 -10 18
-6 4 -8 11 -5 16 4 5 4 9 1 9 -3 0 -7 -3 -10 -8z"/>
<path d="M4370 9060 c0 -5 5 -10 10 -10 6 0 10 5 10 10 0 6 -4 10 -10 10 -5 0
-10 -4 -10 -10z"/>
<path d="M4407 9036 c-3 -8 -2 -18 3 -21 13 -8 20 9 11 24 -6 10 -10 9 -14 -3z"/>
<path d="M4480 8939 c0 -5 5 -7 10 -4 6 3 10 8 10 11 0 2 -4 4 -10 4 -5 0 -10
-5 -10 -11z"/>
<path d="M4378 8923 c7 -3 16 -2 19 1 4 3 -2 6 -13 5 -11 0 -14 -3 -6 -6z"/>
<path d="M4450 8919 c0 -5 5 -7 10 -4 6 3 10 8 10 11 0 2 -4 4 -10 4 -5 0 -10
-5 -10 -11z"/>
<path d="M4368 8893 c6 -2 18 -2 25 0 6 3 1 5 -13 5 -14 0 -19 -2 -12 -5z"/>
<path d="M4326 8848 c3 -4 11 -5 19 -1 21 7 19 12 -4 10 -11 0 -18 -5 -15 -9z"/>
<path d="M4320 8825 c0 -27 16 -33 39 -14 16 13 19 19 8 19 -8 0 -18 -6 -20
-12 -4 -10 -8 -9 -16 2 -6 8 -11 11 -11 5z"/>
<path d="M3910 8710 c25 -22 49 -40 54 -40 5 0 -9 14 -32 32 -23 18 -42 36
-42 40 0 4 -6 8 -12 8 -7 -1 7 -19 32 -40z"/>
<path d="M4076 8575 c-9 -26 -7 -32 5 -12 6 10 9 21 6 23 -2 3 -7 -2 -11 -11z"/>
<path d="M6240 9553 c-58 -21 -160 -66 -157 -69 3 -4 178 64 186 72 6 5 -10 4
-29 -3z"/>
<path d="M6008 9450 c-31 -16 -60 -35 -64 -41 -7 -12 103 45 121 62 14 14 5
10 -57 -21z"/>
<path d="M5919 9443 c-13 -15 -12 -15 9 -4 23 12 28 21 13 21 -5 0 -15 -7 -22
-17z"/>
<path d="M7126 9441 c-4 -5 3 -7 14 -4 23 6 26 13 6 13 -8 0 -17 -4 -20 -9z"/>
<path d="M5445 9430 c-3 -6 1 -7 9 -4 18 7 21 14 7 14 -6 0 -13 -4 -16 -10z"/>
<path d="M5863 9408 c-18 -11 -33 -24 -33 -29 0 -6 5 -5 13 1 6 5 23 19 37 30
32 25 24 24 -17 -2z"/>
<path d="M5405 9410 c-3 -6 1 -7 9 -4 18 7 21 14 7 14 -6 0 -13 -4 -16 -10z"/>
<path d="M5273 9353 c-7 -3 -13 -11 -13 -18 0 -7 -6 -16 -12 -18 -7 -3 -8 -6
-3 -6 16 -1 59 36 49 41 -5 3 -15 3 -21 1z"/>
<path d="M4895 9028 l-50 -53 53 50 c48 46 57 55 49 55 -1 0 -25 -24 -52 -52z"/>
<path d="M8210 8430 c0 -5 -6 -10 -14 -10 -7 0 -35 -22 -63 -50 -35 -35 -63
-53 -96 -62 -26 -7 -47 -16 -47 -20 0 -12 16 -10 55 6 18 8 36 12 39 8 3 -3 6
0 6 6 0 7 4 12 9 12 5 0 5 -15 1 -35 -6 -27 -5 -35 6 -35 15 0 40 -39 35 -55
-1 -5 1 -7 5 -3 4 4 14 2 22 -5 13 -10 14 -9 7 3 -4 8 -17 25 -27 37 -16 17
-18 25 -9 40 9 15 10 16 11 2 0 -26 28 -31 43 -8 8 11 20 19 27 17 7 -2 14 3
16 10 1 7 0 8 -3 2 -3 -6 -11 1 -19 15 -18 36 -18 40 4 24 14 -11 13 -10 -2 9
-11 12 -23 22 -27 22 -16 0 -48 -43 -54 -72 -8 -35 -18 -29 -21 11 -2 30 38
80 67 85 20 3 59 38 53 48 -7 11 -24 10 -24 -2z"/>
<path d="M7940 8250 c0 -6 7 -10 15 -10 8 0 15 2 15 4 0 2 -7 6 -15 10 -8 3
-15 1 -15 -4z"/>
<path d="M8003 8227 c15 -6 27 -14 27 -19 0 -4 7 -8 15 -8 8 0 15 -4 15 -10 0
-5 5 -10 10 -10 6 0 10 4 10 8 0 9 -82 53 -96 51 -5 -1 3 -6 19 -12z"/>
<path d="M7648 8213 c6 -2 18 -2 25 0 6 3 1 5 -13 5 -14 0 -19 -2 -12 -5z"/>
<path d="M7608 8203 c7 -3 16 -2 19 1 4 3 -2 6 -13 5 -11 0 -14 -3 -6 -6z"/>
<path d="M8164 8159 c-4 -7 -3 -9 4 -5 5 3 13 0 15 -6 4 -9 6 -10 6 -1 1 17
-16 25 -25 12z"/>
<path d="M7329 8133 l-24 -28 28 24 c15 14 27 26 27 28 0 8 -8 1 -31 -24z"/>
<path d="M8150 8131 c0 -5 7 -14 15 -21 12 -10 15 -10 15 3 0 8 -7 17 -15 21
-8 3 -15 2 -15 -3z"/>
<path d="M7349 8043 c-29 -35 -41 -53 -36 -53 2 0 17 16 31 35 28 36 31 49 5
18z"/>
<path d="M7180 7990 c-6 -11 -8 -20 -6 -20 3 0 10 9 16 20 6 11 8 20 6 20 -3
0 -10 -9 -16 -20z"/>
<path d="M7276 7925 c-3 -9 -6 -22 -5 -28 0 -7 5 -1 10 12 5 13 8 26 5 28 -2
2 -6 -3 -10 -12z"/>
<path d="M7714 7905 c-97 -29 -176 -93 -189 -152 -3 -17 -1 -67 5 -110 6 -44
11 -127 11 -184 1 -118 21 -240 45 -276 17 -26 70 -53 105 -53 23 0 63 37 66
61 5 50 36 166 53 199 12 23 46 59 84 88 73 55 104 89 134 147 l21 40 1 -33
c0 -20 4 -31 10 -27 29 18 -8 144 -61 208 -57 69 -203 116 -285 92z m174 -41
c28 -13 52 -28 52 -35 0 -7 3 -10 6 -6 3 3 15 -2 25 -11 25 -21 63 -81 56 -88
-3 -3 -13 9 -23 26 -10 16 -24 28 -30 26 -6 -2 -11 3 -10 12 1 11 -6 16 -17
16 -10 -1 -16 0 -13 3 17 18 -73 60 -144 69 -27 3 -31 2 -15 -5 19 -9 19 -10
-3 -10 -12 -1 -34 -8 -47 -17 -14 -9 -35 -14 -47 -11 -24 7 -58 -17 -58 -40 0
-7 -4 -13 -10 -13 -11 0 -5 -133 8 -197 5 -23 7 -45 4 -48 -8 -8 -22 -6 -21 3
5 31 -3 62 -16 62 -8 0 -15 9 -15 19 0 11 -5 21 -10 23 -6 2 -12 31 -13 64 -1
72 14 102 72 138 92 59 168 64 269 20z m-221 -61 c3 -7 -4 -9 -16 -6 -12 3
-18 9 -15 15 7 11 26 6 31 -9z m53 3 c0 -3 -4 -8 -10 -11 -5 -3 -10 -1 -10 4
0 6 5 11 10 11 6 0 10 -2 10 -4z m-75 -35 c-3 -6 -11 -11 -17 -11 -6 0 -6 6 2
15 14 17 26 13 15 -4z m45 10 c0 -5 -7 -12 -16 -15 -14 -5 -15 -4 -4 9 14 17
20 19 20 6z m30 -61 c0 -5 -2 -10 -4 -10 -3 0 -8 5 -11 10 -3 6 -1 10 4 10 6
0 11 -4 11 -10z m110 -12 c0 -13 -11 -33 -24 -46 -20 -19 -25 -20 -30 -6 -11
27 -7 34 20 34 21 0 25 4 21 20 -3 11 -1 20 4 20 5 0 9 -10 9 -22z m-125 -16
c-3 -3 -11 0 -18 7 -9 10 -8 11 6 5 10 -3 15 -9 12 -12z"/>
<path d="M8032 7570 c-7 -11 -9 -20 -4 -20 4 0 13 9 20 20 7 11 9 20 4 20 -4
0 -13 -9 -20 -20z"/>
<path d="M7994 7522 c-10 -10 -35 -27 -54 -39 -19 -12 -53 -41 -75 -64 l-40
-43 38 32 c20 17 54 41 75 53 20 12 47 35 60 51 27 32 25 36 -4 10z"/>
<path d="M8180 7490 c0 -5 5 -10 11 -10 5 0 7 5 4 10 -3 6 -8 10 -11 10 -2 0
-4 -4 -4 -10z"/>
<path d="M8225 7480 c-3 -5 -1 -10 4 -10 6 0 11 5 11 10 0 6 -2 10 -4 10 -3 0
-8 -4 -11 -10z"/>
<path d="M7901 7387 c-13 -21 -12 -21 5 -5 10 10 16 20 13 22 -3 3 -11 -5 -18
-17z"/>
<path d="M8175 7360 c-3 -5 -1 -10 4 -10 6 0 11 5 11 10 0 6 -2 10 -4 10 -3 0
-8 -4 -11 -10z"/>
<path d="M8236 7358 c3 -5 10 -6 15 -3 13 9 11 12 -6 12 -8 0 -12 -4 -9 -9z"/>
<path d="M8183 7275 c4 -8 2 -17 -3 -20 -6 -4 -10 -11 -10 -18 0 -18 20 7 25
31 2 12 -1 22 -7 22 -5 0 -8 -7 -5 -15z"/>
<path d="M8210 7216 c0 -2 8 -10 18 -17 15 -13 16 -12 3 4 -13 16 -21 21 -21
13z"/>
<path d="M8090 7199 c0 -5 5 -7 10 -4 6 3 10 8 10 11 0 2 -4 4 -10 4 -5 0 -10
-5 -10 -11z"/>
<path d="M7810 7070 c0 -5 5 -10 11 -10 5 0 7 5 4 10 -3 6 -8 10 -11 10 -2 0
-4 -4 -4 -10z"/>
<path d="M7228 8942 c-16 -9 -28 -20 -28 -25 0 -4 14 2 30 15 26 19 36 29 28
28 -2 0 -15 -8 -30 -18z"/>
<path d="M7169 8893 c-13 -16 -12 -17 4 -4 9 7 17 15 17 17 0 8 -8 3 -21 -13z"/>
<path d="M6630 8052 c0 -8 80 -55 85 -50 2 2 -17 15 -41 30 -24 15 -44 24 -44
20z"/>
<path d="M6737 7989 c7 -7 15 -10 18 -7 3 3 -2 9 -12 12 -14 6 -15 5 -6 -5z"/>
<path d="M7990 8670 c0 -5 5 -10 11 -10 5 0 7 5 4 10 -3 6 -8 10 -11 10 -2 0
-4 -4 -4 -10z"/>
<path d="M8080 8428 c0 -4 4 -8 9 -8 6 0 12 4 15 8 3 5 -1 9 -9 9 -8 0 -15 -4
-15 -9z"/>
<path d="M4358 8233 c7 -3 16 -2 19 1 4 3 -2 6 -13 5 -11 0 -14 -3 -6 -6z"/>
<path d="M4498 8213 c12 -2 30 -2 40 0 9 3 -1 5 -23 4 -22 0 -30 -2 -17 -4z"/>
<path d="M8891 7914 c0 -11 3 -14 6 -6 3 7 2 16 -1 19 -3 4 -6 -2 -5 -13z"/>
<path d="M4190 8485 c-19 -23 -8 -26 19 -4 16 13 18 19 8 19 -8 0 -20 -7 -27
-15z"/>
<path d="M4123 8480 c-13 -5 -23 -12 -23 -14 0 -3 7 -3 15 0 8 4 15 1 15 -6 0
-6 5 -8 11 -4 6 3 15 0 20 -7 6 -10 9 -6 9 15 0 25 -2 27 -17 15 -11 -10 -14
-10 -9 -1 8 14 9 14 -21 2z"/>
<path d="M4077 8400 c10 -11 19 -20 21 -20 1 0 -2 9 -8 20 -6 11 -15 20 -20
20 -6 0 -2 -9 7 -20z"/>
<path d="M4130 8379 c0 -5 5 -7 10 -4 6 3 10 8 10 11 0 2 -4 4 -10 4 -5 0 -10
-5 -10 -11z"/>
<path d="M4039 8373 c-1 -5 0 -19 1 -33 2 -20 0 -22 -13 -12 -13 11 -16 10
-22 -7 -3 -12 -11 -21 -16 -21 -6 0 -8 -4 -4 -9 3 -5 -3 -12 -12 -14 -10 -3
-1 -5 21 -6 34 -1 38 1 33 19 -3 12 0 20 7 20 19 0 46 34 45 56 0 18 -1 18 -9
-1 -7 -17 -9 -17 -9 -2 -1 16 -20 25 -22 10z"/>
<path d="M4101 8351 c-9 -6 -10 -11 -2 -15 12 -8 -13 -40 -39 -49 -8 -2 0 -5
18 -4 24 0 32 4 30 16 -2 11 3 15 17 13 19 -2 19 -2 1 12 -10 8 -15 19 -11 25
7 13 4 14 -14 2z"/>
<path d="M4145 8350 c-3 -5 -1 -10 4 -10 6 0 11 5 11 10 0 6 -2 10 -4 10 -3 0
-8 -4 -11 -10z"/>
<path d="M6053 7988 c-22 -28 10 -86 41 -75 26 10 41 53 26 72 -15 18 -54 20
-67 3z"/>
<path d="M3905 7770 c-3 -6 1 -7 9 -4 18 7 21 14 7 14 -6 0 -13 -4 -16 -10z"/>
<path d="M4094 7705 c-53 -26 -102 -70 -91 -81 22 -23 221 -36 292 -20 11 2
24 5 28 5 5 1 5 6 2 11 -3 6 -1 10 6 10 8 0 8 4 -1 15 -11 13 -10 14 6 9 37
-14 -17 37 -61 57 -57 26 -121 24 -181 -6z m191 -25 c3 -6 -1 -7 -9 -4 -18 7
-21 14 -7 14 6 0 13 -4 16 -10z"/>
<path d="M4031 6998 c-26 -7 -31 -12 -20 -19 10 -6 10 -9 2 -9 -7 0 -16 -1
-19 -2 -15 -6 -114 -107 -142 -144 -63 -83 -131 -256 -131 -334 0 -24 0 -24
14 -6 14 18 15 15 16 -40 0 -32 3 -53 6 -46 6 15 30 16 35 1 2 -6 19 27 38 73
52 129 115 251 144 277 14 14 26 19 26 13 0 -19 -4 -27 -12 -24 -5 1 -7 -1 -7
-5 1 -5 0 -12 -1 -18 -1 -5 -3 -14 -4 -20 -1 -5 -12 -32 -25 -60 -34 -74 -68
-201 -82 -310 -15 -122 -7 -331 16 -405 15 -51 73 -155 81 -147 2 2 -5 27 -16
55 -27 71 -26 81 16 98 36 15 52 15 148 -6 57 -12 150 -61 154 -81 1 -8 -13
-39 -33 -69 l-35 -55 43 47 c79 84 144 328 153 573 2 77 12 182 21 233 15 90
15 94 -6 157 -41 126 -127 233 -216 271 -39 16 -113 17 -164 2z m9 -212 c0 -2
-8 -10 -17 -17 -16 -13 -17 -12 -4 4 13 16 21 21 21 13z m72 -67 c24 -13 48
-67 48 -109 0 -40 -34 -105 -65 -126 -86 -56 -148 92 -85 204 19 34 29 42 52
42 16 0 38 -5 50 -11z m-127 -537 c-3 -3 -11 0 -18 7 -9 10 -8 11 6 5 10 -3
15 -9 12 -12z m15 -25 c0 -4 5 -5 10 -2 20 13 9 -7 -21 -37 -25 -26 -33 -29
-41 -17 -8 11 -9 11 -4 -3 5 -17 -7 -31 -31 -34 -17 -3 -25 24 -13 47 6 10 8
19 5 19 -3 0 -1 8 4 18 6 12 21 17 50 17 23 0 41 -3 41 -8z m324 -93 c3 -8 2
-12 -4 -9 -6 3 -10 10 -10 16 0 14 7 11 14 -7z"/>
<path d="M3926 6147 c3 -10 9 -15 12 -12 3 3 0 11 -7 18 -10 9 -11 8 -5 -6z"/>
<path d="M3963 6134 c-7 -7 -9 -15 -4 -18 5 -3 14 1 20 8 15 18 0 28 -16 10z"/>
<path d="M6306 6599 c-59 -14 -57 -21 4 -15 47 5 50 4 19 -4 -56 -14 -143 -55
-196 -91 -90 -62 -163 -140 -100 -108 21 11 20 10 -4 -17 -14 -16 -36 -45 -49
-64 l-23 -35 30 28 30 28 -13 -53 c-8 -29 -13 -56 -12 -59 2 -4 28 13 58 37
109 87 142 106 179 100 52 -8 83 -45 88 -103 5 -59 -19 -102 -70 -126 -68 -33
-137 -11 -165 52 l-18 39 -27 -76 c-53 -152 -62 -213 -62 -412 0 -181 1 -186
28 -245 30 -63 50 -91 81 -107 18 -10 17 -8 -2 20 -53 73 -52 126 0 138 42 9
168 11 168 3 0 -17 235 -97 300 -102 57 -5 28 -63 -60 -118 -65 -41 -25 -36
46 6 162 96 268 291 297 548 l13 112 8 -65 c4 -36 12 -95 18 -133 l11 -67 17
38 c10 21 29 51 44 66 14 16 26 35 26 42 0 8 4 14 10 14 5 0 14 18 20 40 6 22
15 38 20 35 6 -4 10 -3 10 1 0 25 -24 142 -33 159 -9 19 -9 19 8 5 17 -14 18
-13 11 5 -4 11 -14 38 -21 60 -22 62 -66 137 -115 195 -25 29 -44 57 -42 62 1
4 -4 7 -10 6 -7 -2 -12 3 -10 10 1 6 -1 11 -5 10 -12 -3 -114 73 -109 81 3 4
-3 7 -12 8 -9 0 -46 13 -82 29 -54 23 -81 28 -165 30 -55 2 -118 -1 -139 -7z
m-111 -819 c-4 -6 -11 -8 -16 -5 -5 4 -9 2 -9 -3 0 -8 -17 -16 -43 -20 -4 -1
-17 -11 -27 -24 -11 -13 -19 -18 -20 -12 0 7 -7 15 -16 18 -12 5 -14 1 -9 -15
6 -18 3 -20 -22 -17 -22 2 -29 9 -31 29 -4 31 24 61 34 36 3 -9 15 -14 29 -13
18 2 22 -1 17 -13 -4 -13 -1 -12 16 3 12 11 22 15 22 11 0 -5 9 1 20 13 20 22
67 32 55 12z m519 -146 c34 -33 12 -114 -30 -114 -43 0 -58 69 -22 107 25 27
31 28 52 7z"/>
<path d="M4772 5173 c-13 -9 -45 -23 -70 -30 l-47 -13 52 3 52 4 15 -46 c9
-25 27 -98 41 -161 24 -109 44 -175 51 -167 2 1 -4 22 -12 47 -16 47 -31 228
-20 255 5 15 8 14 27 -6 16 -19 19 -20 15 -6 -3 10 -6 23 -6 28 0 5 -8 9 -17
9 -13 0 -14 3 -5 12 15 15 67 -6 56 -23 -4 -7 -1 -10 7 -7 8 3 36 -6 62 -19
26 -13 73 -27 104 -31 31 -4 58 -13 61 -20 2 -8 -3 -10 -15 -6 -17 5 -17 5 1
-6 14 -10 20 -10 27 1 10 17 21 7 13 -14 -3 -9 -13 -14 -22 -11 -9 3 -7 -1 6
-7 29 -16 36 -46 28 -122 -11 -102 -26 -164 -47 -190 -10 -14 -19 -28 -19 -32
0 -4 13 9 29 29 37 46 51 109 58 256 3 76 10 123 20 139 8 13 11 21 6 18 -6
-4 -36 -10 -68 -15 -99 -16 -212 23 -307 107 -25 23 -48 41 -50 40 -1 0 -13
-7 -26 -16z"/>
<path d="M4904 5025 c22 -17 40 -20 32 -6 -3 5 -16 11 -28 14 -22 6 -22 5 -4
-8z"/>
<path d="M5078 5003 c7 -3 16 -2 19 1 4 3 -2 6 -13 5 -11 0 -14 -3 -6 -6z"/>
<path d="M5025 4990 c3 -5 16 -10 28 -9 21 0 21 1 2 9 -28 12 -37 12 -30 0z"/>
<path d="M5085 4090 c3 -5 8 -10 11 -10 2 0 4 5 4 10 0 6 -5 10 -11 10 -5 0
-7 -4 -4 -10z"/>
<path d="M5114 4071 c4 -6 16 -16 28 -22 15 -8 18 -8 14 0 -4 6 -16 16 -28 22
-15 8 -18 8 -14 0z"/>
<path d="M9790 3490 c0 -5 5 -10 10 -10 6 0 10 5 10 10 0 6 -4 10 -10 10 -5 0
-10 -4 -10 -10z"/>
<path d="M840 3008 c0 -4 5 -18 11 -32 10 -20 9 -29 -2 -43 -12 -16 -12 -17 2
-6 18 14 29 8 29 -16 0 -14 -2 -14 -10 -1 -5 8 -10 11 -10 5 0 -16 14 -30 30
-30 8 0 14 -7 12 -15 -2 -8 0 -11 5 -7 4 5 8 19 8 32 1 14 -1 22 -4 19 -3 -2
-20 19 -38 48 -18 29 -33 49 -33 46z"/>
<path d="M516 2954 c-15 -14 -26 -27 -24 -29 2 -3 17 9 33 25 35 36 30 39 -9
4z"/>
<path d="M910 2940 c0 -5 5 -10 11 -10 5 0 7 5 4 10 -3 6 -8 10 -11 10 -2 0
-4 -4 -4 -10z"/>
<path d="M1004 2928 l-19 -23 23 19 c21 18 27 26 19 26 -2 0 -12 -10 -23 -22z"/>
<path d="M1030 2920 c0 -5 5 -10 10 -10 6 0 10 5 10 10 0 6 -4 10 -10 10 -5 0
-10 -4 -10 -10z"/>
<path d="M620 2720 c-9 -6 -10 -10 -3 -10 6 0 15 5 18 10 8 12 4 12 -15 0z"/>
<path d="M360 2708 c0 -9 5 -20 10 -23 13 -8 13 5 0 25 -8 13 -10 13 -10 -2z"/>
<path d="M2959 2843 c-70 -63 -112 -174 -130 -342 -21 -184 17 -281 110 -281
73 0 130 70 181 220 27 79 39 272 21 337 -29 107 -106 135 -182 66z"/>
<path d="M9516 2395 c-9 -26 -7 -32 5 -12 6 10 9 21 6 23 -2 3 -7 -2 -11 -11z"/>
<path d="M9440 2315 c-7 -9 -10 -18 -7 -21 3 -3 10 4 17 15 13 25 8 27 -10 6z"/>
<path d="M4944 2463 c-9 -53 -18 -113 -18 -132 l-1 -36 57 -9 c74 -12 99 -1
127 56 23 48 28 135 10 170 -14 26 -68 48 -118 48 l-39 0 -18 -97z"/>
<path d="M1160 2276 c0 -2 8 -10 18 -17 15 -13 16 -12 3 4 -13 16 -21 21 -21
13z"/>
<path d="M1238 2180 c6 -9 12 -21 12 -26 1 -15 39 -56 49 -52 5 1 -10 23 -32
48 -23 25 -36 38 -29 30z"/>
<path d="M1220 2132 c0 -5 9 -17 21 -28 21 -19 21 -19 8 9 -12 26 -29 37 -29
19z"/>
<path d="M1275 2080 c3 -5 8 -10 11 -10 2 0 4 5 4 10 0 6 -5 10 -11 10 -5 0
-7 -4 -4 -10z"/>
<path d="M7219 2131 c-38 -40 -53 -65 -72 -128 -79 -249 -51 -479 62 -506 94
-23 190 118 222 324 24 153 -10 312 -72 344 -54 28 -88 20 -140 -34z"/>
<path d="M9196 1574 c-9 -24 -2 -26 12 -4 7 11 8 20 3 20 -5 0 -12 -7 -15 -16z"/>
<path d="M9115 1560 c3 -5 8 -10 11 -10 2 0 4 5 4 10 0 6 -5 10 -11 10 -5 0
-7 -4 -4 -10z"/>
<path d="M9080 1540 c0 -5 5 -10 10 -10 6 0 10 5 10 10 0 6 -4 10 -10 10 -5 0
-10 -4 -10 -10z"/>
<path d="M9166 1525 c-3 -8 -1 -15 4 -15 6 0 10 7 10 15 0 8 -2 15 -4 15 -2 0
-6 -7 -10 -15z"/>
<path d="M9061 1464 c0 -11 3 -14 6 -6 3 7 2 16 -1 19 -3 4 -6 -2 -5 -13z"/>
<path d="M2045 1680 c-3 -5 -1 -10 4 -10 6 0 11 5 11 10 0 6 -2 10 -4 10 -3 0
-8 -4 -11 -10z"/>
<path d="M9238 1163 c-10 -2 -18 -9 -18 -14 0 -6 8 -5 20 1 11 6 20 13 20 15
0 3 -1 4 -2 4 -2 -1 -11 -3 -20 -6z"/>
<path d="M3197 1126 c-15 -12 -16 -18 -7 -35 15 -29 22 -26 14 5 -4 15 -3 25
2 22 5 -3 15 0 22 8 18 19 -6 19 -31 0z"/>
<path d="M3277 1123 c-3 -5 -1 -15 5 -23 8 -12 9 -12 4 3 -6 18 9 24 17 7 3
-6 4 -5 3 2 -3 15 -22 22 -29 11z"/>
<path d="M3237 1113 c-12 -11 -8 -23 7 -23 8 0 17 -6 19 -12 4 -8 6 -7 6 3 1
19 -23 42 -32 32z"/>
<path d="M3226 1072 c-3 -5 1 -15 9 -22 21 -17 27 -9 10 13 -7 10 -16 14 -19
9z"/>
<path d="M3146 1035 c4 -8 8 -15 10 -15 2 0 4 7 4 15 0 8 -4 15 -10 15 -5 0
-7 -7 -4 -15z"/>
<path d="M3211 1002 c-17 -31 -13 -40 5 -14 9 13 14 26 11 29 -3 2 -10 -4 -16
-15z"/>
<path d="M3156 995 c-11 -8 -16 -18 -11 -22 4 -5 10 -2 12 5 3 6 11 12 19 12
8 0 14 5 14 10 0 14 -11 12 -34 -5z"/>
<path d="M3560 1000 c0 -5 5 -10 11 -10 5 0 7 5 4 10 -3 6 -8 10 -11 10 -2 0
-4 -4 -4 -10z"/>
<path d="M3850 1001 c0 -5 5 -13 10 -16 6 -3 10 -2 10 4 0 5 -4 13 -10 16 -5
3 -10 2 -10 -4z"/>
<path d="M3920 969 c0 -5 5 -7 10 -4 6 3 10 8 10 11 0 2 -4 4 -10 4 -5 0 -10
-5 -10 -11z"/>
<path d="M3170 946 c0 -13 -3 -33 -6 -43 -6 -14 -4 -16 6 -6 16 15 24 73 10
73 -6 0 -10 -11 -10 -24z"/>
<path d="M3230 960 c0 -5 5 -10 10 -10 6 0 10 5 10 10 0 6 -4 10 -10 10 -5 0
-10 -4 -10 -10z"/>
<path d="M3160 840 c0 -5 7 -10 16 -10 8 0 12 5 9 10 -3 6 -10 10 -16 10 -5 0
-9 -4 -9 -10z"/>
<path d="M3247 789 c7 -7 15 -10 18 -7 3 3 -2 9 -12 12 -14 6 -15 5 -6 -5z"/>
<path d="M3308 793 c6 -2 18 -2 25 0 6 3 1 5 -13 5 -14 0 -19 -2 -12 -5z"/>
<path d="M3240 762 c0 -17 21 -25 31 -13 5 6 6 9 3 6 -4 -3 -13 0 -21 6 -9 8
-13 8 -13 1z"/>
<path d="M3511 589 c13 -8 97 -13 88 -5 -2 2 -26 6 -53 9 -30 3 -43 1 -35 -4z"/>
<path d="M3706 582 c-2 -4 7 -9 22 -10 21 -1 24 0 12 8 -18 12 -27 12 -34 2z"/>
<path d="M3808 573 c17 -2 47 -2 65 0 17 2 3 4 -33 4 -36 0 -50 -2 -32 -4z"/>
<path d="M3925 570 l-20 -9 20 0 c11 0 29 4 40 9 l20 9 -20 0 c-11 0 -29 -4
-40 -9z"/>
<path d="M2999 433 c-13 -16 -12 -17 4 -4 16 13 21 21 13 21 -2 0 -10 -8 -17
-17z"/>
<path d="M3011 284 c0 -11 3 -14 6 -6 3 7 2 16 -1 19 -3 4 -6 -2 -5 -13z"/>
<path d="M2935 279 c-11 -16 -1 -19 13 -3 7 8 8 14 3 14 -5 0 -13 -5 -16 -11z"/>
<path d="M3090 225 c0 -18 19 -40 26 -32 4 4 0 15 -9 24 -9 10 -17 13 -17 8z"/>
<path d="M2273 9440 c-56 -12 -95 -33 -126 -69 -29 -34 -67 -129 -67 -166 0
-50 -18 -72 -92 -112 -328 -179 -426 -231 -446 -237 -13 -5 -44 0 -74 10 -78
25 -118 22 -172 -16 -56 -38 -108 -106 -104 -135 3 -22 40 -26 110 -12 36 8
38 6 58 -32 31 -62 27 -87 -17 -102 -89 -29 -105 -65 -46 -105 57 -38 158 -42
225 -7 31 15 72 87 82 145 8 45 -3 38 339 216 l267 139 58 -19 c31 -11 80 -22
107 -25 46 -5 55 -2 112 37 60 40 106 88 133 140 16 30 15 80 -1 90 -6 4 -56
-12 -110 -36 -55 -24 -103 -44 -107 -44 -18 0 -100 172 -85 178 37 13 195 107
200 118 3 8 -3 24 -12 34 -16 17 -30 20 -104 19 -47 -1 -105 -5 -128 -9z m126
-25 c-204 -29 -269 -85 -287 -247 l-7 -60 -100 -52 c-56 -29 -117 -61 -135
-73 -19 -12 -62 -35 -95 -52 -33 -17 -67 -35 -75 -40 -8 -5 -37 -20 -65 -33
-27 -12 -56 -29 -64 -36 -7 -7 -20 -11 -27 -8 -8 3 -14 1 -14 -4 0 -6 -10 -6
-26 0 -39 15 -160 12 -202 -5 -20 -9 -48 -26 -61 -38 l-24 -22 16 24 c24 35
107 91 136 91 14 0 56 -9 92 -19 l66 -19 129 68 c107 56 287 153 415 223 22
12 27 23 31 74 3 32 16 82 28 110 43 101 106 132 265 131 l90 0 -86 -13z m196
-264 c-19 -18 -170 -91 -189 -91 -30 0 -12 12 87 56 95 43 118 51 102 35z"/>
<path d="M9660 8767 c0 -44 56 -140 108 -189 46 -43 80 -61 162 -89 68 -23 96
-39 68 -39 -9 0 -20 5 -23 10 -4 6 -16 8 -27 4 -15 -4 -18 -3 -13 7 6 9 2 11
-13 7 -12 -4 -22 -2 -22 4 0 6 -9 8 -20 5 -10 -3 -24 1 -31 9 -6 8 -15 11 -20
8 -5 -3 -9 1 -9 10 0 15 -11 15 -43 1 -12 -5 -16 -14 -12 -26 4 -11 2 -19 -5
-19 -6 0 -8 5 -5 10 3 6 1 10 -6 10 -7 0 -2 12 12 26 13 15 17 24 9 20 -8 -3
-23 -9 -33 -12 -13 -5 -17 -16 -15 -47 3 -35 0 -42 -17 -45 -18 -2 -19 -2 -2
8 14 9 15 15 5 33 -6 12 -11 23 -10 25 7 9 0 32 -8 27 -5 -3 -10 -2 -10 2 0
13 37 42 45 35 3 -4 3 1 -1 11 -6 17 -7 17 -21 0 -13 -17 -14 -16 -8 7 5 21 4
22 -5 7 -6 -9 -9 -21 -5 -26 3 -5 -4 -12 -15 -16 -20 -7 -28 -25 -10 -25 6 0
10 -8 10 -17 -1 -17 -1 -17 -14 0 -12 16 -16 16 -42 2 -16 -8 -37 -15 -46 -15
-29 0 -56 -33 -47 -58 8 -21 -15 -40 -26 -22 -4 6 -1 10 4 10 6 0 11 7 11 17
0 15 -2 15 -19 -1 -11 -10 -17 -25 -14 -34 3 -11 2 -13 -4 -5 -6 8 -22 3 -56
-20 -41 -27 -45 -33 -30 -39 15 -7 14 -8 -4 -4 -12 2 -28 -3 -37 -13 -17 -19
-15 -20 99 -62 82 -30 160 -85 224 -159 47 -54 57 -61 81 -57 15 3 32 1 38 -5
8 -8 14 -4 22 16 5 15 10 32 10 37 0 62 200 339 245 339 8 0 15 6 15 14 0 14
-8 17 -120 57 -91 31 -116 45 -166 91 -54 50 -83 95 -98 155 -15 58 -36 69
-36 20z m160 -277 c0 -4 -9 -6 -21 -3 -15 4 -17 8 -8 14 14 8 29 3 29 -11z
m-136 -14 c-3 -9 -13 -16 -22 -16 -13 0 -12 3 4 19 22 21 27 21 18 -3z m-49 4
c-3 -5 -14 -10 -23 -9 -14 0 -13 2 3 9 27 11 27 11 20 0z m-60 -10 c-11 -5
-14 -9 -7 -9 6 -1 12 -6 12 -12 0 -6 -9 -8 -21 -4 -15 5 -19 4 -15 -4 4 -6 2
-11 -3 -11 -6 0 -11 5 -11 10 0 19 24 39 45 39 l20 0 -20 -9z m20 -39 c-3 -12
-13 -21 -21 -21 -13 0 -13 2 0 16 9 8 16 20 16 26 0 6 3 9 6 5 3 -3 3 -15 -1
-26z m190 0 c-6 -5 -25 10 -25 20 0 5 6 4 14 -3 8 -7 12 -15 11 -17z m-117 0
c10 -6 9 -10 -7 -14 -21 -5 -36 5 -24 17 8 8 15 7 31 -3z m303 -14 c-10 -9
-11 -8 -5 6 3 10 9 15 12 12 3 -3 0 -11 -7 -18z m-357 -13 c3 -8 2 -12 -3 -9
-6 3 -14 -3 -20 -12 -6 -10 -11 -15 -11 -10 0 6 22 47 26 47 1 0 5 -7 8 -16z
m301 -24 c-3 -6 -3 -15 1 -21 5 -8 9 -8 14 1 4 7 10 8 12 4 3 -5 -3 -18 -14
-29 -15 -15 -18 -16 -13 -3 4 9 2 19 -4 23 -6 3 -11 21 -11 38 1 27 2 29 11
14 5 -9 7 -22 4 -27z m-218 -5 c-1 -19 -3 -32 -6 -29 -8 8 -9 64 -1 64 4 0 8
-16 7 -35z m163 17 c0 -12 -3 -12 -17 -1 -10 7 -20 14 -22 16 -2 1 6 1 18 0
11 -1 21 -8 21 -15z m-303 -19 c1 -22 -1 -24 -8 -10 -6 9 -7 22 -4 27 9 14 10
13 12 -17z m173 -14 c0 -5 -4 -9 -10 -9 -5 0 -10 7 -10 16 0 8 5 12 10 9 6 -3
10 -10 10 -16z m-138 -21 c-7 -7 -12 -8 -12 -2 0 14 12 26 19 19 2 -3 -1 -11
-7 -17z m-155 -24 c2 -13 1 -15 -4 -4 -3 8 -11 19 -17 23 -7 6 -6 7 4 4 8 -2
16 -12 17 -23z m175 -98 c7 5 8 2 4 -5 -6 -9 -13 -8 -27 5 -10 9 -19 22 -19
28 0 6 7 0 16 -12 8 -12 20 -19 26 -16z m196 -81 c-3 -3 -9 2 -12 12 -6 14 -5
15 5 6 7 -7 10 -15 7 -18z m-25 -10 c-3 -9 -8 -14 -10 -11 -3 3 -2 9 2 15 9
16 15 13 8 -4z m10 -48 c-7 -13 -10 -13 -23 1 -13 14 -12 15 3 9 10 -4 17 -2
17 5 0 6 3 9 6 5 3 -3 2 -12 -3 -20z"/>
<path d="M9587 8647 c-46 -94 -112 -179 -179 -233 -46 -36 -61 -65 -21 -39 65
42 127 103 167 165 41 62 94 185 84 195 -2 3 -25 -37 -51 -88z"/>
<path d="M9651 8688 c0 -9 -4 -25 -7 -35 -5 -17 -5 -17 6 0 6 10 9 25 7 35 -4
15 -5 15 -6 0z"/>
<path d="M9665 8640 c3 -5 8 -10 11 -10 2 0 4 5 4 10 0 6 -5 10 -11 10 -5 0
-7 -4 -4 -10z"/>
<path d="M9651 8604 c0 -11 3 -14 6 -6 3 7 2 16 -1 19 -3 4 -6 -2 -5 -13z"/>
<path d="M9616 8595 c-9 -26 -7 -32 5 -12 6 10 9 21 6 23 -2 3 -7 -2 -11 -11z"/>
<path d="M9720 8540 c0 -5 5 -10 10 -10 6 0 10 5 10 10 0 6 -4 10 -10 10 -5 0
-10 -4 -10 -10z"/>
<path d="M9581 8518 c0 -22 1 -22 9 -3 5 11 9 14 9 7 1 -7 6 -10 11 -7 17 10
11 25 -10 25 -14 0 -20 -6 -19 -22z"/>
<path d="M3008 8243 c6 -2 18 -2 25 0 6 3 1 5 -13 5 -14 0 -19 -2 -12 -5z"/>
<path d="M2856 8232 c-2 -4 13 -6 35 -4 21 2 39 6 39 8 0 7 -69 4 -74 -4z"/>
<path d="M2685 8207 c-55 -12 -93 -22 -85 -24 8 -1 67 8 130 21 63 13 102 24
85 24 -16 -1 -75 -10 -130 -21z"/>
<path d="M2491 8158 c-34 -10 -61 -21 -58 -24 2 -2 37 6 78 20 41 13 67 24 59
24 -8 0 -44 -9 -79 -20z"/>
<path d="M9888 7566 c-36 -35 -169 -113 -241 -140 -42 -17 -77 -36 -77 -43 0
-7 18 -22 40 -33 66 -34 108 -91 117 -160 6 -44 9 -47 23 -21 8 17 7 34 -6 76
-22 68 -65 121 -104 130 -34 7 -31 25 3 25 54 0 233 105 258 152 14 25 6 33
-13 14z"/>
<path d="M9912 7525 c-12 -25 -22 -56 -22 -68 0 -13 -6 -29 -12 -35 -10 -10
-10 -15 -1 -20 6 -4 14 -28 18 -55 4 -27 14 -51 24 -56 9 -5 12 -13 7 -18 -5
-4 -11 -2 -13 5 -9 24 -20 12 -17 -18 2 -19 -1 -30 -9 -30 -38 0 -157 -88
-157 -116 0 -12 11 -7 41 21 46 41 103 70 162 80 30 6 37 11 33 24 -3 9 -14
41 -25 71 -23 62 -26 125 -10 200 6 28 9 53 7 55 -2 3 -14 -16 -26 -40z m22
-277 c-3 -4 -9 -8 -15 -8 -5 0 -9 4 -9 8 0 5 7 9 15 9 8 0 12 -4 9 -9z"/>
<path d="M1687 7533 c-4 -7 2 -29 13 -50 12 -21 18 -29 14 -18 -3 11 -9 33
-13 50 -4 19 -10 25 -14 18z"/>
<path d="M1645 7417 c-12 -25 -35 -52 -58 -67 -21 -13 -34 -26 -28 -28 6 -2 9
-8 6 -12 -3 -5 -1 -11 4 -15 6 -3 8 3 6 15 -2 11 0 20 5 20 21 0 70 54 79 88
14 49 9 49 -14 -1z"/>
<path d="M9785 7420 c-3 -6 1 -7 9 -4 18 7 21 14 7 14 -6 0 -13 -4 -16 -10z"/>
<path d="M9820 7416 c0 -2 7 -6 15 -10 8 -3 15 -1 15 4 0 6 -7 10 -15 10 -8 0
-15 -2 -15 -4z"/>
<path d="M9715 7392 c-15 -11 -17 -33 -3 -31 36 4 45 -1 40 -26 -3 -16 0 -25
8 -25 7 0 10 6 7 13 -3 7 4 19 14 25 10 7 19 22 18 35 0 15 -2 17 -6 7 -8 -21
-22 -28 -45 -22 -11 3 -17 10 -14 18 6 15 -3 18 -19 6z"/>
<path d="M9758 7383 c7 -3 16 -2 19 1 4 3 -2 6 -13 5 -11 0 -14 -3 -6 -6z"/>
<path d="M9855 7350 c20 -22 20 -22 0 -19 -12 3 -21 -2 -23 -13 -2 -10 1 -18
7 -18 6 0 8 8 5 18 -5 14 -4 15 5 2 5 -8 8 -25 4 -37 -4 -17 -1 -23 12 -23 11
0 15 5 12 14 -3 8 -1 17 6 20 9 3 9 7 -1 14 -7 5 -10 16 -7 25 4 10 -1 20 -17
28 l-23 12 20 -23z"/>
<path d="M9805 7350 c-3 -5 -1 -10 4 -10 6 0 11 5 11 10 0 6 -2 10 -4 10 -3 0
-8 -4 -11 -10z"/>
<path d="M9726 7337 c3 -10 9 -15 12 -12 3 3 0 11 -7 18 -10 9 -11 8 -5 -6z"/>
<path d="M1804 7321 c3 -5 -4 -12 -17 -15 -27 -7 -66 -41 -89 -78 -29 -44 -21
-45 17 -1 19 22 55 50 80 62 43 20 53 41 19 41 -8 0 -13 -4 -10 -9z"/>
<path d="M9801 7297 c-1 -14 -6 -17 -22 -12 -15 5 -19 4 -15 -4 4 -6 15 -11
24 -11 13 0 14 -2 4 -8 -13 -9 -6 -42 9 -42 4 0 6 7 3 15 -4 10 0 15 12 15 12
0 15 3 8 8 -7 4 -14 18 -17 32 -2 15 -5 18 -6 7z"/>
<path d="M10146 4842 c0 -32 3 -62 6 -68 3 -5 2 -18 -3 -29 -7 -19 -8 -19 -8
3 -1 12 -6 22 -12 22 -6 0 -9 -7 -6 -15 4 -8 2 -17 -3 -20 -6 -4 -10 -1 -10 6
0 7 -3 9 -6 6 -4 -4 -1 -14 7 -23 12 -15 11 -16 -19 -10 -18 4 -32 4 -32 -2 0
-5 -12 -14 -27 -21 -22 -10 -24 -14 -12 -22 12 -8 12 -10 -1 -19 -8 -5 -19
-10 -25 -10 -5 0 -5 4 2 8 7 4 9 13 4 20 -5 9 -12 8 -27 -5 -10 -10 -25 -18
-31 -19 -7 -1 -27 -2 -45 -2 -39 -2 -27 -15 28 -30 51 -15 102 -68 143 -151
17 -33 36 -63 42 -67 7 -4 9 -3 6 2 -8 14 -17 97 -9 89 4 -3 7 -12 7 -18 0
-21 26 -87 34 -87 4 0 27 22 49 49 l42 50 0 111 c0 94 -3 117 -22 153 -12 23
-29 67 -38 97 -10 30 -21 55 -26 57 -5 2 -9 -23 -8 -55z m4 -132 c0 -5 -5 -10
-11 -10 -5 0 -7 5 -4 10 3 6 8 10 11 10 2 0 4 -4 4 -10z m45 -20 c3 -5 -1 -10
-9 -10 -9 0 -16 5 -16 10 0 6 4 10 9 10 6 0 13 -4 16 -10z m-140 -10 c-3 -5
-12 -10 -18 -10 -7 0 -6 4 3 10 19 12 23 12 15 0z m42 -31 c-3 -11 -1 -19 4
-19 5 0 9 5 9 10 0 6 7 10 15 10 12 0 10 -5 -5 -20 -18 -18 -22 -19 -35 -6
-17 17 -20 30 -5 21 6 -3 10 -1 10 4 0 6 -5 11 -11 11 -5 0 -7 5 -4 10 10 16
27 0 22 -21z m72 -3 c-3 -3 -11 5 -18 17 -13 21 -12 21 5 5 10 -10 16 -20 13
-22z m-115 5 c3 -5 -1 -11 -9 -14 -9 -4 -12 -1 -8 9 6 16 10 17 17 5z m36 -63
c0 -6 -6 -5 -15 2 -8 7 -15 14 -15 16 0 2 7 1 15 -2 8 -4 15 -11 15 -16z m66
-15 c-10 -10 -19 5 -10 18 6 11 8 11 12 0 2 -7 1 -15 -2 -18z m-96 7 c0 -5 -5
-10 -11 -10 -5 0 -7 5 -4 10 3 6 8 10 11 10 2 0 4 -4 4 -10z m75 -49 c3 -5 1
-12 -5 -16 -5 -3 -10 1 -10 9 0 18 6 21 15 7z m-35 -21 c0 -5 -5 -10 -11 -10
-5 0 -7 5 -4 10 3 6 8 10 11 10 2 0 4 -4 4 -10z m104 -26 c3 -8 2 -12 -4 -9
-6 3 -10 10 -10 16 0 14 7 11 14 -7z"/>
<path d="M10070 4821 c-54 -71 -102 -112 -177 -150 -23 -11 -45 -26 -49 -33
-6 -10 -4 -10 7 -2 8 6 32 17 54 24 69 22 144 70 180 116 31 41 53 99 42 110
-2 2 -28 -27 -57 -65z"/>
<path d="M1951 4723 c-1 -6 4 -15 10 -18 6 -4 8 -14 4 -23 -3 -9 -3 -13 1 -9
4 4 19 -3 33 -15 l25 -23 -24 31 c-14 17 -30 40 -37 50 -6 11 -12 14 -12 7z"/>
<path d="M2080 4604 c0 -8 5 -12 10 -9 6 3 10 10 10 16 0 5 -4 9 -10 9 -5 0
-10 -7 -10 -16z"/>
<path d="M1893 4583 c-19 -7 -16 -20 8 -26 15 -4 18 -2 10 7 -6 7 -8 16 -4 19
7 8 4 8 -14 0z"/>
<path d="M1421 4383 c-13 -44 -39 -101 -62 -134 -21 -32 -39 -63 -39 -69 0 -6
-4 -9 -9 -6 -5 3 -11 -1 -15 -9 -11 -29 22 -15 57 25 49 53 78 113 92 185 11
56 13 58 20 30 4 -16 14 -37 22 -47 10 -12 12 -21 4 -35 -5 -10 -12 -30 -16
-45 -5 -27 -35 -40 -35 -16 0 6 -6 3 -14 -8 -8 -10 -12 -21 -10 -24 3 -2 9 2
14 10 6 10 10 11 10 3 0 -7 7 -10 15 -7 11 4 13 2 9 -9 -3 -10 -15 -14 -32
-12 -34 3 -43 -2 -35 -21 4 -11 9 -12 19 -3 8 6 14 7 14 2 0 -14 -59 -55 -83
-58 -77 -10 -105 -35 -39 -35 21 0 63 -7 93 -16 45 -13 65 -27 121 -85 36 -38
68 -66 71 -62 3 4 8 33 12 63 10 78 34 126 94 193 56 60 61 87 17 87 -13 0
-53 9 -89 20 -54 17 -73 29 -108 68 -23 26 -46 57 -52 70 -6 12 -13 22 -17 22
-4 0 -17 -34 -29 -77z m159 -116 c0 -10 -4 -16 -9 -13 -5 4 -12 0 -14 -6 -4
-8 -6 -7 -6 4 -1 9 4 18 11 20 7 3 6 7 -5 11 -11 4 -17 1 -17 -8 0 -8 -5 -15
-11 -15 -5 0 -7 -4 -4 -10 3 -5 1 -10 -4 -10 -14 0 -14 17 -1 25 6 3 10 12 10
18 -1 7 -10 1 -21 -12 -11 -13 -22 -21 -26 -17 -4 3 -1 12 5 18 7 7 12 22 12
35 l0 24 40 -23 c23 -14 40 -31 40 -41z m51 -3 c8 -6 24 -9 36 -8 33 2 48 -20
26 -37 -10 -7 -15 -10 -11 -5 4 5 1 15 -7 22 -17 17 -29 18 -19 2 5 -9 2 -9
-9 1 -19 15 -22 5 -7 -34 8 -20 6 -32 -5 -48 -8 -12 -15 -17 -15 -12 0 6 -5 3
-11 -5 -9 -13 -10 -12 -5 3 3 9 1 17 -5 17 -6 0 -7 5 -3 12 6 9 9 9 11 1 5
-13 33 -6 33 8 0 5 -7 9 -15 9 -8 0 -15 5 -15 11 0 5 5 7 12 3 8 -5 9 -2 4 12
-5 10 -9 24 -9 31 0 7 -4 10 -8 8 -4 -3 -9 1 -12 9 -6 16 14 16 34 0z m-51
-34 c0 -5 -12 -10 -27 -9 -25 0 -26 1 -8 9 27 12 35 12 35 0z m-55 -34 c2 -14
-3 -27 -11 -30 -8 -3 -14 1 -14 9 0 8 -7 15 -16 15 -8 0 -12 5 -9 10 4 6 15 8
26 5 15 -5 18 -3 12 12 -3 10 -3 15 2 11 4 -4 9 -18 10 -32z m142 2 c-3 -8 -6
-5 -6 6 -1 11 2 17 5 13 3 -3 4 -12 1 -19z m-220 -30 c-3 -8 -6 -5 -6 6 -1 11
2 17 5 13 3 -3 4 -12 1 -19z m123 -9 c-7 -11 -14 -19 -16 -16 -7 7 7 37 17 37
6 0 5 -9 -1 -21z m-30 -34 c0 -5 -5 -3 -10 5 -5 8 -10 20 -10 25 0 6 5 3 10
-5 5 -8 10 -19 10 -25z m-107 8 c-7 -2 -21 -2 -30 0 -10 3 -4 5 12 5 17 0 24
-2 18 -5z m143 -20 c-10 -10 -19 5 -10 18 6 11 8 11 12 0 2 -7 1 -15 -2 -18z
m34 -2 c0 -5 -7 -12 -16 -15 -14 -5 -15 -4 -4 9 14 17 20 19 20 6z m-119 -28
c13 -17 13 -17 -6 -3 -11 8 -22 16 -24 17 -2 2 0 3 6 3 6 0 17 -8 24 -17z m69
-1 c0 -5 -7 -9 -15 -9 -8 0 -12 4 -9 9 3 4 9 8 15 8 5 0 9 -4 9 -8z m16 -32
c-4 -33 -16 -53 -17 -29 0 9 -4 6 -10 -6 -8 -16 -8 -15 -4 8 4 18 2 26 -5 22
-5 -3 -18 -2 -27 4 -14 8 -11 9 15 6 22 -2 35 1 39 11 9 23 13 16 9 -16z m10
-78 c1 -23 -10 -29 -21 -12 -3 6 -1 10 5 10 6 0 8 5 5 10 -4 6 -11 7 -17 4 -7
-4 -8 -2 -4 5 11 18 31 7 32 -17z"/>
<path d="M1375 4179 c-4 -6 -5 -12 -2 -15 2 -3 7 2 10 11 7 17 1 20 -8 4z"/>
<path d="M4334 915 c3 -8 1 -15 -4 -15 -6 0 -10 5 -10 10 0 18 -29 11 -40 -9
-13 -25 -13 -31 0 -31 6 0 10 7 10 15 0 8 6 15 14 15 10 0 13 -9 11 -30 -2
-16 -1 -29 3 -28 4 1 15 -2 25 -7 24 -10 37 4 14 16 -24 14 -21 27 6 32 21 4
22 4 0 6 -16 1 -20 6 -16 21 3 12 0 20 -7 20 -7 0 -10 -7 -6 -15z"/>
<path d="M4370 906 c0 -2 7 -6 15 -10 8 -3 15 -1 15 4 0 6 -7 10 -15 10 -8 0
-15 -2 -15 -4z"/>
<path d="M4406 883 c-4 -10 -4 -14 0 -10 4 4 13 2 20 -4 8 -7 14 -7 19 1 3 5
-1 10 -10 10 -9 0 -13 5 -10 10 3 6 2 10 -3 10 -6 0 -13 -8 -16 -17z"/>
<path d="M4460 855 c-14 -26 -30 -33 -30 -14 0 5 -5 7 -11 4 -7 -5 -4 -13 8
-25 17 -17 19 -16 36 17 10 19 17 37 14 39 -2 2 -10 -7 -17 -21z"/>
<path d="M4556 845 c4 -8 8 -15 10 -15 2 0 4 7 4 15 0 8 -4 15 -10 15 -5 0 -7
-7 -4 -15z"/>
<path d="M5176 764 c-4 -9 -4 -19 -1 -22 2 -3 7 3 11 12 4 9 4 19 1 22 -2 3
-7 -3 -11 -12z"/>
<path d="M4577 756 c-6 -15 36 -32 53 -21 6 4 10 -1 10 -9 0 -9 9 -16 20 -16
12 0 20 7 20 16 0 14 -3 14 -15 4 -13 -10 -15 -9 -15 9 0 19 -3 20 -22 10 -17
-9 -24 -8 -34 5 -10 14 -13 14 -17 2z"/>
<path d="M4690 741 c0 -6 5 -13 10 -16 6 -3 10 1 10 9 0 9 -4 16 -10 16 -5 0
-10 -4 -10 -9z"/>
<path d="M4705 710 c-16 -7 -17 -9 -3 -9 9 -1 20 4 23 9 7 11 7 11 -20 0z"/>
<path d="M4860 679 c0 -5 5 -7 10 -4 6 3 10 8 10 11 0 2 -4 4 -10 4 -5 0 -10
-5 -10 -11z"/>
<path d="M4971 674 c0 -11 3 -14 6 -6 3 7 2 16 -1 19 -3 4 -6 -2 -5 -13z"/>
<path d="M5698 673 c7 -3 16 -2 19 1 4 3 -2 6 -13 5 -11 0 -14 -3 -6 -6z"/>
<path d="M5738 653 c7 -3 16 -2 19 1 4 3 -2 6 -13 5 -11 0 -14 -3 -6 -6z"/>
<path d="M5445 640 c-3 -6 1 -7 9 -4 18 7 21 14 7 14 -6 0 -13 -4 -16 -10z"/>
<path d="M5288 623 c6 -2 18 -2 25 0 6 3 1 5 -13 5 -14 0 -19 -2 -12 -5z"/>
<path d="M5316 595 c-3 -10 1 -15 13 -15 11 0 28 -2 38 -5 10 -3 6 1 -10 8
-15 7 -24 16 -21 20 4 4 3 7 -3 7 -6 0 -13 -7 -17 -15z"/>
<path d="M6665 381 c-11 -5 -23 -7 -27 -4 -5 2 -8 -1 -8 -6 0 -16 36 -13 50 4
14 17 13 17 -15 6z"/>
<path d="M6380 340 c0 -5 5 -10 11 -10 5 0 7 5 4 10 -3 6 -8 10 -11 10 -2 0
-4 -4 -4 -10z"/>
</g>
</svg>
