<?xml version="1.0" standalone="no"?>
<!DOCTYPE svg PUBLIC "-//W3C//DTD SVG 20010904//EN"
 "http://www.w3.org/TR/2001/REC-SVG-20010904/DTD/svg10.dtd">
<svg version="1.0" xmlns="http://www.w3.org/2000/svg"
 width="900.000000pt" height="1195.000000pt" viewBox="0 0 900.000000 1195.000000"
 preserveAspectRatio="xMidYMid meet">

<g transform="translate(0.000000,1195.000000) scale(0.100000,-0.100000)"
fill="#000000" stroke="none">
<path d="M4883 11043 c9 -11 17 -22 17 -26 0 -3 -62 -6 -137 -7 -76 -1 -151
-3 -168 -6 -16 -2 -75 -6 -130 -9 -127 -7 -159 -10 -215 -20 -25 -4 -54 -9
-65 -11 -37 -5 -173 -61 -205 -84 -30 -22 -31 -23 -11 -36 17 -12 31 -10 120
25 55 22 113 42 128 45 41 9 115 18 136 18 9 -1 17 2 17 6 0 4 42 8 93 9 505
14 519 14 511 2 -5 -8 -3 -9 7 -4 19 12 49 14 49 2 0 -5 6 -7 14 -4 8 3 16 1
19 -6 3 -9 10 -9 31 1 22 10 42 10 90 2 33 -6 70 -13 81 -15 11 -1 47 -11 80
-21 33 -9 68 -17 78 -16 9 0 17 -4 17 -9 0 -6 4 -7 10 -4 5 3 20 0 32 -7 13
-7 29 -11 36 -10 6 2 12 -2 12 -8 0 -5 11 -10 23 -10 13 0 27 -3 31 -7 4 -5
12 -9 17 -9 5 -1 11 -3 14 -4 3 -1 8 -3 13 -5 44 -12 121 -49 117 -56 -3 -4 4
-5 15 -2 11 3 20 10 20 17 0 18 -95 86 -120 86 -5 0 -21 5 -37 12 -15 6 -32
12 -38 14 -5 1 -48 14 -94 29 -46 15 -97 28 -113 30 -16 2 -32 7 -37 9 -25 16
-210 46 -311 50 -25 2 -53 6 -62 10 -9 4 -23 8 -31 10 -8 1 -27 10 -43 20 -29
19 -29 19 -11 -1z"/>
<path d="M4063 10982 c-3 -7 -3 -16 1 -19 3 -4 6 -1 6 6 0 7 4 10 9 7 5 -3 14
1 21 9 9 11 8 14 -10 12 -12 -1 -25 -7 -27 -15z"/>
<path d="M4040 10974 c0 -16 -2 -17 -10 -4 -8 13 -10 12 -10 -2 0 -10 5 -18
10 -18 13 0 25 28 16 37 -3 4 -6 -2 -6 -13z"/>
<path d="M3997 10963 c-10 -9 -9 -23 1 -23 5 0 9 7 9 15 0 17 -1 18 -10 8z"/>
<path d="M5105 10930 c-3 -5 -1 -10 4 -10 6 0 11 5 11 10 0 6 -2 10 -4 10 -3
0 -8 -4 -11 -10z"/>
<path d="M3801 10914 c0 -11 3 -14 6 -6 3 7 2 16 -1 19 -3 4 -6 -2 -5 -13z"/>
<path d="M3735 10900 c-3 -5 -1 -10 4 -10 6 0 11 5 11 10 0 6 -2 10 -4 10 -3
0 -8 -4 -11 -10z"/>
<path d="M3734 10816 c-17 -8 -60 -16 -96 -20 -113 -10 -214 -39 -202 -58 3
-4 31 -6 62 -3 41 4 53 3 42 -4 -8 -6 -25 -11 -37 -11 -13 0 -23 -4 -23 -10 0
-5 -5 -10 -10 -10 -17 0 -131 -56 -173 -84 -21 -14 -40 -26 -43 -26 -14 0
-170 -124 -181 -143 -7 -12 -12 -18 -13 -13 0 12 -60 -44 -60 -57 0 -16 27
-36 46 -32 72 15 74 15 74 39 0 13 11 31 25 42 14 10 25 25 25 32 0 7 4 11 9
8 5 -4 11 -3 13 1 12 28 298 192 360 207 15 3 33 12 40 19 7 6 20 13 28 15 8
2 18 9 22 15 4 7 8 8 8 2 0 -7 3 -7 8 0 11 16 72 45 72 35 0 -5 12 -5 29 1 23
8 28 16 27 39 -1 33 -7 35 -52 16z"/>
<path d="M5574 10768 c-8 -12 26 -40 53 -44 23 -4 128 -48 134 -58 4 -5 12 -5
18 -2 6 4 11 2 11 -3 0 -6 6 -11 13 -11 8 0 32 -13 54 -29 23 -16 44 -27 47
-24 3 4 6 1 6 -5 0 -6 16 -19 35 -28 19 -9 35 -20 35 -26 0 -5 11 -21 25 -36
14 -15 31 -42 37 -59 7 -18 15 -33 19 -33 4 0 15 -23 25 -52 9 -28 33 -86 52
-127 20 -42 36 -78 36 -81 1 -6 24 -65 41 -105 7 -16 21 -55 30 -85 12 -35 33
-70 58 -95 50 -52 83 -109 92 -162 4 -25 13 -43 23 -47 9 -3 22 -8 28 -11 19
-10 23 19 9 76 -19 79 -29 99 -77 151 -24 26 -54 69 -68 95 -13 26 -29 51 -35
55 -6 5 -6 8 2 8 14 0 -3 58 -42 145 -15 33 -35 78 -45 100 -10 22 -32 75 -49
119 -17 43 -40 88 -50 100 -11 11 -38 42 -61 69 -24 26 -48 47 -56 47 -7 0
-21 10 -31 23 -10 12 -24 23 -30 24 -6 1 -33 15 -60 31 -46 27 -168 73 -205
77 -10 0 -21 4 -24 8 -11 11 -42 8 -50 -5z"/>
<path d="M5708 10763 c7 -3 16 -2 19 1 4 3 -2 6 -13 5 -11 0 -14 -3 -6 -6z"/>
<path d="M4947 10665 c-8 -18 49 -37 97 -32 20 2 36 0 36 -5 0 -6 6 -8 14 -5
8 3 17 3 20 -1 4 -3 14 -6 24 -7 36 -4 137 -29 148 -37 7 -5 27 -8 45 -8 19 1
51 -2 72 -5 42 -8 48 2 17 30 -16 15 -22 15 -35 5 -12 -10 -15 -9 -15 5 0 14
-3 13 -20 -6 -10 -13 -19 -18 -20 -11 0 6 5 12 10 12 6 0 10 7 10 15 0 13 -6
17 -26 14 -4 0 -10 4 -13 10 -4 6 -20 12 -37 13 -16 1 -33 4 -39 7 -12 7 -55
11 -187 16 -76 4 -97 2 -101 -10z"/>
<path d="M6131 10544 c13 -14 33 -30 44 -36 12 -6 6 4 -14 26 -19 20 -39 36
-45 36 -5 0 1 -12 15 -26z"/>
<path d="M4431 10454 c0 -11 3 -14 6 -6 3 7 2 16 -1 19 -3 4 -6 -2 -5 -13z"/>
<path d="M4257 10434 c-4 -4 -28 -8 -54 -10 -26 -1 -79 -5 -118 -9 -38 -4 -78
-7 -87 -6 -10 0 -18 -4 -18 -9 0 -4 -9 -6 -20 -3 -11 3 -20 1 -20 -4 0 -6 -11
-8 -25 -5 -18 3 -25 0 -25 -11 0 -19 48 -17 60 3 5 8 10 9 14 2 7 -12 69 -7
96 8 9 5 20 6 24 3 3 -3 6 -2 6 4 0 6 46 9 118 9 113 -1 117 -2 120 -23 2 -14
10 -23 21 -23 9 0 23 -6 30 -12 10 -11 11 -10 6 5 -4 9 -13 17 -20 17 -7 0
-16 7 -19 16 -8 22 -8 23 12 18 9 -2 55 -5 102 -7 47 -3 98 -10 114 -16 16 -7
35 -10 43 -7 7 3 13 1 13 -3 0 -5 20 -8 45 -8 25 1 45 0 45 -3 0 -3 11 -7 25
-8 14 -1 25 4 25 11 0 9 3 8 9 -2 6 -9 23 -12 55 -10 25 2 46 1 46 -3 0 -5 31
-7 70 -5 41 1 72 -2 75 -8 3 -7 7 -7 10 1 3 6 30 9 63 8 53 -3 54 -2 22 7 -19
6 -55 12 -80 14 -25 1 -45 4 -45 5 0 1 -29 3 -65 5 -36 2 -105 7 -155 11 -49
3 -117 8 -150 9 -33 2 -62 4 -65 5 -3 1 -8 2 -12 1 -5 0 -8 3 -8 8 0 4 -12 7
-26 5 -14 -1 -38 1 -52 6 -35 11 -197 22 -205 14z"/>
<path d="M6224 10353 c4 -55 14 -86 53 -163 29 -58 55 -96 66 -98 12 -2 17 3
17 17 0 23 -48 148 -85 221 -23 46 -23 48 -4 43 22 -6 85 -74 132 -143 17 -25
34 -46 39 -48 4 -2 8 -10 8 -18 0 -8 4 -14 8 -14 5 0 17 -16 28 -35 10 -19 22
-35 26 -35 5 0 8 -6 8 -14 0 -8 16 -31 35 -50 19 -20 35 -41 35 -47 0 -19 34
-69 47 -69 7 0 10 -7 7 -15 -4 -8 1 -17 10 -21 9 -3 16 -12 16 -18 0 -19 46
-77 54 -68 5 4 7 0 5 -8 -2 -8 5 -31 16 -50 10 -19 22 -50 27 -67 4 -18 12
-50 18 -70 9 -33 18 -135 23 -250 1 -18 5 -33 8 -33 6 0 0 -82 -6 -89 -2 -2
-16 10 -30 27 -25 30 -80 48 -92 29 -3 -5 -7 -35 -9 -66 -3 -52 24 -149 79
-281 6 -14 11 -27 12 -30 1 -3 7 -18 14 -34 12 -31 12 -101 -1 -88 -4 4 -9 17
-11 29 -1 11 -8 27 -14 35 -6 7 -37 65 -69 128 -32 63 -73 138 -91 167 -18 29
-33 57 -33 63 0 5 -5 10 -11 10 -5 0 -8 4 -5 9 4 5 2 11 -2 13 -5 1 -27 28
-50 59 -46 61 -131 139 -202 185 -25 16 -51 37 -58 46 -8 11 -24 16 -50 14
-32 -2 -38 -6 -48 -34 l-10 -33 -42 31 c-23 16 -45 30 -48 30 -17 0 -75 53
-70 65 12 32 -107 175 -243 292 -34 30 -20 29 87 -7 92 -31 142 -38 142 -20 0
18 -75 48 -225 89 -82 23 -163 48 -180 57 -16 8 -59 42 -94 75 -61 57 -121 98
-121 82 -1 -24 -18 -35 -39 -24 -28 15 -27 -3 2 -22 31 -22 81 -67 74 -67 -21
0 -199 58 -377 122 -305 111 -314 112 -525 113 -193 0 -389 -10 -407 -21 -6
-4 -162 -8 -347 -9 -300 -2 -504 -10 -522 -21 -4 -2 -26 -6 -50 -9 -24 -3 -51
-7 -59 -9 -8 -1 -32 -6 -53 -11 -28 -5 -37 -12 -35 -24 4 -17 16 -18 117 -7
30 3 57 9 60 13 3 4 30 9 60 10 32 1 58 7 62 15 7 10 9 10 9 0 0 -8 9 -11 28
-7 24 5 389 9 402 5 11 -4 166 -5 173 -2 5 2 50 6 100 7 96 3 167 11 228 24
55 12 308 13 364 2 28 -6 61 -13 75 -15 83 -16 250 -78 250 -94 0 -8 -7 -11
-17 -8 -10 3 -40 8 -68 11 -27 3 -66 8 -85 10 -19 3 -62 7 -95 10 -33 3 -82 7
-110 10 -42 4 -256 17 -290 17 -54 0 -292 -13 -311 -18 -68 -17 -5 -24 209
-25 127 0 252 -1 277 -4 25 -2 78 -6 117 -9 40 -3 76 -7 80 -9 5 -3 40 -8 78
-12 118 -11 146 -14 270 -31 171 -22 163 -21 311 -55 203 -46 291 -79 345
-129 9 -8 29 -24 44 -35 16 -11 41 -32 56 -47 14 -16 32 -28 38 -28 7 0 9 -4
6 -10 -3 -5 11 -28 32 -51 21 -23 37 -47 35 -53 -2 -6 0 -8 4 -4 8 9 34 -9 34
-23 0 -10 -41 10 -51 25 -4 4 -9 3 -13 -2 -4 -6 -13 -9 -21 -5 -8 3 -15 0 -15
-6 0 -15 41 -53 77 -71 43 -22 111 -71 116 -84 6 -14 -30 -19 -38 -6 -3 5 -13
6 -22 3 -9 -4 -14 -2 -10 3 7 12 -140 87 -153 79 -5 -3 -11 -1 -15 5 -4 6 -11
8 -16 4 -5 -3 -16 0 -24 6 -12 10 -15 10 -15 -1 0 -9 -3 -10 -8 -4 -11 17 -92
44 -109 38 -11 -4 -14 -2 -9 5 4 7 1 12 -10 12 -16 0 -16 -1 1 -20 10 -11 22
-17 26 -14 5 3 9 1 9 -4 0 -12 59 -34 71 -26 5 3 9 0 9 -7 0 -6 8 -9 20 -6 10
3 21 0 22 -5 2 -5 16 -11 31 -11 15 -1 27 -5 27 -8 0 -6 78 -39 83 -36 1 1 13
-8 27 -21 13 -12 29 -21 35 -18 6 2 17 -5 24 -15 6 -11 16 -17 20 -14 5 2 11
-2 15 -10 3 -8 13 -15 21 -15 9 0 14 -4 11 -9 -3 -4 4 -17 17 -27 l22 -19 -19
23 c-11 12 -14 22 -9 22 6 0 23 -17 39 -37 15 -20 30 -31 32 -25 4 13 45 -28
85 -85 12 -18 27 -33 34 -33 7 0 23 -11 37 -25 21 -21 26 -22 37 -9 10 12 9
13 -3 9 -9 -4 -15 0 -15 10 0 8 3 15 7 15 14 0 60 -42 55 -50 -3 -5 -1 -10 5
-12 14 -5 0 -48 -16 -48 -8 0 -40 11 -72 24 -101 42 -143 47 -174 19 -21 -19
-67 -7 -173 48 -44 23 -90 46 -102 53 -13 6 -23 14 -23 19 0 4 -7 7 -15 7 -8
0 -15 6 -15 13 0 7 -16 21 -36 32 -32 17 -48 29 -91 65 -7 5 -17 10 -22 10 -5
0 -16 6 -23 13 -22 22 -124 97 -132 97 -4 0 -16 8 -27 19 -11 10 -44 30 -74
46 -30 15 -55 28 -55 30 0 1 25 0 55 -3 32 -3 55 0 55 5 0 19 -36 41 -79 48
-82 13 -282 84 -390 138 -25 12 -47 22 -50 23 -3 0 -19 6 -36 13 -57 24 -90
32 -160 38 -94 7 -96 7 -285 -2 -91 -4 -172 -7 -180 -7 -8 0 -33 -7 -55 -15
-22 -8 -51 -17 -65 -20 -14 -2 -54 -13 -90 -24 -36 -11 -72 -22 -80 -24 -8 -2
-37 -10 -64 -19 -27 -8 -53 -13 -57 -10 -4 2 -10 0 -13 -5 -3 -4 -20 -12 -38
-16 -18 -4 -35 -9 -38 -9 -3 -1 -21 -6 -40 -10 -19 -5 -41 -12 -50 -17 -8 -4
-58 -23 -110 -40 -52 -18 -141 -52 -197 -76 -57 -23 -106 -43 -109 -43 -10 0
-267 -130 -284 -144 -8 -6 -34 -21 -57 -32 -24 -10 -43 -22 -43 -26 0 -5 -9
-8 -20 -8 -11 0 -23 -7 -26 -15 -4 -8 -10 -13 -14 -10 -5 3 -20 1 -34 -5 -18
-7 -26 -6 -26 1 0 23 -62 -1 -103 -40 -68 -63 -92 -80 -170 -115 -80 -37 -151
-92 -140 -109 3 -5 1 -7 -4 -4 -10 6 -30 -20 -78 -98 -10 -16 -46 -61 -79 -98
-62 -69 -68 -84 -54 -124 6 -18 -1 -31 -39 -70 -47 -49 -113 -144 -113 -163 0
-5 -4 -10 -8 -10 -4 0 -13 -12 -19 -27 -7 -16 -25 -50 -41 -78 -58 -101 -72
-130 -72 -147 0 -10 -4 -18 -9 -18 -5 0 -15 -17 -22 -37 -6 -21 -15 -42 -19
-48 -16 -22 -70 -195 -85 -269 -16 -79 -13 -116 8 -116 8 0 7 -3 -2 -9 -11 -7
-9 -11 8 -20 20 -11 21 -9 21 23 0 18 9 62 19 97 11 35 27 93 36 128 22 86 89
259 93 239 2 -8 -11 -50 -28 -93 -17 -43 -29 -84 -26 -92 3 -7 1 -13 -4 -13
-6 0 -10 -6 -10 -13 0 -8 -7 -28 -16 -46 -9 -17 -13 -39 -10 -48 6 -14 8 -14
24 -1 9 9 23 13 31 10 8 -2 11 0 7 6 -3 5 0 12 8 15 18 7 26 53 12 68 -8 9 -8
10 2 5 8 -5 12 1 12 21 0 15 4 35 9 42 16 25 2 -85 -24 -199 -33 -139 -43
-218 -40 -310 2 -77 24 -140 48 -140 8 0 8 -3 -2 -9 -11 -7 -6 -13 20 -27 19
-10 45 -20 58 -21 20 -4 23 -1 18 18 -7 25 8 49 30 49 27 0 83 52 119 111 19
33 40 56 46 53 10 -6 6 -123 -6 -154 -3 -8 -7 -33 -9 -55 -2 -22 -9 -53 -16
-69 -54 -135 -76 -183 -86 -196 -30 -38 -75 -122 -75 -140 0 -15 7 -20 25 -20
33 0 87 76 64 91 -12 7 -11 9 2 9 18 0 47 38 52 67 2 10 15 45 31 78 15 33 32
82 38 109 7 33 13 44 19 35 4 -8 4 -18 -1 -23 -16 -16 1 -32 35 -31 28 1 35
-2 35 -17 0 -15 -7 -19 -35 -18 -3 0 -19 -7 -35 -15 -56 -29 -90 -134 -90
-278 0 -178 44 -263 235 -454 164 -163 217 -193 359 -207 22 -2 52 0 66 4 21
6 31 3 45 -12 17 -20 17 -20 36 8 18 28 25 54 14 54 -4 0 -19 -7 -36 -15 l-29
-16 6 41 c6 39 5 40 -29 55 -19 8 -51 17 -70 19 -19 2 -48 17 -68 35 -30 28
-59 40 -59 25 0 -10 23 -49 34 -56 8 -6 7 -10 -2 -16 -20 -13 6 -29 43 -27 17
1 35 -1 40 -4 6 -3 21 -6 35 -6 19 -1 24 -6 22 -21 -5 -27 -7 -28 -64 -27 -91
3 -160 46 -310 196 -155 154 -189 209 -205 330 -20 156 4 276 64 326 21 17 42
30 48 28 20 -7 15 -34 -9 -45 -14 -6 -32 -28 -41 -48 -18 -45 -20 -114 -2
-114 8 0 8 -3 -2 -9 -14 -9 -18 -102 -5 -122 3 -5 8 -22 10 -37 6 -32 51 -112
63 -112 5 0 12 -11 15 -25 5 -20 13 -25 36 -25 37 0 38 15 4 46 -14 13 -22 24
-18 24 4 0 -1 9 -11 20 -10 11 -14 20 -9 20 5 0 4 4 -3 8 -35 22 -54 275 -23
306 8 8 30 -10 80 -64 39 -41 70 -77 70 -81 0 -3 18 -18 40 -33 40 -26 50 -52
29 -73 -14 -14 14 -47 34 -40 14 4 37 -16 37 -35 0 -18 91 -170 121 -201 13
-14 51 -56 84 -94 33 -38 84 -89 114 -114 29 -24 59 -48 65 -54 52 -45 224
-139 311 -170 28 -10 55 -22 60 -25 6 -4 24 -10 40 -14 17 -4 44 -14 60 -21
17 -7 59 -24 95 -36 36 -12 71 -27 78 -32 6 -5 12 -6 12 -2 0 5 8 1 18 -7 18
-16 61 -33 75 -30 4 1 7 -2 7 -8 0 -5 18 -13 40 -16 23 -4 39 -9 36 -11 -2 -3
2 -24 11 -46 8 -23 15 -56 14 -74 0 -36 19 -56 44 -47 14 6 16 14 10 48 -3 23
-8 63 -10 89 -3 41 -2 47 13 43 20 -7 150 -26 175 -26 9 0 17 6 17 14 0 19
-29 28 -129 42 -25 3 -62 12 -83 20 -21 7 -38 10 -38 7 0 -4 -5 -2 -12 5 -7 7
-19 12 -28 12 -20 0 -151 40 -165 50 -5 4 -20 6 -32 5 -12 -1 -20 2 -17 6 2 4
-5 13 -17 20 -17 9 -23 8 -30 -2 -7 -11 -9 -9 -10 6 0 11 -3 14 -6 8 -2 -7 -9
-13 -14 -13 -6 0 -8 4 -5 9 3 4 -6 13 -20 20 -21 9 -30 9 -42 -1 -13 -11 -15
-10 -10 3 4 11 -2 20 -19 28 -13 6 -28 9 -33 6 -5 -3 -10 -1 -12 4 -1 5 -10
11 -18 13 -8 2 -49 23 -90 48 -105 63 -125 71 -139 57 -10 -9 -12 -9 -9 2 2 7
-3 16 -11 19 -8 3 -11 0 -7 -7 5 -7 1 -9 -8 -5 -9 3 -13 10 -10 15 3 5 -2 9
-10 9 -9 0 -16 3 -16 8 0 4 -21 21 -45 37 -25 17 -45 33 -45 38 0 4 -7 7 -15
7 -9 0 -21 12 -27 28 -7 15 -49 63 -93 107 -60 59 -92 100 -120 157 -22 42
-37 79 -34 83 4 3 18 1 33 -4 39 -15 32 -2 -27 54 -32 29 -59 65 -65 85 -13
39 -37 181 -48 280 -4 36 -9 74 -10 85 -6 38 -4 337 2 363 19 87 23 92 68 92
66 0 112 45 69 68 -14 9 -13 14 12 58 15 27 34 61 42 75 7 15 20 32 28 39 8 7
15 19 15 26 0 8 5 14 10 14 6 0 10 5 10 11 0 6 9 23 20 37 61 79 59 78 69 63
7 -11 15 -11 41 -2 18 6 44 11 56 11 29 0 30 14 5 41 -16 17 -17 26 -9 57 6
20 20 50 32 67 13 16 44 68 71 115 26 47 52 87 57 88 4 2 8 8 8 14 0 6 11 26
25 44 14 18 25 37 25 42 0 5 7 15 15 22 12 10 15 10 15 -3 0 -25 21 -31 40
-11 10 11 35 53 56 94 48 97 153 282 166 295 15 14 5 -14 -72 -222 -64 -171
-114 -270 -219 -433 -77 -120 -96 -175 -67 -186 11 -4 8 -15 -15 -49 -17 -25
-34 -47 -40 -50 -16 -11 -49 6 -49 25 0 24 -28 34 -33 12 -12 -49 -7 -73 21
-84 56 -24 74 -19 152 39 41 31 83 66 93 77 91 107 121 140 182 199 38 38 81
76 94 85 22 15 24 15 37 -3 8 -10 14 -15 14 -11 0 5 6 4 13 -1 6 -6 20 -9 30
-7 46 7 159 110 236 214 23 30 52 69 65 85 14 17 59 74 101 128 42 53 79 97
81 97 16 0 -50 -156 -178 -420 -113 -232 -142 -294 -143 -302 0 -3 -3 -10 -7
-14 -5 -4 -8 -14 -8 -23 0 -23 207 -29 216 -7 7 19 44 16 44 -4 0 -18 77 -43
86 -29 3 5 9 7 14 4 5 -3 42 27 82 68 40 40 108 95 151 122 42 27 77 52 77 57
0 4 5 8 12 8 6 0 26 12 45 26 26 20 40 24 64 19 19 -4 36 -2 45 6 9 7 54 71
101 141 48 70 89 128 93 128 8 0 0 -50 -19 -116 -6 -23 -33 -85 -61 -138 -42
-84 -48 -100 -38 -121 6 -13 15 -22 21 -18 6 4 7 -4 3 -21 -10 -39 20 -47 50
-13 12 14 34 29 48 33 23 5 125 118 155 171 8 15 12 16 23 5 7 -7 13 -20 13
-30 0 -24 30 -26 52 -3 10 10 37 27 61 36 23 10 42 21 42 27 0 5 4 6 10 3 19
-12 134 60 201 126 38 37 69 73 69 79 0 7 8 24 19 38 10 15 18 34 18 42 1 8 4
29 8 45 11 44 13 195 3 201 -5 3 1 19 12 35 12 16 18 29 14 29 -24 0 20 23 52
27 22 3 49 11 62 19 16 10 36 13 65 9 50 -8 47 -5 54 -45 5 -32 4 -33 -26 -27
-19 4 -31 2 -31 -4 0 -6 4 -8 8 -5 4 2 18 -3 30 -12 20 -16 22 -25 21 -107 0
-50 0 -106 0 -125 1 -33 17 -54 33 -44 4 3 12 -15 18 -38 6 -24 15 -56 20 -73
19 -62 12 -260 -15 -395 -7 -36 -13 -72 -13 -80 -1 -8 -4 -50 -8 -92 -8 -102
1 -169 23 -161 11 4 14 2 9 -5 -9 -14 12 -37 42 -46 18 -6 22 -4 22 16 0 13
-5 29 -10 34 -7 7 -2 20 14 39 l25 29 16 -37 c18 -43 23 -44 55 -17 13 11 29
20 36 20 14 0 36 33 32 47 -1 4 3 18 10 30 7 12 17 55 22 96 5 40 14 93 19
118 6 24 11 67 12 94 1 46 1 48 10 20 21 -70 60 -331 64 -433 4 -119 18 -267
25 -272 4 -3 6 -13 4 -22 -1 -10 1 -18 5 -18 9 0 8 -25 -2 -55 -11 -36 -27
-122 -32 -180 -3 -40 10 -70 25 -60 13 8 23 -15 12 -28 -5 -7 -12 -24 -16 -38
-5 -22 -2 -28 16 -32 14 -4 29 0 40 10 17 15 18 14 19 -8 1 -13 3 -42 5 -64 3
-22 5 -49 6 -60 7 -99 -97 -360 -189 -476 -81 -103 -274 -289 -380 -366 -96
-71 -111 -88 -87 -97 25 -10 59 3 78 30 11 13 24 24 30 24 18 0 84 58 185 160
51 52 98 100 103 105 6 6 37 37 70 70 63 62 128 154 128 180 0 8 5 15 10 15 6
0 10 7 10 15 0 8 4 23 10 33 25 47 42 93 37 106 -3 8 0 17 7 19 14 6 39 123
30 138 -3 5 0 9 5 9 19 0 12 16 -11 29 -15 7 -16 10 -4 6 12 -3 27 4 42 20 22
24 24 24 33 7 6 -12 31 -23 65 -31 31 -7 56 -17 56 -22 0 -5 11 -7 25 -5 14 3
24 2 21 -2 -2 -4 -7 -57 -10 -119 l-6 -111 31 -7 c17 -4 29 -12 26 -18 -2 -7
-15 -43 -28 -82 -13 -38 -29 -74 -35 -80 -6 -5 -29 -35 -51 -65 -22 -30 -68
-75 -103 -100 -35 -25 -71 -53 -81 -62 -9 -9 -20 -14 -23 -11 -3 3 -17 -2 -30
-11 -14 -9 -32 -16 -41 -16 -8 0 -15 -4 -15 -8 0 -4 -8 -8 -17 -9 -35 -3 -128
-14 -148 -18 -11 -2 -23 -4 -27 -4 -4 -1 -5 -7 -2 -15 8 -21 107 -19 189 5 39
11 76 21 83 23 8 1 17 7 20 13 4 5 14 10 22 10 26 0 140 85 192 143 48 53 94
127 90 143 -1 4 3 7 9 7 5 0 7 5 4 10 -3 6 -2 10 3 10 10 0 27 48 23 64 -1 4
2 13 7 20 5 6 15 33 21 60 10 40 10 51 -1 57 -9 6 -9 9 -1 9 12 0 31 50 32 85
0 11 1 73 1 137 1 115 1 117 28 134 15 9 41 33 59 53 18 20 37 37 42 37 6 1
15 2 20 3 6 0 10 9 10 19 6 160 14 244 30 308 11 44 23 93 27 109 4 17 7 41 8
55 1 21 -3 25 -28 25 -27 0 -30 -4 -60 -95 -18 -52 -34 -101 -37 -107 -2 -7
-5 66 -6 163 -3 172 -6 200 -23 189 -4 -3 -10 2 -14 10 -3 8 -1 15 4 15 5 0
22 24 36 52 24 48 28 51 38 34 6 -10 23 -31 38 -45 14 -15 33 -45 41 -66 8
-22 18 -49 23 -60 4 -11 6 -24 5 -29 -1 -5 8 -6 19 -3 17 4 19 3 10 -8 -15
-18 -19 -175 -5 -175 6 0 5 -3 -1 -8 -24 -16 -36 -411 -14 -453 6 -11 13 -43
16 -71 4 -54 39 -140 70 -173 22 -23 74 -58 74 -50 0 17 -22 45 -31 39 -6 -3
-9 0 -8 7 2 13 -21 75 -41 111 -6 10 -12 34 -15 54 -2 20 -7 44 -10 54 -13 42
-13 94 1 107 8 8 15 26 15 41 1 15 3 38 4 52 2 14 -2 31 -7 38 -7 8 -7 12 0
12 5 0 8 9 5 20 -8 30 -21 15 -17 -20 2 -16 0 -30 -5 -30 -5 0 -8 23 -8 50 0
36 4 54 16 61 15 10 14 10 -1 5 -19 -6 -31 17 -17 31 17 17 22 75 7 84 -10 7
-11 9 0 9 8 0 10 5 6 12 -5 7 -7 39 -6 72 1 39 -3 63 -11 68 -8 5 -3 8 13 9
14 0 19 3 12 6 -6 2 -10 8 -7 12 2 5 -8 7 -23 5 -15 -2 -19 -1 -9 2 18 6 23
29 7 39 -5 3 -7 12 -4 19 3 8 -2 31 -11 52 -21 49 -21 171 0 194 17 19 10 71
-24 207 -22 86 -25 135 -14 246 7 75 20 78 25 5 2 -27 6 -48 9 -48 3 0 3 -20
-1 -45 -8 -53 0 -117 16 -122 6 -2 22 9 35 24 13 16 29 31 34 33 9 5 10 47 2
400 l-2 95 -32 3 -33 3 0 -58 c0 -32 -5 -65 -10 -73 -8 -12 -10 -11 -10 8 0
12 0 23 1 25 0 1 -5 16 -11 32 -12 30 -15 289 -4 306 3 5 2 9 -3 9 -4 0 -8 17
-9 38 0 20 -4 69 -8 107 -3 39 -9 93 -11 120 -3 28 -7 64 -10 80 -8 40 -83
195 -95 195 -6 0 -10 5 -10 10 0 12 -101 163 -112 168 -5 2 -8 10 -8 18 0 8
-4 14 -10 14 -5 0 -10 7 -10 15 0 7 -7 18 -16 23 -9 5 -15 13 -15 18 1 5 -14
29 -32 54 -18 25 -54 74 -79 110 -89 126 -151 180 -206 180 l-33 0 5 -67z
m-1264 -233 c0 -5 -2 -10 -4 -10 -3 0 -8 5 -11 10 -3 6 -1 10 4 10 6 0 11 -4
11 -10z m227 -672 c-3 -8 -6 -5 -6 6 -1 11 2 17 5 13 3 -3 4 -12 1 -19z m1058
-15 c-2 -10 -4 -22 -4 -26 -1 -5 -5 -6 -11 -2 -5 3 -7 12 -4 19 3 8 1 17 -5
21 -20 12 -12 26 8 15 11 -5 18 -18 16 -27z m91 -56 c59 -58 71 -80 41 -73 -7
2 -9 1 -4 -1 4 -3 5 -9 1 -14 -3 -5 0 -9 5 -9 6 0 11 5 11 10 0 7 7 7 21 0 12
-7 18 -18 15 -26 -3 -8 -2 -12 4 -9 14 8 93 -102 86 -120 -3 -10 -2 -13 5 -10
6 4 13 -2 16 -14 3 -12 9 -21 13 -21 4 0 10 -9 13 -20 5 -18 4 -19 -16 -5 -12
8 -32 15 -44 15 -21 0 -28 10 -24 33 1 5 -3 6 -8 3 -9 -6 -66 42 -59 50 2 2
23 -4 47 -12 93 -32 49 14 -73 76 -43 22 -71 40 -62 40 9 0 16 5 16 10 0 6 -4
10 -10 10 -12 0 -34 40 -26 47 3 3 11 1 19 -5 10 -8 13 -7 13 7 0 16 -4 17
-24 10 -19 -7 -27 -5 -42 13 -19 23 -24 78 -7 78 5 0 38 -28 73 -63z m-1182
-133 c7 -19 9 -17 -22 -33 -31 -16 -39 -7 -22 24 15 29 35 32 44 9z m1603 -70
c6 -14 9 -33 6 -41 -4 -10 -2 -14 5 -9 12 7 27 -29 17 -44 -3 -5 -2 -10 3 -10
13 0 20 -80 8 -87 -5 -3 -6 -1 -2 5 4 7 2 12 -5 12 -7 0 -9 10 -7 25 3 13 1
26 -4 27 -5 2 -10 10 -12 18 -2 8 -6 22 -9 30 -3 8 -7 26 -10 40 -2 14 -8 33
-12 43 -11 27 9 20 22 -9z m-965 -184 c6 -19 13 -42 16 -50 3 -8 -7 2 -22 23
-19 27 -26 50 -25 80 1 41 1 41 10 12 5 -16 15 -46 21 -65z m-2402 62 c0 -4
-6 -16 -14 -27 -30 -44 -85 -153 -79 -159 4 -3 1 -6 -5 -6 -7 0 -12 -8 -12
-18 0 -16 -8 -18 -55 -18 -60 1 -65 10 -30 62 11 16 28 47 40 69 15 30 29 42
55 49 19 5 38 14 41 19 3 5 9 8 13 8 20 -3 26 1 26 14 0 8 5 15 10 15 6 0 10
-3 10 -8z m1570 4 c0 -2 -8 -10 -17 -17 -16 -13 -17 -12 -4 4 13 16 21 21 21
13z m420 -11 c0 -1 -19 -21 -42 -46 -57 -59 -132 -184 -125 -208 3 -13 0 -18
-8 -15 -13 5 -69 -66 -99 -124 -10 -19 -20 -31 -23 -28 -10 9 18 64 102 204
87 144 149 221 178 219 9 -1 17 -2 17 -2z m-2270 -109 c-28 -51 -60 -77 -60
-48 0 20 69 106 78 98 3 -3 -6 -25 -18 -50z m1460 29 c-13 -14 -25 -23 -27
-21 -8 8 22 46 36 46 10 0 7 -8 -9 -25z m815 -45 c0 -27 -3 -50 -6 -50 -4 0
-9 -17 -13 -38 -12 -79 -103 -188 -207 -250 l-41 -24 18 28 c10 16 29 43 42
61 13 18 21 37 17 43 -3 5 0 10 8 10 8 0 34 33 57 73 40 68 121 197 124 197 0
0 1 -22 1 -50z m-2208 -156 c-3 -3 -12 -4 -19 -1 -8 3 -5 6 6 6 11 1 17 -2 13
-5z m1118 -83 c-25 -51 -32 -58 -47 -50 -10 5 -18 14 -18 20 0 13 82 101 88
94 3 -3 -8 -32 -23 -64z m-1207 -52 c-32 -53 -58 -101 -58 -107 0 -7 -4 -12
-8 -12 -4 0 -25 -29 -46 -65 -37 -64 -56 -86 -56 -66 0 5 4 12 9 15 5 3 45 80
89 170 72 146 83 164 104 162 23 -1 22 -5 -34 -97z m-1052 -107 c-9 -17 -21
-34 -27 -38 -13 -8 -11 -1 16 43 24 39 32 36 11 -5z m4433 -44 l-1 -43 -13 30
c-9 21 -10 34 -3 43 16 19 18 15 17 -30z m-4489 -55 c0 -16 -52 -143 -58 -143
-28 1 -29 19 -2 62 16 25 26 49 23 52 -4 3 -1 6 5 6 7 0 11 3 11 8 -3 14 1 22
11 22 6 0 10 -3 10 -7z m4712 -103 c-2 -16 -8 -30 -13 -30 -10 0 -11 16 -3 47
9 33 21 19 16 -17z m-335 -57 c-2 -16 -4 -3 -4 27 0 30 2 43 4 28 2 -16 2 -40
0 -55z m-4244 -50 c-3 -19 -11 -33 -19 -33 -10 0 -11 6 -3 26 20 55 29 57 22
7z m4578 -6 c4 -15 3 -29 -2 -33 -5 -3 -9 -21 -9 -41 0 -60 -13 -28 -18 43 -3
52 -1 65 9 62 7 -2 16 -16 20 -31z m-4683 -32 c-6 -14 -13 -23 -15 -21 -5 5
15 46 22 46 3 0 -1 -11 -7 -25z m622 -140 c0 -8 5 -15 10 -15 6 0 10 -5 10
-11 0 -12 -92 -161 -96 -156 -2 2 6 32 17 67 12 36 22 70 24 75 14 45 18 55
26 55 5 0 9 -7 9 -15z m-589 -81 c-32 -60 -65 -73 -57 -23 5 32 24 62 35 55 4
-3 13 -1 21 4 23 14 23 5 1 -36z m4575 -136 c-8 -138 -18 -206 -34 -235 -7
-13 -14 -23 -16 -23 -7 0 4 105 18 185 8 44 18 104 21 133 12 91 18 56 11 -60z
m-4951 -58 c3 -5 1 -10 -4 -10 -6 0 -11 5 -11 10 0 6 2 10 4 10 3 0 8 -4 11
-10z m661 -99 c-24 -100 -36 -133 -36 -95 0 19 8 50 36 153 26 91 26 50 0 -58z
m3944 -104 c-6 -24 -8 -15 -8 38 0 58 2 64 8 32 4 -21 4 -53 0 -70z m-4414
-75 c2 -41 -14 -72 -18 -35 -4 55 -2 83 7 80 6 -2 11 -22 11 -45z m117 -2
c-27 -46 -67 -52 -56 -10 6 21 52 52 66 43 4 -2 0 -17 -10 -33z m4237 -17 c6
-62 3 -94 -8 -105 -7 -7 -10 11 -9 59 0 60 3 83 11 83 1 0 4 -17 6 -37z
m-3785 -32 c2 -11 0 -21 -6 -21 -5 0 -9 12 -9 27 0 30 9 27 15 -6z m0 -53 c-1
-13 2 -59 7 -103 5 -44 9 -107 10 -140 0 -33 5 -71 10 -85 6 -16 6 -21 0 -15
-6 6 -17 36 -24 67 -17 65 -24 298 -10 298 5 0 8 -10 7 -22z m-265 -38 c0 -5
-5 -10 -11 -10 -5 0 -7 5 -4 10 3 6 8 10 11 10 2 0 4 -4 4 -10z m4373 -44 c3
-8 -3 -24 -14 -37 -20 -23 -24 -14 -13 29 7 25 19 29 27 8z m-4172 -13 c3 -59
9 -91 18 -116 16 -40 14 -46 -11 -43 -57 8 -70 18 -62 45 3 14 8 35 10 46 9
52 23 85 35 85 5 0 9 -8 10 -17z m4060 -22 c8 -2 4 -52 -5 -73 -5 -10 -19 -18
-31 -18 -13 0 -25 -4 -27 -9 -1 -5 -12 -3 -23 6 -16 12 -16 14 -3 10 27 -9 46
17 42 56 -4 34 3 38 47 28z m159 -101 c0 -5 -4 -10 -10 -10 -5 0 -10 5 -10 10
0 6 5 10 10 10 6 0 10 -4 10 -10z m4 -110 c-2 -30 -6 -73 -10 -95 -3 -22 -6
-46 -6 -52 -1 -7 -5 -13 -10 -13 -4 0 -6 17 -3 38 5 33 12 123 15 192 1 23 2
23 9 5 5 -11 7 -45 5 -75z m-4184 7 c0 -5 11 -31 25 -58 13 -27 20 -49 16 -49
-9 0 -111 121 -111 132 0 3 16 1 35 -5 19 -6 35 -15 35 -20z m728 -839 c34
-18 62 -36 62 -41 0 -4 -3 -6 -7 -4 -5 2 -34 17 -66 32 -53 26 -79 45 -60 45
4 0 36 -14 71 -32z m222 -98 c0 -5 -2 -10 -4 -10 -3 0 -8 5 -11 10 -3 6 -1 10
4 10 6 0 11 -4 11 -10z"/>
<path d="M6265 9410 c-4 -6 3 -10 14 -10 25 0 27 6 6 13 -8 4 -17 2 -20 -3z"/>
<path d="M6276 9375 c6 -14 54 -18 54 -3 0 15 -23 20 -31 7 -6 -10 -9 -11 -9
-1 0 6 -4 12 -10 12 -5 0 -7 -7 -4 -15z"/>
<path d="M4278 10383 c7 -3 16 -2 19 1 4 3 -2 6 -13 5 -11 0 -14 -3 -6 -6z"/>
<path d="M4382 10376 c7 -8 15 -11 18 -7 3 3 9 9 14 14 5 4 -3 7 -18 7 -22 0
-25 -2 -14 -14z"/>
<path d="M3845 10370 c-4 -6 -11 -8 -16 -5 -5 4 -9 -1 -9 -10 0 -12 5 -15 16
-11 9 3 22 6 30 6 8 0 14 7 14 15 0 17 -25 20 -35 5z"/>
<path d="M3762 10363 c-18 -2 -30 -7 -28 -11 7 -12 -326 -14 -364 -3 -45 14
-63 -3 -18 -18 54 -18 110 -22 101 -8 -4 7 1 6 11 -2 15 -13 19 -13 27 0 5 8
9 10 9 4 0 -14 50 -15 50 -1 0 8 2 8 8 -1 8 -13 29 -13 50 0 7 5 12 3 12 -5 0
-10 2 -10 9 1 5 8 11 9 15 3 4 -6 16 -9 29 -6 12 2 38 7 57 11 19 4 41 6 48 5
6 -2 12 2 12 8 0 6 5 8 10 5 6 -3 10 1 10 9 0 9 -3 15 -7 14 -5 0 -23 -3 -41
-5z"/>
<path d="M2806 10215 c-6 -5 -17 -10 -23 -11 -30 -2 -34 -5 -27 -16 5 -7 2 -9
-9 -5 -9 3 -31 -5 -52 -19 -20 -13 -38 -24 -41 -24 -2 0 -22 -12 -44 -26 -27
-18 -61 -29 -112 -35 -40 -5 -89 -11 -108 -15 -19 -3 -43 -6 -52 -6 -10 1 -18
-4 -18 -10 0 -6 -9 -8 -20 -5 -11 3 -26 0 -33 -7 -7 -7 -18 -11 -25 -8 -7 2
-19 -1 -27 -8 -8 -6 -18 -9 -23 -6 -5 3 -21 -2 -37 -10 -15 -8 -30 -12 -32
-10 -5 4 -56 -16 -133 -52 -67 -31 -155 -86 -168 -104 -7 -10 -17 -16 -21 -14
-4 3 -18 -2 -30 -10 -18 -13 -20 -18 -9 -32 7 -10 8 -14 4 -10 -16 14 -106
-49 -106 -74 0 -4 -6 -7 -12 -5 -7 1 -12 -4 -11 -10 2 -7 -2 -13 -8 -13 -5 0
-8 -4 -4 -9 3 -5 1 -12 -5 -16 -5 -3 -10 -12 -10 -18 0 -7 8 -3 16 8 8 11 20
19 25 18 5 -2 8 3 6 10 -1 6 3 11 10 10 7 -2 10 4 7 12 -5 11 -2 13 10 9 12
-5 15 -2 10 10 -4 12 -2 15 9 11 9 -4 23 5 37 22 12 15 25 27 28 26 15 -3 62
32 58 44 -3 6 0 10 7 7 7 -2 53 17 102 43 50 27 131 64 180 83 50 19 91 37 93
41 2 4 11 5 21 2 10 -3 22 0 25 6 4 5 13 8 21 4 8 -3 15 -1 15 4 0 10 75 29
145 37 l40 5 -25 -19 c-13 -10 -28 -16 -32 -14 -4 3 -8 0 -8 -5 0 -6 -9 -11
-20 -11 -11 0 -20 -3 -20 -8 0 -4 -15 -13 -32 -21 -18 -8 -69 -31 -113 -51
-44 -21 -97 -44 -119 -51 -21 -8 -48 -23 -60 -34 -12 -11 -30 -20 -41 -20 -11
0 -19 -6 -17 -13 1 -8 -2 -11 -7 -7 -15 8 -93 -34 -85 -46 3 -6 12 -3 21 8 8
10 11 12 7 4 -4 -9 -2 -12 7 -9 8 3 13 11 11 17 -1 7 2 10 7 7 14 -9 63 12 56
24 -3 5 0 7 9 4 8 -3 36 5 63 17 26 12 59 25 73 30 14 4 49 17 78 29 l54 21
-4 -38 c-3 -32 0 -38 16 -35 12 2 16 -1 11 -10 -5 -8 -2 -7 8 2 8 8 24 31 35
50 11 19 25 34 32 32 6 -1 10 3 8 10 -5 14 52 63 84 74 12 3 24 1 28 -6 5 -8
10 -9 14 -2 3 6 0 12 -6 15 -7 3 5 13 27 23 22 11 52 28 67 38 15 10 31 15 37
12 5 -3 11 -3 13 1 7 17 166 60 243 66 22 2 28 31 8 33 -7 1 -18 2 -24 3 -5 0
-7 6 -3 13 5 7 3 8 -7 2 -8 -5 -27 -9 -43 -10 -16 -1 -32 -8 -37 -15 -6 -10
-9 -10 -9 -2 0 7 -7 10 -17 6 -11 -4 -14 -3 -9 5 4 7 12 12 18 12 22 0 87 35
88 47 0 14 -38 13 -54 -2z"/>
<path d="M2870 10219 c0 -5 5 -7 10 -4 6 3 10 8 10 11 0 2 -4 4 -10 4 -5 0
-10 -5 -10 -11z"/>
<path d="M4205 10200 c3 -5 8 -10 11 -10 2 0 4 5 4 10 0 6 -5 10 -11 10 -5 0
-7 -4 -4 -10z"/>
<path d="M2926 10134 c-8 -21 16 -40 47 -35 4 0 6 -5 5 -11 -2 -7 5 -12 14
-12 10 1 16 -2 13 -6 -6 -10 36 -42 44 -34 3 3 -3 12 -13 20 -11 8 -16 14 -11
14 5 0 -1 9 -13 20 -12 12 -22 25 -22 31 0 6 -9 8 -19 4 -13 -4 -23 0 -29 11
-8 15 -10 15 -16 -2z"/>
<path d="M4246 9931 c-4 -7 -5 -15 -2 -18 9 -9 19 4 14 18 -4 11 -6 11 -12 0z"/>
<path d="M4275 9929 c-11 -17 -2 -18 25 -4 24 14 24 14 3 15 -12 0 -25 -5 -28
-11z"/>
<path d="M2420 9920 c-13 -8 -12 -10 3 -10 9 0 17 5 17 10 0 12 -1 12 -20 0z"/>
<path d="M2370 9870 c0 -5 7 -7 15 -4 8 4 15 8 15 10 0 2 -7 4 -15 4 -8 0 -15
-4 -15 -10z"/>
<path d="M1780 9671 c0 -7 -4 -9 -10 -6 -5 3 -10 1 -10 -4 0 -6 4 -11 9 -11
13 0 25 20 17 27 -3 4 -6 1 -6 -6z"/>
<path d="M2682 9645 c-12 -14 -22 -29 -22 -35 0 -5 -9 -25 -21 -45 -12 -19
-18 -42 -15 -50 10 -26 45 -17 66 18 10 17 29 43 40 56 15 17 18 27 10 36 -8
9 -6 14 5 19 25 9 17 26 -13 26 -18 0 -37 -9 -50 -25z"/>
<path d="M5768 9663 c7 -3 16 -2 19 1 4 3 -2 6 -13 5 -11 0 -14 -3 -6 -6z"/>
<path d="M2347 9652 c-9 -2 -15 -7 -13 -11 3 -3 -8 -7 -22 -6 -20 0 -28 -5
-30 -22 -3 -20 0 -22 27 -19 37 4 63 -10 42 -23 -8 -5 -21 -7 -30 -4 -13 4
-14 3 -2 -5 20 -14 53 4 49 25 -2 11 7 19 28 25 19 5 34 16 37 28 5 18 1 20
-31 18 -21 -1 -45 -4 -55 -6z"/>
<path d="M1708 9623 c-18 -16 -39 -32 -46 -38 -8 -5 -36 -31 -63 -57 -53 -51
-65 -58 -55 -32 5 14 4 15 -9 4 -9 -7 -14 -19 -11 -26 3 -7 0 -16 -6 -20 -7
-5 -8 -2 -3 6 5 8 3 11 -6 8 -8 -3 -16 -13 -18 -24 -2 -10 -14 -32 -27 -47
-13 -16 -27 -41 -30 -55 -3 -15 -17 -52 -31 -82 -36 -77 -45 -139 -28 -202 7
-29 11 -57 8 -62 -4 -5 -1 -6 6 -2 7 5 23 -3 38 -18 14 -14 41 -35 59 -47 19
-11 34 -24 34 -29 0 -5 10 -12 23 -16 12 -4 24 -10 27 -13 12 -16 79 -51 98
-51 12 0 25 -6 29 -13 13 -21 116 -48 200 -53 83 -4 184 13 190 33 3 9 -30 12
-124 12 -110 1 -139 5 -205 27 -72 24 -95 36 -180 96 -40 28 -108 97 -125 126
-29 48 -7 143 55 246 19 33 35 65 35 72 0 7 4 11 8 8 4 -2 13 5 19 16 6 11 8
20 4 20 -4 0 31 36 77 80 46 44 79 80 75 80 -5 0 -2 8 5 17 12 15 12 16 -8 11
-16 -4 -20 -2 -16 9 3 8 14 13 24 10 11 -3 17 -1 14 3 -3 5 0 10 7 12 9 3 9 6
1 11 -6 4 -26 -5 -45 -20z"/>
<path d="M2546 9631 c-4 -6 -13 -8 -21 -5 -7 3 -18 -3 -24 -15 -15 -28 -14
-31 14 -31 14 0 25 5 25 12 0 9 3 9 11 1 12 -12 49 -6 49 9 0 5 5 6 10 3 6 -3
10 -1 10 4 0 6 7 11 15 11 8 0 15 3 15 8 0 11 -97 14 -104 3z"/>
<path d="M2125 9598 c-16 -5 -44 -16 -62 -24 -17 -8 -34 -14 -38 -14 -4 0 -35
-17 -68 -37 -62 -38 -101 -76 -124 -120 -14 -28 -2 -38 20 -15 8 9 22 22 29
27 23 18 160 97 171 99 7 2 28 9 47 18 33 14 35 13 38 -4 2 -10 7 -16 11 -13
4 2 14 -7 21 -20 7 -14 16 -25 19 -25 8 0 51 67 51 80 0 14 -23 13 -39 -2 -10
-11 -11 -10 -6 5 4 10 2 17 -4 17 -6 0 -11 9 -11 20 0 22 -10 23 -55 8z"/>
<path d="M2251 9594 c0 -11 3 -14 6 -6 3 7 2 16 -1 19 -3 4 -6 -2 -5 -13z"/>
<path d="M2366 9536 c-22 -7 -42 -18 -44 -24 -2 -7 -14 -12 -27 -12 -13 0 -31
-7 -39 -16 -9 -8 -16 -11 -16 -5 0 6 -7 11 -15 11 -18 0 -19 -8 -2 -23 28 -27
93 -10 146 39 13 13 28 21 32 19 4 -3 9 2 13 10 6 17 5 17 -48 1z"/>
<path d="M6272 9518 c6 -18 130 -90 160 -92 14 -1 33 -8 42 -15 8 -7 21 -11
28 -9 8 3 3 10 -12 18 -14 7 -36 23 -50 35 -56 51 -179 97 -168 63z"/>
<path d="M2378 9477 c-7 -8 -21 -13 -31 -11 -9 1 -14 -2 -11 -7 3 -6 -10 -26
-30 -45 -47 -45 -69 -80 -61 -94 9 -14 51 -12 67 4 45 47 85 95 97 118 20 39
-2 64 -31 35z"/>
<path d="M6296 9173 c-12 -13 -6 -33 12 -33 14 0 15 -2 2 -10 -9 -6 -10 -10
-3 -10 16 0 26 17 13 25 -6 4 -8 10 -5 15 7 11 -10 22 -19 13z"/>
<path d="M1876 9141 c-4 -7 -5 -15 -2 -18 9 -9 19 4 14 18 -4 11 -6 11 -12 0z"/>
<path d="M1598 9043 c-49 -12 8 -41 98 -49 35 -3 64 -2 64 2 0 19 -16 29 -45
28 -16 0 -34 3 -40 7 -16 10 -58 17 -77 12z"/>
<path d="M5466 8961 c-7 -11 23 -60 36 -61 3 0 16 -16 28 -35 18 -29 20 -43
14 -78 -4 -23 -8 -69 -8 -102 -1 -33 -5 -65 -8 -71 -14 -21 3 -54 28 -54 38 0
56 48 60 164 3 111 -8 148 -64 206 -30 32 -76 48 -86 31z"/>
<path d="M7159 8912 c-5 -164 -7 -214 -14 -258 -7 -56 6 -78 31 -52 19 19 25
48 29 136 2 49 -1 72 -9 72 -6 0 -5 4 3 9 21 14 3 113 -21 117 -13 2 -18 -5
-19 -24z"/>
<path d="M3375 8130 c3 -5 8 -10 11 -10 2 0 4 5 4 10 0 6 -5 10 -11 10 -5 0
-7 -4 -4 -10z"/>
<path d="M3335 8110 c3 -5 -1 -10 -9 -10 -9 0 -16 -5 -16 -11 0 -6 9 -9 20 -6
11 3 18 1 15 -4 -8 -11 -55 -7 -55 5 0 5 -2 7 -5 4 -10 -10 6 -35 23 -35 20
-1 73 47 66 59 -3 4 -14 8 -25 8 -11 0 -17 -4 -14 -10z"/>
<path d="M3267 8043 c5 -14 1 -15 -31 -10 -25 4 -34 2 -30 -5 5 -8 1 -9 -10
-5 -10 4 -15 3 -11 -3 3 -6 0 -10 -7 -11 -7 0 -4 -4 7 -9 26 -11 44 -12 26 -1
-9 6 3 12 38 21 28 6 54 17 58 23 3 5 1 7 -5 3 -6 -3 -13 -2 -17 4 -10 17 -25
11 -18 -7z"/>
<path d="M6010 7945 c0 -10 10 -15 33 -15 30 1 31 1 13 15 -25 19 -46 19 -46
0z"/>
<path d="M6960 7850 c0 -5 5 -10 10 -10 6 0 10 5 10 10 0 6 -4 10 -10 10 -5 0
-10 -4 -10 -10z"/>
<path d="M3308 7773 c-12 -14 -15 -35 -12 -93 7 -115 10 -127 42 -160 35 -35
48 -37 76 -12 20 16 20 16 6 -2 -13 -17 -13 -18 5 -14 11 2 19 11 19 21 -1 9
2 17 6 17 5 0 9 8 9 18 1 9 2 26 2 37 3 34 -9 119 -20 147 -5 14 -19 29 -30
33 -12 3 -21 11 -21 16 0 16 -66 10 -82 -8z"/>
<path d="M6960 7759 c0 -5 5 -7 10 -4 6 3 10 8 10 11 0 2 -4 4 -10 4 -5 0 -10
-5 -10 -11z"/>
<path d="M6960 7708 c0 -7 5 -20 10 -28 8 -12 10 -11 10 7 0 12 -4 25 -10 28
-5 3 -10 0 -10 -7z"/>
<path d="M5242 7631 c-28 -29 -51 -101 -58 -186 -6 -75 -5 -85 10 -85 8 0 21
9 28 20 17 26 32 26 18 0 -14 -27 13 -39 35 -16 9 9 21 16 26 16 17 0 49 86
54 146 7 81 -8 111 -58 116 -26 2 -45 -1 -55 -11z m-32 -251 c0 -5 -2 -10 -4
-10 -3 0 -8 5 -11 10 -3 6 -1 10 4 10 6 0 11 -4 11 -10z"/>
<path d="M6972 7570 c0 -14 2 -19 5 -12 2 6 2 18 0 25 -3 6 -5 1 -5 -13z"/>
<path d="M4292 7468 c-6 -6 -12 -22 -12 -34 0 -26 36 -74 56 -74 22 0 74 29
74 41 0 6 7 17 15 26 23 23 13 38 -26 39 -19 0 -48 4 -64 7 -20 5 -35 3 -43
-5z"/>
<path d="M4083 6442 c-14 -2 -23 -10 -23 -21 0 -14 11 -20 41 -25 22 -4 44 -4
50 -1 14 9 11 47 -3 42 -7 -2 -20 -1 -28 2 -8 4 -25 5 -37 3z"/>
<path d="M5460 6144 c-43 -44 -152 -108 -164 -96 -4 3 -6 0 -6 -7 0 -7 -4 -10
-9 -7 -5 3 -28 -1 -51 -9 -41 -15 -51 -17 -112 -30 -15 -3 -40 -10 -55 -16
-16 -6 -66 -13 -113 -15 -47 -2 -130 -13 -185 -24 -99 -19 -203 -30 -301 -31
-59 -1 -69 -6 -79 -38 -6 -20 -4 -23 9 -18 9 4 16 2 16 -2 0 -5 17 -13 38 -18
26 -6 36 -14 34 -25 -1 -10 7 -19 18 -23 20 -7 21 -8 4 -26 -19 -21 -20 -20
21 -38 66 -29 170 -44 313 -45 36 -1 62 -5 62 -12 0 -5 6 -19 14 -30 27 -36
34 -16 56 160 5 43 11 80 12 80 13 8 228 88 230 86 2 -2 22 7 46 19 23 12 48
21 55 19 39 -8 237 131 237 167 0 12 -21 25 -38 25 -4 0 -27 -21 -52 -46z
m-564 -340 c3 -19 -3 -20 -79 -22 -45 -1 -89 2 -97 8 -16 10 -5 12 68 13 17 1
32 4 32 8 0 4 13 4 29 -1 25 -7 29 -6 24 7 -4 10 -2 14 7 11 7 -2 15 -13 16
-24z m4 -63 c0 -25 -60 -34 -161 -25 -41 4 -79 7 -86 7 -7 0 -10 4 -7 8 3 5
24 8 47 7 48 -2 179 11 186 18 10 10 21 3 21 -15z"/>
<path d="M3640 5655 c-22 -23 -52 -34 -108 -38 -12 -1 -21 -6 -18 -13 2 -6 -1
-17 -7 -23 -8 -8 -7 -11 4 -11 9 0 24 -9 33 -19 17 -19 17 -20 -4 -31 -12 -6
-28 -9 -36 -6 -8 3 -26 -1 -40 -10 -20 -14 -31 -15 -67 -5 -23 6 -55 9 -72 6
-44 -8 -69 -12 -76 -14 -3 0 -24 -15 -45 -32 -22 -17 -46 -28 -56 -26 -10 3
-21 1 -24 -4 -3 -5 -10 -7 -15 -3 -6 3 -21 -4 -34 -16 -19 -18 -31 -21 -57
-16 -18 4 -52 9 -75 12 -41 5 -43 4 -43 -20 0 -16 6 -26 15 -26 8 0 15 -4 15
-10 0 -5 11 -10 25 -10 14 0 25 -4 25 -10 0 -5 -7 -10 -15 -10 -8 0 -22 -11
-31 -25 -9 -14 -23 -25 -30 -25 -8 0 -32 -12 -54 -26 -35 -24 -44 -25 -67 -15
-20 9 -29 9 -42 -2 -14 -11 -66 -37 -75 -37 -2 0 -7 11 -10 25 -5 20 -11 24
-34 21 -15 -2 -40 -8 -55 -15 -16 -6 -34 -11 -41 -11 -7 0 -16 -3 -20 -7 -4
-5 -24 -13 -44 -18 -29 -8 -38 -17 -44 -43 -5 -17 -12 -32 -16 -32 -15 0 -91
-78 -84 -85 4 -5 2 -6 -3 -2 -17 9 -222 -134 -318 -222 -83 -75 -109 -89 -151
-82 -5 1 -6 -6 -2 -15 4 -12 2 -15 -9 -10 -9 3 -15 0 -15 -9 0 -8 -6 -15 -13
-15 -7 0 -18 -9 -25 -20 -10 -17 -10 -20 2 -20 8 0 17 8 19 18 4 13 5 11 6 -5
1 -26 17 -31 24 -8 4 11 4 10 3 -2 -1 -12 -10 -18 -24 -17 -14 0 -21 -4 -18
-11 2 -7 -11 -29 -29 -50 -29 -32 -32 -40 -22 -57 10 -16 9 -22 -5 -32 -10 -7
-18 -18 -18 -23 0 -5 -12 -15 -26 -21 -17 -9 -24 -18 -20 -30 3 -9 1 -24 -5
-32 -8 -12 -9 -9 -4 10 6 24 5 24 -9 6 -22 -27 -20 -2 2 31 9 15 11 24 5 20
-9 -5 -13 -2 -13 8 0 9 4 14 9 10 5 -3 12 4 16 15 4 11 17 32 31 47 13 14 24
37 24 51 0 25 1 25 15 6 10 -12 13 -14 10 -3 -4 10 3 20 17 27 21 10 21 11 3
11 -17 1 -17 3 -5 11 12 8 11 10 -5 10 -15 0 -33 -20 -63 -70 -23 -39 -42 -75
-42 -80 0 -6 -4 -10 -9 -10 -5 0 -12 -12 -15 -27 -4 -14 -21 -45 -37 -69 -20
-29 -31 -59 -33 -91 -4 -50 -23 -103 -38 -103 -4 0 -8 -5 -8 -11 0 -6 6 -9 13
-6 6 2 18 -2 25 -10 11 -12 10 -13 -12 -7 -18 4 -31 0 -47 -15 -13 -12 -19
-21 -15 -21 4 0 0 -7 -8 -16 -9 -8 -13 -21 -9 -27 4 -6 1 -8 -8 -5 -10 4 -14
-4 -15 -29 0 -19 -6 -38 -12 -42 -7 -4 -8 -12 -2 -21 9 -13 10 -13 10 0 0 13
1 13 10 0 6 -9 5 -17 -1 -21 -6 -3 -11 -10 -12 -15 -1 -5 -6 -8 -11 -6 -5 2
-3 -4 4 -13 26 -31 44 21 26 75 -8 23 -8 23 8 7 24 -23 29 -21 14 6 -17 30
-19 49 -5 44 7 -2 11 -11 9 -20 -1 -8 3 -19 9 -23 7 -4 10 -2 7 7 -3 8 1 22
10 32 10 11 11 17 4 17 -7 0 -12 -5 -12 -11 0 -5 -4 -8 -9 -5 -17 11 -6 49 18
58 20 7 22 6 11 -7 -7 -8 -16 -12 -21 -9 -5 3 -9 1 -9 -4 0 -5 9 -12 20 -15
22 -6 20 -14 -15 -92 -27 -60 -62 -140 -68 -155 -3 -9 -6 -3 -6 13 -1 15 4 27
12 27 9 0 8 3 -2 9 -11 7 -11 9 0 14 10 4 9 6 -3 6 -9 1 -20 -3 -23 -9 -3 -5
-1 -10 5 -10 6 0 9 -4 5 -10 -9 -15 -37 1 -32 19 3 14 -2 16 -27 12 -30 -4
-31 -5 -6 -12 14 -4 21 -7 17 -8 -5 -1 -1 -8 7 -17 9 -8 16 -20 16 -25 0 -13
-18 -11 -23 4 -3 6 -3 -1 -2 -18 2 -16 4 -33 4 -36 1 -4 8 -10 17 -13 13 -5
14 -4 6 7 -7 8 -8 17 -3 23 5 5 11 18 13 29 3 16 5 15 10 -7 3 -15 1 -25 -3
-22 -5 3 -8 -5 -8 -18 1 -13 -4 -36 -12 -53 -7 -16 -13 -34 -14 -40 -5 -47
-42 -106 -60 -98 -8 2 -13 8 -12 11 1 4 -2 7 -8 7 -5 0 -9 -4 -7 -8 1 -5 -3
-5 -9 -1 -6 3 -15 0 -20 -7 -4 -7 -11 -10 -16 -6 -4 5 -2 12 6 16 10 6 9 10
-4 15 -15 5 -17 2 -12 -24 5 -23 -1 -42 -23 -80 -17 -28 -30 -57 -30 -65 0 -8
-5 -17 -11 -21 -16 -9 -4 25 28 82 15 26 27 63 27 83 1 27 5 35 16 32 39 -9
45 -6 43 24 -2 28 -2 28 5 5 6 -18 10 -21 16 -12 6 9 11 10 21 2 14 -11 23 3
31 50 3 17 2 21 -5 11 -6 -9 -11 -10 -15 -2 -10 16 -29 14 -23 -2 3 -8 1 -20
-4 -28 -7 -11 -9 -9 -9 8 0 12 -4 25 -10 28 -6 3 -7 -1 -4 -9 3 -9 1 -16 -5
-16 -6 0 -11 -7 -11 -15 0 -11 -11 -15 -39 -15 -32 0 -40 -4 -45 -22 -5 -22
-6 -23 -21 -3 -9 11 -14 14 -10 8 3 -7 1 -13 -4 -13 -6 0 -11 5 -11 10 0 6 -4
10 -10 10 -5 0 -10 -7 -10 -16 0 -8 -5 -12 -11 -9 -7 5 -5 13 6 25 13 15 15
25 7 53 -6 20 -8 37 -6 40 2 2 -3 4 -11 4 -8 0 -15 -4 -15 -9 0 -4 5 -8 10 -8
6 0 10 -7 10 -15 0 -8 -7 -15 -15 -15 -16 0 -21 -35 -5 -45 5 -3 7 -12 4 -19
-3 -7 1 -18 9 -24 11 -9 12 -24 6 -64 -5 -28 -13 -56 -19 -62 -5 -5 -10 -15
-10 -20 0 -6 5 -4 10 4 17 26 12 -10 -5 -44 -18 -34 -20 -55 -4 -39 6 6 21 50
33 99 21 78 24 84 28 54 3 -19 8 -43 13 -53 5 -13 4 -16 -9 -11 -18 7 -20 0
-7 -25 6 -10 6 -23 0 -32 -7 -11 -9 -8 -9 10 0 13 -3 22 -6 18 -3 -3 -3 -20 1
-37 6 -29 8 -30 21 -13 12 16 12 14 2 -14 -7 -18 -16 -33 -20 -33 -4 0 -5 6
-2 14 7 18 -16 32 -26 16 -11 -18 -39 -5 -49 21 -5 15 -10 18 -15 11 -4 -6 -2
-21 5 -33 9 -17 8 -23 -2 -30 -10 -6 -11 -11 -3 -16 6 -5 11 -23 10 -41 -1
-22 4 -34 15 -37 11 -4 15 -13 12 -26 -5 -16 -8 -18 -15 -7 -7 9 -8 3 -4 -19
3 -19 1 -35 -6 -39 -6 -4 -8 -3 -4 4 3 6 2 13 -3 16 -5 3 -8 21 -6 39 4 38
-18 87 -30 67 -4 -7 -2 -16 5 -20 7 -4 8 -9 3 -11 -6 -2 -13 -44 -17 -92 -4
-59 -3 -86 4 -82 5 3 10 1 10 -4 0 -6 -4 -11 -9 -11 -6 0 -9 -8 -9 -17 1 -15
-45 -134 -92 -238 -41 -92 -70 -171 -66 -182 3 -7 0 -12 -6 -10 -25 5 -178
-452 -164 -489 3 -7 1 -16 -4 -19 -8 -5 -24 -89 -35 -177 -4 -34 -10 -76 -21
-133 -3 -11 -7 -38 -10 -60 -10 -63 -11 -68 -17 -95 -4 -14 -20 -83 -37 -155
-16 -71 -38 -157 -48 -190 -10 -33 -19 -63 -20 -68 0 -4 -6 -32 -13 -63 -8
-37 -9 -58 -3 -62 6 -4 13 -15 17 -24 3 -10 12 -18 18 -18 8 0 8 4 -1 15 -11
13 -8 15 14 15 15 0 29 -6 32 -13 3 -8 11 -14 19 -14 8 0 12 4 10 8 -8 12 70
21 120 14 25 -4 52 -14 60 -22 8 -8 19 -11 25 -8 5 3 10 1 10 -4 0 -12 33 -15
43 -4 9 9 -22 43 -40 43 -7 0 -13 4 -13 9 0 12 -106 41 -132 36 -11 -3 -30 0
-40 6 -18 10 -20 17 -14 72 4 34 14 94 22 132 14 65 24 101 69 245 9 30 19 62
21 70 25 101 145 412 236 610 28 62 103 278 110 317 1 10 -1 19 -6 20 -5 1
-12 7 -16 14 -11 17 -40 3 -40 -20 0 -36 -61 -204 -116 -320 -30 -62 -54 -116
-54 -119 0 -3 -12 -30 -26 -60 -14 -30 -24 -63 -21 -73 3 -10 1 -19 -3 -21
-12 -4 -91 -219 -84 -229 3 -5 0 -9 -5 -9 -6 0 -11 -12 -11 -26 0 -14 -4 -23
-10 -19 -6 4 -8 10 -5 15 2 4 7 25 10 46 4 22 12 71 20 109 7 39 16 93 20 120
8 64 22 128 40 185 8 25 17 56 19 70 6 29 42 136 55 165 5 11 49 114 96 230
98 236 111 265 125 265 6 0 10 7 10 15 0 9 12 20 26 25 14 6 22 15 19 20 -4 6
-11 7 -17 4 -7 -4 -8 -2 -4 5 4 6 12 9 17 6 5 -4 9 -1 9 4 0 6 -4 11 -10 11
-5 0 -10 5 -10 10 0 6 8 10 17 8 14 -2 28 29 75 165 31 92 66 180 77 196 13
18 17 31 11 34 -6 3 -5 4 2 3 8 -2 12 -21 10 -61 -2 -59 6 -75 37 -75 8 0 11
6 7 16 -3 8 -2 12 3 9 11 -6 26 32 22 54 -1 7 2 10 8 7 11 -7 43 24 72 72 12
17 22 32 24 32 2 0 2 -18 2 -40 -1 -22 -5 -40 -8 -40 -4 0 -10 -17 -13 -37 -8
-45 -49 -168 -76 -227 -120 -268 -270 -667 -270 -720 0 -10 -6 -13 -15 -10
-12 5 -15 -3 -17 -32 -1 -46 -3 -54 -13 -77 -4 -9 -5 -26 -2 -37 3 -11 -6 -63
-20 -117 -24 -94 -24 -98 -6 -111 16 -13 16 -14 1 -9 -22 8 -28 -3 -35 -60 -3
-32 -1 -49 9 -55 10 -7 9 -8 -5 -4 -12 4 -17 0 -18 -17 -3 -52 -7 -69 -18 -80
-6 -6 -11 -23 -11 -38 0 -23 3 -26 25 -21 22 4 59 50 54 67 -2 7 11 112 17
140 3 11 12 52 20 90 9 39 16 84 17 100 1 17 5 32 8 35 3 3 16 50 29 105 13
55 29 115 37 132 7 18 12 36 11 40 0 5 2 15 5 23 3 8 22 60 40 115 19 55 44
124 55 153 20 48 20 52 4 53 -14 0 -13 2 4 9 11 4 28 27 38 51 10 24 28 64 39
89 107 243 141 347 167 517 25 160 33 184 93 315 25 53 48 110 52 127 4 19 11
29 18 24 6 -4 8 0 4 10 -3 9 1 31 9 49 14 30 14 30 9 6 -10 -52 3 -28 30 52
24 73 32 100 34 122 1 4 7 5 15 2 8 -3 25 0 38 7 23 13 59 20 91 20 10 0 21 7
24 15 3 7 9 12 13 9 15 -9 32 25 26 51 -10 40 1 60 61 109 36 30 64 45 83 45
34 0 40 7 46 61 4 30 2 39 -7 33 -9 -5 -10 -2 -6 9 3 9 0 18 -9 21 -26 10 -15
34 23 49 42 16 58 8 65 -34 3 -16 7 -8 12 26 12 75 16 85 36 85 10 0 22 5 25
10 3 6 14 10 24 10 9 0 26 8 37 18 10 10 24 19 29 20 48 10 49 13 11 46 l-36
32 46 33 c26 18 44 35 40 38 -6 6 43 53 55 53 4 0 19 10 34 22 34 27 84 34 86
13 3 -28 4 -33 12 -41 4 -5 6 8 4 29 -6 51 13 73 98 112 40 19 82 46 93 60 17
22 30 27 82 30 33 2 58 0 55 -4 -2 -5 4 -11 15 -14 11 -3 20 -1 20 3 0 5 18 9
39 8 51 0 70 11 47 28 -32 23 18 35 168 37 l108 2 26 33 26 34 -50 -7 c-27 -4
-73 -10 -102 -14 -68 -10 -53 9 28 34 30 9 74 28 98 42 37 21 51 24 93 18 27
-4 49 -11 49 -17 0 -5 5 -6 11 -3 5 4 19 -4 31 -17 11 -12 24 -22 29 -20 5 1
9 -2 9 -7 0 -12 116 -72 124 -64 3 3 6 1 6 -5 0 -7 3 -11 8 -11 4 1 9 0 12 -1
3 -1 12 -3 20 -5 8 -2 26 -7 40 -11 14 -3 44 -7 68 -7 23 -1 42 -5 42 -10 0
-5 6 -4 14 2 11 9 15 8 20 -6 6 -15 8 -15 16 -3 6 9 10 10 10 3 0 -6 8 -12 18
-12 9 0 69 -2 132 -4 63 -3 119 -2 124 1 11 6 108 4 186 -5 30 -4 82 -6 115
-5 33 1 75 1 93 2 17 0 32 6 32 12 0 7 4 7 13 0 8 -6 37 -2 92 15 108 33 125
43 125 67 0 28 68 64 133 70 26 3 51 7 55 10 5 3 30 8 56 11 26 4 56 14 66 23
44 41 63 51 80 42 22 -12 52 -6 104 19 35 18 42 19 56 6 20 -18 71 -26 180
-29 97 -2 138 3 119 14 -21 14 -2 42 23 35 73 -22 154 -65 166 -88 14 -29 47
-27 55 3 7 27 -49 68 -123 91 -24 7 -24 7 -2 8 38 2 24 18 -25 31 -27 6 -70
19 -98 27 -59 18 -122 20 -138 4 -20 -20 14 -38 86 -45 9 -1 23 -8 29 -14 9
-9 -6 -12 -65 -12 -42 0 -80 0 -84 0 -5 0 -9 11 -11 24 -2 14 -12 28 -23 31
-11 4 -17 11 -13 16 3 5 9 7 13 5 4 -3 38 5 76 18 l68 23 -35 21 c-29 18 -44
20 -111 16 -59 -4 -85 -1 -110 11 -18 9 -52 18 -77 21 l-45 5 35 -17 35 -17
-34 -7 c-38 -9 -64 -3 -55 12 9 15 -124 4 -139 -11 -7 -7 -12 -17 -12 -23 0
-6 -13 -15 -28 -19 -23 -6 -28 -4 -26 9 3 35 -2 42 -27 42 -22 0 -25 -4 -24
-27 1 -16 2 -44 1 -63 l-1 -35 -20 25 c-17 21 -21 23 -30 10 -7 -11 -10 -11
-10 -2 0 7 -4 11 -9 8 -13 -8 -20 -56 -8 -56 5 0 4 -6 -2 -14 -9 -11 -9 -15 1
-19 10 -3 9 -9 -5 -23 -64 -69 -96 -134 -65 -134 28 0 -69 -40 -159 -65 -83
-24 -113 -28 -198 -25 -252 7 -463 2 -471 -12 -3 -5 -11 -5 -19 2 -10 8 -15 8
-20 -1 -6 -8 -10 -7 -16 2 -7 11 -9 11 -9 -1 0 -11 -2 -12 -8 -2 -5 7 -17 14
-28 16 -10 3 -33 11 -50 20 -24 13 -102 38 -203 67 -8 2 -37 15 -64 29 -51 26
-72 50 -42 50 9 0 31 11 48 24 18 14 44 27 59 30 40 7 50 16 45 37 -3 11 -2
19 2 19 4 0 16 15 26 33 13 25 16 42 10 63 -4 16 -7 41 -6 55 4 50 -97 68
-139 24z m-130 -165 c0 -5 -5 -10 -11 -10 -5 0 -8 -4 -5 -8 2 -4 -4 -13 -14
-20 -29 -18 -38 7 -10 30 25 20 40 23 40 8z m-105 -50 c0 -21 -121 -80 -196
-95 l-63 -13 40 33 c21 19 50 40 64 47 14 7 27 16 30 20 3 4 21 10 40 13 19 3
37 8 39 11 11 10 46 -2 46 -16z m1755 -59 c0 -5 -11 -11 -25 -13 -28 -6 -35 8
-7 15 28 8 32 7 32 -2z m-2024 -76 c-16 -9 -32 -13 -35 -10 -8 9 21 25 44 25
16 0 14 -3 -9 -15z m-122 -96 c-7 -12 -94 -12 -94 0 0 14 16 17 61 13 21 -2
36 -8 33 -13z m-344 -65 c0 -9 -41 -44 -50 -44 -5 0 -11 7 -14 16 -8 22 -8 26
4 19 5 -3 18 -1 27 4 21 12 33 14 33 5z m-175 -71 c-5 -10 -8 -26 -9 -35 0
-11 -4 -14 -12 -8 -6 6 -14 7 -17 3 -12 -11 -8 16 5 37 16 25 43 27 33 3z
m-102 -88 c-10 -7 -22 -10 -28 -7 -6 4 -3 8 6 10 10 2 20 13 24 25 6 20 8 20
12 4 3 -11 -3 -24 -14 -32z m-234 -167 c-2 -2 -17 -14 -34 -28 -16 -14 -24
-17 -16 -8 7 9 10 22 6 28 -4 6 5 10 21 10 15 0 25 -1 23 -2z m-85 -84 c3 -8
2 -12 -4 -9 -6 3 -10 10 -10 16 0 14 7 11 14 -7z m-194 -51 c0 -4 -5 -21 -12
-39 -10 -28 -9 -36 5 -52 15 -16 15 -21 4 -30 -8 -7 -16 -10 -18 -7 -3 2 -13
-16 -23 -40 -11 -24 -23 -42 -27 -39 -5 3 -6 -1 -4 -9 6 -14 -38 -124 -92
-232 -17 -33 -40 -91 -51 -130 -29 -94 -34 -100 -61 -83 -24 14 -24 39 -1 45
13 4 13 3 0 -6 -11 -8 -12 -13 -3 -22 17 -17 35 -1 28 24 -5 18 -4 19 5 7 9
-13 11 -12 9 5 -1 11 8 40 19 65 12 25 22 55 22 67 0 12 5 25 10 28 6 4 10 14
9 23 -3 32 1 41 14 36 10 -3 13 4 12 25 -1 16 1 30 4 29 22 -2 31 5 31 25 0
13 6 29 13 36 10 10 9 11 -4 6 -10 -4 -20 -2 -24 4 -3 6 0 9 8 5 8 -3 18 0 22
7 7 10 9 22 14 67 0 7 6 10 13 6 6 -4 8 -3 5 3 -4 5 4 19 16 30 18 15 24 32
26 71 1 37 -2 52 -11 52 -8 1 -5 6 6 15 21 16 36 19 36 8z m-50 -93 c0 -5 -4
-10 -10 -10 -5 0 -10 5 -10 10 0 6 5 10 10 10 6 0 10 -4 10 -10z m-25 -40 c-3
-5 -11 -10 -16 -10 -6 0 -7 5 -4 10 3 6 11 10 16 10 6 0 7 -4 4 -10z m-95 -20
c-6 -11 -13 -20 -16 -20 -2 0 0 9 6 20 6 11 13 20 16 20 2 0 0 -9 -6 -20z m69
-27 c0 -27 0 -28 -10 -5 -5 14 -13 20 -20 16 -8 -4 -9 -3 -5 4 14 23 36 13 35
-15z m-153 -138 c-3 -8 0 -14 6 -12 7 1 14 -7 16 -17 3 -14 0 -17 -12 -13 -18
7 -22 -8 -6 -18 8 -5 8 -11 0 -20 -8 -9 -8 -14 0 -17 19 -6 -1 -40 -21 -35
-11 3 -20 -1 -22 -12 -3 -11 -5 -9 -6 7 0 12 2 22 7 22 4 0 8 16 8 35 1 23 -2
32 -10 28 -6 -4 -4 4 5 17 8 14 19 31 23 38 10 17 19 15 12 -3z m76 -47 c-8
-8 -9 -4 -5 13 4 13 8 18 11 10 2 -7 -1 -18 -6 -23z m-25 -44 c-3 -3 -12 -4
-19 -1 -8 3 -5 6 6 6 11 1 17 -2 13 -5z m-83 -77 c4 4 4 -1 0 -10 -3 -10 -7
-17 -8 -15 -1 2 -8 12 -16 23 -14 18 -13 19 1 8 9 -7 19 -10 23 -6z m26 -45
c0 -15 -2 -15 -10 -2 -7 10 -10 11 -11 3 -3 -28 -4 -32 -11 -39 -13 -12 -9 25
4 45 14 22 28 18 28 -7z m-75 -32 c4 -6 10 -8 14 -6 4 3 8 -1 8 -9 0 -19 -2
-19 -22 1 -12 13 -19 14 -28 5 -6 -6 -15 -11 -21 -11 -11 0 25 29 36 30 4 0
10 -5 13 -10z m15 -70 c0 -5 -2 -10 -4 -10 -3 0 -8 5 -11 10 -3 6 -1 10 4 10
6 0 11 -4 11 -10z m-220 -390 c0 -5 -4 -10 -10 -10 -5 0 -10 5 -10 10 0 6 5
10 10 10 6 0 10 -4 10 -10z m-180 -76 c0 -14 -3 -14 -15 -4 -8 7 -15 14 -15
16 0 2 7 4 15 4 8 0 15 -7 15 -16z m15 -43 c3 -5 1 -12 -5 -16 -5 -3 -10 1
-10 9 0 18 6 21 15 7z m29 -6 c-4 -8 -8 -15 -10 -15 -2 0 -4 7 -4 15 0 8 4 15
10 15 5 0 7 -7 4 -15z m85 -63 c-6 -18 -15 -32 -20 -32 -12 0 -12 2 7 39 20
40 28 35 13 -7z m-171 -169 c-12 -15 -32 -18 -23 -4 3 5 -5 12 -17 14 -13 2
-7 4 14 3 28 -1 34 -4 26 -13z m-38 -7 c0 -3 -4 -8 -10 -11 -5 -3 -10 -1 -10
4 0 6 5 11 10 11 6 0 10 -2 10 -4z m18 -36 c-13 -20 -28 -27 -28 -12 0 10 22
32 32 32 5 0 3 -9 -4 -20z m59 -46 c-6 -20 -13 -32 -14 -27 -4 11 14 63 21 63
2 0 -1 -16 -7 -36z m-140 -36 c-2 -13 -4 -5 -4 17 -1 22 1 32 4 23 2 -10 2
-28 0 -40z m9 -74 c-4 -14 -9 -24 -12 -21 -3 2 -2 17 2 31 3 15 9 25 11 22 3
-3 2 -17 -1 -32z m94 -4 c0 -5 -4 -10 -10 -10 -5 0 -10 5 -10 10 0 6 5 10 10
10 6 0 10 -4 10 -10z m-27 -40 c-3 -12 -8 -19 -11 -16 -5 6 5 36 12 36 2 0 2
-9 -1 -20z m-132 -1283 c-10 -9 -11 -8 -5 6 3 10 9 15 12 12 3 -3 0 -11 -7
-18z m-314 -129 c-3 -8 -6 -5 -6 6 -1 11 2 17 5 13 3 -3 4 -12 1 -19z m-103
-471 c-1 -12 -3 -30 -3 -39 -1 -11 -9 -18 -22 -18 -16 0 -19 4 -14 18 4 9 8
22 10 27 14 48 18 56 25 46 3 -7 5 -22 4 -34z"/>
<path d="M1855 4670 c-3 -5 -1 -10 4 -10 6 0 11 5 11 10 0 6 -2 10 -4 10 -3 0
-8 -4 -11 -10z"/>
<path d="M1855 4570 c3 -5 8 -10 11 -10 2 0 4 5 4 10 0 6 -5 10 -11 10 -5 0
-7 -4 -4 -10z"/>
<path d="M1705 4270 c3 -5 8 -10 11 -10 2 0 4 5 4 10 0 6 -5 10 -11 10 -5 0
-7 -4 -4 -10z"/>
<path d="M6550 5584 c-25 -7 -58 -16 -75 -20 -38 -7 -84 -36 -67 -42 7 -2 -21
-35 -65 -75 -100 -92 -249 -245 -271 -277 -9 -14 -24 -31 -34 -37 -9 -7 -27
-30 -39 -50 -13 -21 -26 -40 -29 -43 -18 -15 -100 -153 -95 -161 4 -5 2 -9 -3
-9 -7 0 -40 -65 -62 -125 -17 -46 -32 -113 -33 -147 -1 -21 -5 -38 -9 -38 -4
0 -7 -8 -7 -17 0 -35 -17 -195 -25 -238 -3 -11 -5 -46 -5 -78 -1 -35 -5 -56
-11 -52 -5 3 -8 33 -7 66 3 73 -12 104 -38 78 -13 -13 -17 -43 -19 -150 -2
-74 -6 -152 -10 -174 -3 -22 -8 -56 -11 -75 -3 -19 -8 -59 -11 -87 -5 -49 -4
-53 15 -53 26 0 41 28 47 93 8 75 15 88 26 47 11 -40 12 -75 4 -138 -4 -41 4
-116 20 -171 6 -19 4 -23 -8 -19 -8 4 -19 3 -24 0 -8 -6 -42 -181 -48 -247 -1
-11 -8 -33 -14 -50 -7 -16 -12 -33 -12 -37 -1 -13 -99 -168 -132 -208 -18 -22
-38 -40 -43 -40 -6 0 -19 -17 -30 -37 -11 -21 -29 -51 -41 -68 -35 -50 -81
-176 -89 -245 -18 -145 -3 -320 28 -320 5 0 7 -7 3 -15 -3 -8 0 -20 7 -27 26
-27 69 -88 62 -88 -4 0 -2 -7 5 -15 7 -8 9 -15 5 -15 -4 0 -1 -8 6 -17 8 -9 9
-14 3 -10 -9 5 -9 -3 -2 -32 11 -43 98 -155 147 -190 53 -38 39 6 -22 69 -33
34 -63 79 -80 118 -15 35 -27 65 -27 67 0 3 21 -9 46 -25 42 -26 74 -30 74 -9
0 4 -9 14 -20 22 -11 8 -17 17 -14 20 3 3 -10 13 -30 21 -20 8 -36 22 -36 30
0 8 -5 16 -10 18 -6 2 -13 17 -15 33 -2 17 -4 32 -5 35 -2 3 -1 10 0 15 2 6 4
60 6 120 3 102 7 143 18 203 9 43 -29 16 -41 -29 -6 -25 -13 -155 -13 -266 0
-35 -2 -63 -4 -63 -3 0 -14 26 -26 57 -17 46 -21 79 -21 163 1 98 3 111 37
190 19 47 38 92 41 100 31 89 79 159 108 160 6 0 3 -4 -5 -10 -8 -5 -11 -12
-7 -16 4 -5 22 10 40 32 96 118 157 181 190 197 20 9 37 21 37 26 0 6 18 20
40 32 22 13 39 27 38 33 -1 6 4 22 11 36 9 15 10 25 4 27 -14 5 6 74 25 88 17
13 6 44 -17 47 -46 4 -71 17 -64 34 3 7 -2 17 -11 20 -13 5 -14 9 -5 20 7 9 8
14 1 14 -6 0 -9 11 -7 25 1 14 -3 25 -9 25 -8 0 -8 2 0 8 7 4 10 20 7 37 -3
17 -5 42 -5 58 0 15 -3 27 -7 27 -10 0 -11 317 -1 400 5 41 11 95 14 120 3 25
8 72 11 105 3 33 10 85 15 115 5 30 12 71 14 90 18 139 102 319 222 478 136
180 410 437 504 474 55 21 180 33 180 16 0 -4 6 -8 13 -8 24 0 147 -131 147
-156 0 -4 11 -22 25 -39 14 -20 23 -42 20 -55 -2 -12 0 -29 5 -38 10 -20 23
-54 24 -65 1 -4 6 -11 11 -15 14 -10 16 -36 19 -211 3 -164 -8 -249 -46 -361
-12 -36 -23 -67 -23 -70 -1 -3 -5 -12 -8 -20 -4 -8 -9 -31 -12 -50 -12 -87
-24 -193 -23 -198 1 -4 -2 -23 -5 -42 -4 -19 -9 -46 -12 -60 -2 -14 -11 -50
-19 -80 -8 -30 -22 -94 -32 -142 -9 -49 -20 -88 -25 -88 -14 0 -23 -91 -10
-99 6 -4 13 -18 16 -31 2 -12 7 -25 10 -28 10 -10 55 -11 55 -1 0 6 4 8 9 5 5
-3 27 14 49 38 43 46 63 111 77 246 7 67 69 322 90 373 l12 29 7 -32 c3 -20
-2 -67 -14 -119 -30 -128 -31 -131 -25 -131 15 0 46 41 69 90 14 30 26 49 26
43 0 -7 5 -13 11 -13 7 0 9 14 4 43 -13 88 -10 152 12 203 12 27 29 90 39 139
17 91 49 170 78 194 26 22 117 171 111 181 -4 6 1 17 9 26 19 18 21 50 5 60
-6 3 -15 0 -20 -7 -6 -10 -9 -11 -9 -1 0 6 -5 12 -10 12 -6 0 -8 -11 -6 -24 2
-14 0 -26 -5 -28 -6 -2 -32 -39 -59 -83 -41 -67 -46 -82 -34 -91 21 -17 17
-26 -5 -12 -17 10 -23 8 -40 -13 -11 -13 -18 -30 -16 -36 2 -7 -1 -12 -8 -10
-21 4 -172 -314 -211 -445 -13 -46 -26 -92 -28 -102 -2 -14 -12 -19 -33 -20
-27 -1 -30 2 -28 24 5 46 11 65 20 63 5 -1 10 5 10 13 0 8 -4 14 -9 14 -5 0
-5 8 0 18 5 9 8 27 7 40 -1 12 2 22 7 22 5 0 7 4 4 9 -6 8 25 106 37 118 4 3
7 16 7 28 0 12 3 25 7 29 4 3 8 13 9 21 1 8 9 28 18 46 9 17 13 35 10 40 -3 5
0 9 6 9 7 0 9 8 5 20 -3 11 -2 20 3 20 6 0 11 26 11 58 1 31 3 102 4 157 3 87
-2 124 -27 230 -4 15 -23 60 -46 107 -11 23 -20 45 -20 50 0 4 -14 27 -30 50
-17 24 -41 59 -55 79 -26 40 -82 87 -134 114 -46 23 -162 28 -221 9z m421
-1438 c-6 -14 -12 -26 -14 -26 -8 0 -2 46 7 52 16 11 18 3 7 -26z m-38 -223
c-16 -101 -30 -136 -57 -141 -15 -3 -17 0 -11 14 4 11 12 53 18 94 10 67 35
120 57 120 4 0 0 -39 -7 -87z m-1196 -445 c-3 -8 -6 -5 -6 6 -1 11 2 17 5 13
3 -3 4 -12 1 -19z m113 -67 c0 -21 -80 -111 -98 -111 -16 0 1 32 54 98 29 36
44 41 44 13z"/>
<path d="M6647 5421 c-4 -15 4 -24 32 -36 105 -48 156 -85 162 -120 3 -11 13
-21 23 -23 14 -3 17 0 12 13 -4 13 -2 16 9 11 12 -4 14 0 9 22 -9 38 -18 47
-80 81 -40 23 -149 71 -160 71 -1 0 -4 -9 -7 -19z"/>
<path d="M7779 5333 c-30 -5 -83 -48 -75 -61 3 -5 -6 -7 -21 -4 -23 4 -25 2
-20 -17 3 -11 1 -18 -4 -15 -12 7 -86 -70 -86 -90 0 -21 10 -20 31 3 10 11 14
26 10 37 -4 13 -3 15 3 6 8 -10 28 -1 89 41 77 52 81 53 144 51 36 -1 70 -2
77 -3 36 -4 134 -126 149 -186 3 -14 11 -25 16 -25 6 0 8 -6 5 -13 -3 -8 1
-40 9 -73 22 -91 16 -221 -16 -379 -6 -28 -12 -64 -14 -80 -13 -98 -195 -474
-329 -677 -63 -95 -83 -132 -92 -168 -1 -3 -7 -18 -14 -35 -29 -69 -34 -81
-36 -102 -2 -11 -6 -30 -9 -41 -5 -15 -1 -22 14 -27 11 -3 20 -13 20 -21 0 -8
5 -14 10 -14 14 0 13 13 -2 28 -9 9 -9 15 -1 23 6 6 9 19 6 28 -4 9 -2 12 2 8
5 -4 18 18 30 50 15 44 25 58 40 59 38 1 72 22 79 49 9 36 2 41 -28 21 -14 -9
-28 -16 -30 -16 -8 0 23 54 88 150 91 137 270 508 301 623 66 244 68 497 8
636 -8 18 -16 39 -17 47 -1 7 -10 21 -19 32 -9 10 -17 22 -17 26 0 14 -67 79
-106 102 -41 24 -131 36 -195 27z"/>
<path d="M3539 5223 c-11 -13 -10 -17 6 -29 10 -8 23 -14 27 -14 5 0 22 -16
39 -35 17 -19 35 -35 40 -35 4 0 20 -11 35 -25 33 -31 35 -31 66 0 22 22 29
23 59 14 19 -5 50 -12 69 -15 19 -3 44 -7 55 -8 11 -2 33 -8 48 -15 20 -8 34
-8 48 -1 11 6 24 8 29 5 6 -3 10 -1 10 4 0 6 -7 11 -15 11 -8 0 -20 9 -27 20
-15 24 -26 25 -49 4 -17 -15 -25 -15 -101 5 -129 35 -188 54 -188 61 0 7 -66
42 -112 59 -21 8 -29 7 -39 -6z"/>
<path d="M5423 5186 c-11 -13 -6 -15 27 -14 36 0 67 13 37 16 -7 0 -21 3 -32
6 -11 3 -25 0 -32 -8z"/>
<path d="M3780 5181 l-25 -7 22 -8 c24 -8 43 -1 43 15 0 10 -4 10 -40 0z"/>
<path d="M5455 5143 c-49 -8 -105 -26 -105 -34 0 -9 158 -1 245 11 6 1 -8 8
-29 16 -36 13 -61 15 -111 7z"/>
<path d="M7550 5099 c0 -5 5 -7 10 -4 6 3 10 8 10 11 0 2 -4 4 -10 4 -5 0 -10
-5 -10 -11z"/>
<path d="M3395 5080 c-11 -18 4 -27 102 -65 54 -20 106 -41 116 -46 10 -5 22
-7 27 -4 6 4 10 1 10 -4 0 -6 4 -11 9 -11 5 0 22 -5 38 -12 15 -6 34 -10 41
-9 6 1 12 -2 12 -8 0 -5 14 -12 30 -16 17 -4 30 -11 30 -17 0 -6 3 -9 6 -5 6
6 70 -14 106 -33 11 -6 18 -4 22 7 4 9 5 17 4 17 -87 46 -108 56 -108 49 0 -4
-4 -3 -8 3 -7 9 -104 50 -110 45 -1 -1 -15 5 -30 12 -50 26 -106 49 -192 78
-96 33 -97 33 -105 19z"/>
<path d="M3750 5069 c-8 -5 -13 -9 -10 -10 3 0 13 -2 23 -4 9 -2 17 1 17 5 0
15 -15 19 -30 9z"/>
<path d="M2855 5010 c-3 -5 -2 -10 4 -10 5 0 13 5 16 10 3 6 2 10 -4 10 -5 0
-13 -4 -16 -10z"/>
<path d="M4610 4891 c0 -11 -3 -12 -8 -4 -9 14 -61 10 -94 -8 -13 -7 -25 -11
-28 -10 -6 3 -69 -10 -97 -19 -17 -5 -29 -7 -55 -8 -22 -2 -28 -7 -28 -25 0
-20 5 -23 33 -22 63 4 142 18 155 28 6 5 12 7 12 4 0 -4 18 0 41 8 23 8 45 12
50 9 5 -3 9 -2 9 3 0 4 14 9 32 10 17 1 35 7 38 14 4 6 11 10 16 9 5 -1 10 4
13 11 2 7 -1 9 -8 5 -6 -4 -11 -3 -11 1 0 5 -16 8 -35 9 -25 0 -35 -4 -35 -15z"/>
<path d="M2592 4801 c-29 -18 -34 -105 -6 -94 8 3 14 16 14 29 0 50 27 19 36
-41 2 -11 5 -35 8 -53 3 -18 7 -36 10 -41 3 -5 -1 -23 -10 -40 -18 -35 -13
-64 10 -55 14 5 24 -22 25 -71 3 -122 -1 -470 -5 -477 -3 -5 2 -16 12 -24 14
-10 15 -13 3 -9 -13 5 -16 -5 -15 -70 1 -41 -1 -75 -4 -75 -3 0 -6 -28 -6 -63
-2 -71 -13 -280 -15 -287 -6 -21 -1 -37 16 -48 15 -10 16 -12 3 -8 -10 3 -19
2 -22 -2 -5 -8 -17 -116 -21 -178 -1 -23 -6 -47 -10 -54 -4 -7 -9 -23 -11 -34
-1 -12 -11 -53 -22 -93 -11 -39 -18 -74 -14 -77 3 -3 1 -6 -5 -6 -6 0 -14 -12
-17 -26 -7 -26 -50 -116 -125 -259 -22 -44 -39 -86 -36 -92 2 -7 0 -13 -5 -13
-6 0 -10 5 -10 11 0 5 -4 8 -9 5 -5 -4 -8 -14 -6 -24 2 -9 4 -22 4 -27 1 -10
10 -13 71 -16 26 -2 29 -6 28 -36 -1 -18 -10 -40 -20 -49 -10 -10 -18 -24 -18
-32 0 -12 -3 -12 -14 3 -14 19 -15 19 -34 1 -25 -22 -42 -14 -42 22 0 36 -9
46 -42 50 -27 3 -28 2 -28 -41 0 -31 7 -53 22 -73 34 -43 42 -51 66 -58 29
-10 36 -43 27 -124 -5 -37 -9 -82 -9 -99 -1 -18 -5 -33 -9 -33 -5 0 -5 -5 -2
-10 3 -6 -1 -17 -9 -26 -9 -8 -17 -25 -17 -37 -4 -73 -9 -130 -15 -188 -6 -61
-5 -66 14 -72 25 -6 26 -1 46 169 1 11 6 25 10 32 4 7 5 12 2 12 -2 0 0 15 5
33 20 71 41 216 40 289 -1 68 1 77 19 83 27 8 58 55 55 83 -1 13 2 25 6 27 4
3 5 24 3 48 -4 39 -25 69 -55 79 -9 3 25 92 41 108 3 3 21 39 39 80 49 108 58
132 65 160 4 14 14 50 22 80 8 30 13 63 10 72 -2 10 1 18 7 18 6 0 8 3 4 6 -3
3 -2 16 2 28 5 11 12 52 16 91 4 38 8 72 10 75 2 3 7 46 10 95 3 50 8 108 11
130 2 22 7 112 10 200 3 88 7 178 8 200 2 25 -3 47 -12 58 -14 16 -14 17 0 12
14 -6 16 10 18 127 2 73 2 160 2 193 -1 181 -38 440 -65 460 -13 9 -14 14 -5
23 9 9 8 12 -5 12 -10 0 -14 5 -11 14 6 15 -27 28 -44 17z m78 -1451 c0 -5 -2
-10 -4 -10 -3 0 -8 5 -11 10 -3 6 -1 10 4 10 6 0 11 -4 11 -10z m-270 -991 c0
-6 -4 -7 -10 -4 -5 3 -10 11 -10 16 0 6 5 7 10 4 6 -3 10 -11 10 -16z"/>
<path d="M6352 4473 c-26 -29 -46 -94 -67 -218 -9 -49 -31 -155 -51 -235 -43
-177 -44 -179 -51 -312 -5 -93 -3 -108 10 -108 8 0 17 -5 19 -12 3 -7 12 -9
22 -5 15 6 16 10 6 22 -9 11 -11 41 -6 111 3 53 8 99 10 103 9 14 55 234 51
241 -3 5 -1 10 5 12 6 2 12 17 14 33 8 59 38 220 43 235 4 8 7 17 8 20 1 3 7
18 13 33 7 16 12 32 12 37 0 5 4 12 10 15 11 7 39 -56 46 -105 11 -77 7 -297
-5 -348 -7 -29 -11 -56 -7 -59 3 -3 2 -11 -3 -17 -4 -6 -12 -31 -16 -56 -10
-62 -16 -158 -9 -142 3 6 10 10 14 7 5 -3 13 11 19 32 34 133 39 158 29 164
-5 4 -3 9 6 12 9 4 15 10 14 14 -4 20 15 143 23 143 5 0 9 5 9 11 0 5 -4 7
-10 4 -5 -3 -10 -1 -10 4 0 6 6 11 13 11 8 0 7 4 -3 10 -8 5 -10 10 -4 10 6 0
11 7 11 15 0 8 -5 15 -10 15 -5 0 -4 7 3 15 7 8 9 15 4 15 -5 0 -9 15 -10 33
-3 95 -29 211 -46 201 -4 -3 -5 1 -3 8 8 21 -18 49 -50 53 -23 2 -36 -3 -53
-22z"/>
<path d="M6944 4248 c-10 -12 -13 -18 -5 -13 11 6 13 4 8 -9 -5 -12 -3 -16 5
-14 10 4 21 58 13 58 -1 0 -10 -10 -21 -22z"/>
<path d="M2119 4093 c-1 -4 -3 -54 -5 -110 -3 -81 -23 -242 -38 -308 -1 -5 -6
-26 -10 -45 -10 -50 -27 -90 -37 -90 -5 0 -6 -7 -3 -15 4 -8 3 -23 -2 -32 -4
-10 -8 -20 -9 -23 0 -3 -7 -30 -14 -60 -8 -30 -25 -80 -39 -110 -14 -30 -26
-59 -26 -65 -1 -5 -4 -12 -8 -15 -20 -15 -36 -81 -34 -140 4 -108 19 -170 42
-170 11 0 13 10 9 48 -11 99 -12 152 -3 152 5 0 7 4 4 9 -4 5 -1 11 4 13 6 2
12 16 13 32 4 46 26 44 25 -1 -2 -48 11 -183 23 -246 11 -63 12 -212 1 -258
-5 -20 -10 -76 -11 -124 -1 -49 -4 -92 -6 -96 -7 -10 23 -32 34 -25 5 4 12 -3
16 -14 4 -11 17 -28 30 -36 22 -15 26 -15 41 1 20 19 33 79 34 152 0 61 -7 84
-25 77 -14 -6 -14 42 0 144 5 31 3 44 -8 48 -7 2 -14 12 -14 21 0 14 2 14 12
-1 14 -19 29 -21 22 -3 -2 6 2 20 11 30 11 12 12 17 2 17 -9 0 -9 4 -2 13 5 6
8 22 6 34 -2 12 3 23 12 27 13 5 14 9 4 21 -7 9 -8 15 -2 15 5 0 12 15 15 33
7 49 16 83 32 131 27 78 76 300 72 318 -3 10 0 18 5 18 6 0 5 6 -2 15 -9 11
-9 15 -1 15 7 0 5 9 -5 25 -22 33 -39 19 -48 -38 -9 -63 -26 -134 -49 -207
-11 -36 -21 -75 -22 -86 -2 -12 -12 -41 -22 -65 -11 -24 -30 -81 -43 -126 -13
-46 -27 -83 -30 -83 -7 0 -15 66 -25 200 -6 69 -14 140 -19 163 -2 9 0 17 5
17 4 0 6 6 3 14 -3 8 7 53 21 102 15 48 28 92 30 98 1 6 4 18 7 26 31 88 62
235 55 261 -3 10 -2 21 2 23 4 3 7 67 7 143 -1 123 -3 138 -18 141 -10 2 -19
0 -19 -5z m-17 -1644 c2 -15 10 -35 18 -45 12 -16 12 -17 0 -6 -17 14 -34 16
-25 2 3 -5 -1 -10 -9 -10 -11 0 -16 10 -16 34 0 66 24 85 32 25z"/>
<path d="M6513 4051 c0 -11 5 -18 9 -15 4 3 5 11 1 19 -7 21 -12 19 -10 -4z"/>
<path d="M1360 4039 c0 -5 5 -7 10 -4 6 3 10 8 10 11 0 2 -4 4 -10 4 -5 0 -10
-5 -10 -11z"/>
<path d="M1420 4040 c0 -5 5 -10 11 -10 5 0 7 5 4 10 -3 6 -8 10 -11 10 -2 0
-4 -4 -4 -10z"/>
<path d="M1314 3976 c13 -11 15 -16 6 -16 -7 0 -11 -2 -8 -5 9 -9 36 6 43 23
5 13 4 14 -6 5 -9 -9 -18 -9 -33 -2 -20 10 -20 10 -2 -5z"/>
<path d="M1390 3960 c0 -5 5 -10 10 -10 6 0 10 5 10 10 0 6 -4 10 -10 10 -5 0
-10 -4 -10 -10z"/>
<path d="M6504 3923 c2 -18 -1 -34 -6 -37 -4 -2 -3 -3 3 -2 15 3 19 40 7 58
-5 8 -6 0 -4 -19z"/>
<path d="M1188 3933 c7 -3 16 -2 19 1 4 3 -2 6 -13 5 -11 0 -14 -3 -6 -6z"/>
<path d="M1693 3925 c0 -8 6 -16 14 -19 11 -4 11 -1 3 14 -13 24 -17 25 -17 5z"/>
<path d="M1159 3928 c-4 -15 -6 -50 -2 -40 3 9 9 10 17 3 8 -7 12 -5 12 8 0
12 -5 17 -15 13 -9 -3 -12 -1 -7 6 4 7 5 12 2 12 -3 0 -6 -1 -7 -2z"/>
<path d="M1390 3920 c0 -5 5 -10 10 -10 6 0 10 5 10 10 0 6 -4 10 -10 10 -5 0
-10 -4 -10 -10z"/>
<path d="M1208 3903 c7 -3 16 -2 19 1 4 3 -2 6 -13 5 -11 0 -14 -3 -6 -6z"/>
<path d="M1680 3896 c0 -2 7 -7 16 -10 8 -3 12 -2 9 4 -6 10 -25 14 -25 6z"/>
<path d="M1228 3883 c7 -3 16 -2 19 1 4 3 -2 6 -13 5 -11 0 -14 -3 -6 -6z"/>
<path d="M1685 3860 c3 -5 1 -10 -4 -10 -6 0 -11 -5 -11 -10 0 -7 7 -7 20 0
20 11 19 30 -1 30 -6 0 -7 -4 -4 -10z"/>
<path d="M1090 3826 c0 -2 7 -7 16 -10 8 -3 12 -2 9 4 -6 10 -25 14 -25 6z"/>
<path d="M1668 3813 c7 -3 16 -2 19 1 4 3 -2 6 -13 5 -11 0 -14 -3 -6 -6z"/>
<path d="M1658 3781 c-16 -18 -15 -20 1 -18 9 0 17 9 17 19 0 10 -1 18 -1 18
0 0 -8 -9 -17 -19z"/>
<path d="M1060 3780 c-13 -8 -12 -10 3 -10 9 0 17 5 17 10 0 12 -1 12 -20 0z"/>
<path d="M1272 3770 c0 -14 2 -19 5 -12 2 6 2 18 0 25 -3 6 -5 1 -5 -13z"/>
<path d="M1096 3772 c-2 -4 -1 -14 4 -22 7 -11 9 -9 7 8 -1 24 -3 26 -11 14z"/>
<path d="M1308 3773 c-28 -7 -21 -21 14 -28 27 -6 29 -9 14 -17 -10 -6 -26 -8
-37 -5 -10 3 -19 1 -19 -4 0 -5 3 -9 8 -10 4 0 19 -2 34 -4 15 -2 31 1 34 7 4
6 10 5 15 -3 7 -10 8 -6 5 11 -10 58 -20 66 -68 53z"/>
<path d="M5977 3773 c-10 -10 -8 -53 2 -53 5 0 9 14 9 30 -1 33 -1 33 -11 23z"/>
<path d="M1636 3725 c4 -8 11 -15 16 -15 6 0 5 6 -2 15 -7 8 -14 15 -16 15 -2
0 -1 -7 2 -15z"/>
<path d="M1045 3722 c-10 -7 -15 -26 -18 -64 -1 -10 -4 -18 -7 -18 -3 0 -6
-11 -6 -24 -1 -16 3 -23 11 -20 16 7 26 42 14 50 -5 3 -4 15 3 27 10 17 20 58
14 57 0 0 -5 -4 -11 -8z"/>
<path d="M5971 3688 c0 -7 4 -22 9 -33 8 -18 9 -17 9 7 1 15 -3 30 -9 33 -5 3
-10 0 -9 -7z"/>
<path d="M1310 3616 c0 -9 5 -16 10 -16 6 0 10 4 10 9 0 6 -4 13 -10 16 -5 3
-10 -1 -10 -9z"/>
<path d="M1020 3580 c-13 -8 -12 -10 3 -10 9 0 17 5 17 10 0 12 -1 12 -20 0z"/>
<path d="M1010 3550 c0 -5 7 -7 15 -4 8 4 15 8 15 10 0 2 -7 4 -15 4 -8 0 -15
-4 -15 -10z"/>
<path d="M1065 3540 c3 -5 8 -10 11 -10 2 0 4 5 4 10 0 6 -5 10 -11 10 -5 0
-7 -4 -4 -10z"/>
<path d="M7715 3530 c-3 -5 -3 -14 0 -20 3 -5 1 -10 -5 -10 -7 0 -10 -6 -7
-13 7 -19 -9 -42 -30 -42 -10 0 -19 -8 -21 -19 -3 -11 0 -16 7 -12 6 4 13 -4
17 -19 3 -14 10 -25 16 -25 5 0 6 -4 3 -10 -3 -5 -1 -10 4 -10 6 0 11 -8 11
-19 0 -10 7 -24 15 -31 9 -7 13 -15 10 -18 -2 -3 -29 18 -59 46 -61 58 -148
103 -228 119 -42 8 -35 -19 11 -39 20 -10 43 -18 49 -18 7 0 12 -3 12 -7 0 -5
15 -24 33 -44 54 -62 67 -79 67 -89 0 -5 14 -25 31 -45 17 -19 28 -35 24 -35
-4 0 4 -15 19 -34 14 -19 26 -37 26 -40 0 -3 19 -36 43 -73 65 -102 119 -202
114 -210 -3 -5 6 -64 20 -133 13 -69 25 -136 25 -150 3 -65 -15 -189 -38 -261
-38 -119 -174 -368 -201 -369 -7 0 -13 -4 -13 -9 0 -14 -124 -109 -165 -127
-20 -8 -59 -17 -86 -19 -61 -6 -69 -10 -69 -38 0 -17 -14 -29 -68 -54 -67 -31
-68 -31 -200 -27 -73 2 -138 1 -144 -3 -7 -3 -28 -7 -47 -7 -20 -1 -40 -4 -46
-7 -5 -3 -28 -4 -50 -3 -22 1 -46 -3 -52 -8 -9 -7 -13 -6 -13 3 0 11 -2 11
-10 -1 -5 -8 -10 -10 -10 -5 0 6 -5 3 -10 -5 -5 -8 -10 -10 -10 -4 0 8 -16 11
-42 9 -181 -13 -236 -17 -258 -19 -37 -4 -100 27 -100 49 0 11 -28 35 -40 35
-6 0 -9 4 -6 9 6 10 -138 167 -168 183 -12 6 -30 12 -41 14 -11 1 -36 5 -57 9
-20 3 -39 2 -42 -4 -4 -6 -13 -8 -20 -5 -15 6 -59 -43 -51 -56 3 -5 0 -21 -5
-36 -6 -15 -8 -35 -4 -43 4 -9 8 -32 9 -51 3 -43 15 -81 24 -76 4 3 7 -4 7
-15 0 -10 -3 -19 -7 -19 -3 0 -49 26 -101 58 -100 59 -163 112 -212 176 -16
21 -49 51 -74 67 -38 24 -57 29 -109 29 -60 0 -141 -14 -173 -30 -23 -11 -35
-77 -20 -106 8 -13 19 -24 26 -24 8 0 11 -6 8 -14 -3 -7 11 -27 30 -43 55 -49
204 -223 191 -223 -4 0 -37 13 -74 29 -61 27 -90 36 -146 46 -11 2 -33 6 -50
9 -16 3 -52 9 -80 12 -27 4 -53 8 -56 10 -12 7 -31 -26 -26 -45 6 -24 -20 -64
-36 -55 -7 3 -4 -1 5 -8 16 -14 16 -15 0 -29 -10 -9 -26 -18 -35 -22 -26 -10
-22 -128 5 -157 10 -11 16 -20 12 -20 -4 0 3 -8 14 -19 12 -10 19 -21 15 -25
-3 -3 -1 -6 5 -6 7 0 12 -7 12 -16 0 -8 5 -12 10 -9 6 3 10 -1 10 -9 0 -9 5
-16 11 -16 7 0 18 -8 25 -17 9 -14 16 -15 24 -7 9 9 4 19 -19 42 -17 16 -31
33 -31 38 0 4 5 3 12 -4 7 -7 20 -12 29 -12 10 0 19 -4 21 -8 2 -4 30 -21 62
-36 53 -26 57 -30 37 -37 -14 -6 -29 -4 -42 4 -16 10 -21 9 -30 -3 -8 -12 -9
-10 -4 8 7 25 -12 31 -22 6 -7 -19 12 -34 44 -34 21 0 21 -1 5 -33 -9 -17 -17
-52 -18 -77 -2 -38 3 -49 27 -72 16 -16 32 -29 36 -29 5 -1 16 -5 26 -10 25
-14 23 22 -3 38 -24 16 -36 76 -21 109 10 22 17 25 53 22 48 -4 61 13 21 28
l-28 11 28 8 c19 5 27 14 27 29 0 17 -25 34 -133 88 -72 37 -144 72 -159 77
-16 6 -28 16 -29 23 0 7 -2 25 -4 40 -2 15 0 30 5 33 5 3 37 -8 71 -25 33 -16
67 -30 75 -30 8 0 14 -4 14 -8 0 -5 6 -9 13 -10 6 0 21 -3 32 -5 11 -3 27 -7
35 -9 8 -1 21 -9 28 -15 17 -16 59 -17 64 -1 3 8 17 6 50 -6 49 -19 71 -15 62
9 -5 13 -149 99 -166 100 -4 0 -17 8 -28 18 -19 16 -71 54 -120 87 -38 26 -63
50 -54 51 27 5 74 4 74 -1 0 -3 8 -6 18 -7 34 -2 79 -11 130 -26 29 -9 52 -13
52 -9 0 4 5 -1 11 -10 5 -10 21 -18 34 -18 14 0 25 -4 25 -8 0 -10 87 -42 113
-42 21 0 23 38 2 46 -8 4 -13 9 -10 14 2 4 -4 16 -15 27 -10 12 -16 24 -13 27
4 3 1 6 -5 6 -7 0 -12 6 -12 13 0 7 -16 30 -35 50 -19 20 -35 39 -35 42 0 3
-33 38 -74 79 -41 41 -72 77 -69 80 4 3 0 6 -7 6 -7 0 -10 3 -7 7 4 3 2 12 -4
19 -8 10 2 17 48 30 32 10 72 18 88 20 41 3 118 -16 128 -33 4 -7 15 -13 23
-13 8 0 13 -4 9 -9 -3 -6 14 -34 38 -63 44 -55 118 -111 197 -151 25 -13 54
-28 65 -35 11 -6 42 -21 69 -32 44 -20 50 -20 64 -6 9 9 12 16 7 16 -6 0 -11
12 -12 26 0 15 -5 29 -11 33 -28 17 -61 146 -46 180 4 9 8 18 8 21 7 34 85 66
100 41 4 -6 13 -8 20 -5 14 5 106 -78 138 -125 8 -12 32 -39 52 -61 20 -21 36
-44 36 -49 0 -5 8 -16 18 -23 26 -20 56 -79 44 -87 -6 -4 -1 -15 13 -27 14
-13 26 -17 28 -11 2 6 6 3 10 -6 5 -14 0 -19 -23 -24 -42 -8 -39 -41 3 -34 5
1 11 -8 14 -19 3 -11 9 -20 14 -20 5 0 9 -7 9 -15 0 -8 5 -15 10 -15 6 0 10
-6 10 -13 0 -7 10 -24 23 -37 12 -14 22 -28 22 -32 0 -4 8 -17 18 -28 9 -11
17 -25 17 -30 0 -6 3 -10 8 -10 4 0 13 -13 20 -28 6 -16 21 -37 31 -49 10 -11
26 -34 35 -51 9 -18 21 -32 27 -32 6 0 8 -3 5 -8 -2 -4 3 -23 11 -42 17 -37
18 -42 29 -107 6 -38 9 -42 35 -41 27 1 28 2 25 52 -3 39 -19 83 -70 186 -80
163 -119 230 -141 246 -9 7 -12 15 -7 18 4 3 16 -4 25 -14 14 -16 21 -18 47
-8 21 7 29 15 26 25 -3 8 -2 12 3 9 5 -3 12 5 15 18 4 15 19 29 43 39 43 17
51 11 55 -42 1 -17 7 -31 13 -31 6 0 7 -3 0 -8 -14 -10 -16 -70 -4 -96 10 -20
9 -20 -9 1 -17 19 -21 20 -26 7 -4 -10 -2 -13 6 -8 7 5 9 2 5 -8 -5 -15 9 -38
23 -38 16 0 27 51 25 115 -3 81 -1 89 26 75 12 -7 19 -7 19 -1 0 12 -63 61
-78 61 -17 0 -15 16 3 34 9 8 23 12 32 9 12 -5 14 -3 8 8 -7 11 -6 12 7 2 23
-19 29 -4 12 28 -8 17 -10 29 -4 29 5 0 9 6 8 12 -2 7 8 14 21 16 15 2 21 0
16 -7 -3 -6 -11 -8 -17 -5 -7 4 -8 2 -4 -4 4 -7 3 -12 -2 -12 -6 0 -8 -9 -5
-20 3 -11 9 -20 14 -20 5 0 6 6 4 13 -2 6 4 23 15 36 17 20 24 22 50 13 18 -7
32 -7 35 -1 7 11 45 12 45 1 0 -4 -5 -13 -12 -20 -30 -30 128 1 253 50 42 16
85 31 95 33 11 2 19 4 19 5 0 1 20 3 45 4 52 3 141 39 166 67 9 10 22 19 29
19 10 0 129 116 200 195 42 47 85 112 78 119 -4 3 -2 6 4 6 5 0 18 19 28 43
10 23 26 60 36 82 20 47 59 164 58 173 -1 4 0 9 1 12 1 3 4 19 6 35 9 53 19
46 43 -30 13 -41 28 -75 33 -75 4 0 7 -3 7 -7 -4 -23 3 -53 14 -65 6 -7 13
-24 15 -38 1 -14 7 -26 12 -28 5 -2 6 -10 3 -19 -5 -12 -3 -14 7 -8 8 5 11 4
7 -2 -6 -10 26 -133 41 -158 3 -5 7 -16 8 -25 1 -8 10 -42 19 -75 11 -39 17
-98 17 -170 0 -95 5 -140 34 -282 2 -13 19 -69 38 -125 30 -94 36 -103 60
-106 23 -3 26 0 27 25 0 15 2 44 5 63 17 126 21 220 19 410 -3 211 -10 340
-21 370 -4 8 -8 34 -10 57 -4 49 -55 247 -89 348 -13 39 -40 124 -60 190 -20
66 -40 129 -46 140 -5 11 -11 31 -13 45 -3 14 -5 26 -7 28 -1 1 -2 5 -3 10 -1
4 -6 21 -12 37 -7 17 -17 50 -25 75 -16 58 -59 153 -73 162 -6 4 -7 8 -3 8 13
0 -20 30 -32 30 -16 0 -6 -43 28 -125 16 -38 34 -89 41 -112 7 -24 16 -43 19
-43 3 0 7 -10 7 -22 2 -27 5 -41 34 -135 13 -45 26 -70 33 -66 6 4 8 -2 4 -17
-4 -15 6 -61 25 -119 18 -53 32 -99 33 -103 0 -3 3 -10 8 -14 4 -4 7 -17 7
-29 0 -12 3 -25 7 -29 4 -4 8 -13 8 -19 1 -36 18 -77 28 -70 8 5 8 2 0 -9 -7
-8 -11 -17 -8 -19 2 -3 11 -39 20 -80 8 -41 18 -81 21 -89 15 -37 29 -530 15
-510 -6 8 -11 24 -11 35 0 11 -7 39 -15 62 -8 22 -16 53 -19 68 -8 43 -47 178
-57 197 -5 10 -9 26 -9 36 0 10 -3 22 -7 26 -4 4 -9 18 -10 31 -2 14 -12 44
-22 67 -9 24 -28 77 -41 118 -13 41 -26 77 -29 80 -3 3 -8 12 -10 20 -7 30 -8
35 -13 50 -71 204 -72 209 -93 323 -8 49 -31 137 -51 195 -26 79 -32 107 -22
113 9 6 9 11 -2 23 -11 14 -10 16 5 10 14 -6 16 -3 12 12 -4 10 -9 35 -12 54
-7 41 -50 131 -77 160 -10 11 -17 20 -14 20 2 0 -14 43 -35 96 -36 86 -39 101
-33 155 4 39 3 59 -4 59 -6 0 -14 -4 -17 -10z m-21 -260 c55 -50 89 -105 115
-184 23 -73 23 -94 0 -48 -7 15 -43 71 -79 125 -115 173 -115 174 -94 157 10
-8 36 -31 58 -50z m-754 -1679 c0 -6 -9 -9 -20 -8 -11 1 -20 5 -20 9 0 4 9 8
20 8 11 0 20 -4 20 -9z m30 -1 c0 -5 -5 -10 -11 -10 -5 0 -7 5 -4 10 3 6 8 10
11 10 2 0 4 -4 4 -10z m40 6 c0 -2 -7 -6 -15 -10 -8 -3 -15 -1 -15 4 0 6 7 10
15 10 8 0 15 -2 15 -4z m1250 -42 c0 -8 -5 -12 -10 -9 -6 4 -8 11 -5 16 9 14
15 11 15 -7z m-1510 -38 c-7 -7 -13 -7 -20 0 -6 6 -3 10 10 10 13 0 16 -4 10
-10z m1520 -16 c0 -5 -5 -10 -11 -10 -5 0 -7 5 -4 10 3 6 8 10 11 10 2 0 4 -4
4 -10z m10 -40 c0 -5 -4 -10 -10 -10 -5 0 -10 5 -10 10 0 6 5 10 10 10 6 0 10
-4 10 -10z m10 -30 c0 -5 -5 -10 -11 -10 -5 0 -7 5 -4 10 3 6 8 10 11 10 2 0
4 -4 4 -10z m0 -40 c0 -5 -2 -10 -4 -10 -3 0 -8 5 -11 10 -3 6 -1 10 4 10 6 0
11 -4 11 -10z"/>
<path d="M1014 3517 c17 -13 17 -14 0 -31 -15 -16 -19 -38 -15 -99 1 -7 7 -22
15 -32 13 -18 14 -17 13 18 0 20 -5 37 -9 37 -4 0 -8 4 -8 9 0 17 40 7 46 -11
7 -22 24 -14 24 10 0 14 -2 14 -9 3 -8 -13 -18 2 -27 42 -1 4 -3 10 -4 15 -4
11 -8 25 -9 40 0 6 -9 12 -18 12 -15 0 -15 -1 1 -13z m23 -67 c3 -22 -22 -18
-31 5 -3 10 0 12 11 8 12 -5 14 -3 8 8 -4 8 -4 11 0 6 5 -4 10 -16 12 -27z"/>
<path d="M995 3500 c-3 -5 -1 -10 4 -10 6 0 11 5 11 10 0 6 -2 10 -4 10 -3 0
-8 -4 -11 -10z"/>
<path d="M990 3342 c0 -14 6 -22 16 -22 14 0 15 3 3 18 -7 9 -15 19 -16 21 -2
2 -3 -5 -3 -17z"/>
<path d="M1010 3300 c0 -5 5 -10 10 -10 6 0 10 -7 10 -17 0 -9 3 -14 6 -10 8
8 -5 47 -17 47 -5 0 -9 -4 -9 -10z"/>
<path d="M4736 3246 c-5 -23 -1 -124 6 -131 2 -3 15 -6 29 -7 22 -3 24 1 27
45 2 27 -3 61 -10 77 -16 37 -44 46 -52 16z"/>
<path d="M3746 3160 c-13 -32 -13 -114 0 -127 23 -24 44 11 44 74 0 44 -3 54
-14 50 -8 -3 -17 -1 -19 6 -3 8 -7 7 -11 -3z"/>
<path d="M7429 3015 c-1 -8 -2 -21 -3 -27 -1 -7 -4 -16 -9 -19 -10 -8 -13 -87
-3 -126 4 -18 14 -33 22 -33 8 0 14 -4 14 -9 0 -12 54 -19 80 -9 18 7 21 14
19 53 -2 24 0 47 3 51 4 3 2 17 -3 31 -5 14 -7 28 -4 33 3 4 -7 22 -22 39 -20
23 -36 31 -60 31 -22 0 -34 -5 -34 -15z"/>
<path d="M4097 2960 c-3 -11 -1 -22 3 -25 5 -3 7 -14 5 -25 -2 -11 0 -20 6
-20 5 0 8 -3 8 -7 -6 -35 42 -87 88 -97 35 -8 37 -6 111 77 18 20 43 44 57 53
24 16 35 54 16 54 -5 0 -16 3 -25 6 -11 4 -41 -18 -95 -70 l-78 -77 -22 36
c-12 20 -22 49 -23 63 -3 49 -40 72 -51 32z"/>
<path d="M6572 2857 c-11 -13 -10 -109 2 -164 5 -23 14 -32 34 -36 39 -8 57
14 56 71 -2 100 -3 102 -36 122 -39 24 -42 24 -56 7z"/>
<path d="M5390 2743 c0 -7 5 -13 10 -13 6 0 10 -9 10 -20 0 -11 5 -20 10 -20
16 0 12 16 -10 41 -10 13 -19 18 -20 12z"/>
<path d="M5436 2717 c3 -10 9 -15 12 -12 3 3 0 11 -7 18 -10 9 -11 8 -5 -6z"/>
<path d="M7668 2543 c-24 -29 -2 -39 78 -37 44 1 81 3 84 4 3 1 16 3 30 3 18
2 26 9 28 25 3 22 2 22 -103 20 -70 -2 -110 -7 -117 -15z"/>
<path d="M7110 2515 c0 -9 14 -30 31 -47 26 -26 32 -29 44 -17 18 19 8 69 -14
69 -9 0 -26 3 -38 6 -17 5 -23 2 -23 -11z"/>
<path d="M6504 2449 c-2 -4 -21 -13 -42 -20 -20 -6 -68 -26 -107 -44 -38 -18
-112 -48 -162 -66 -67 -25 -93 -39 -93 -51 0 -24 32 -31 76 -15 119 43 208 79
246 98 24 12 43 21 43 20 0 -1 11 2 25 7 14 6 36 15 50 20 23 9 40 51 22 53
-42 5 -54 5 -58 -2z"/>
<path d="M7672 2344 c-25 -19 -8 -28 61 -32 52 -3 66 -1 87 17 l25 20 -25 2
c-110 5 -133 4 -148 -7z"/>
<path d="M6533 2213 c-59 -36 -105 -57 -111 -51 -7 6 -23 -32 -18 -41 15 -23
115 7 145 43 8 9 18 16 23 16 10 0 68 51 68 60 0 17 -58 3 -107 -27z"/>
<path d="M2095 2038 c0 -84 3 -158 8 -165 4 -6 3 -14 -2 -18 -5 -3 -9 -13 -8
-23 1 -15 -90 -264 -128 -347 -29 -65 -102 -264 -122 -330 -42 -141 -54 -211
-58 -327 -4 -102 1 -125 26 -139 29 -15 39 -3 28 35 -12 42 -17 135 -7 138 3
2 9 23 12 48 11 93 74 308 123 421 20 46 36 94 37 107 1 12 5 22 9 22 8 0 34
56 40 87 6 28 26 73 33 73 3 0 3 -13 -1 -30 -10 -44 -13 -160 -5 -160 4 0 1
-24 -7 -52 -14 -53 -26 -317 -16 -344 3 -8 9 -11 14 -8 5 3 9 -5 9 -17 0 -36
9 -17 15 32 3 24 7 58 9 74 12 77 17 166 22 359 4 189 3 208 -11 196 -13 -11
-15 -10 -9 6 4 10 9 23 12 28 3 6 7 19 8 30 2 12 6 36 10 54 3 17 2 32 -3 32
-5 0 -9 9 -10 20 -1 11 2 18 6 15 14 -8 18 25 14 105 -5 115 -8 138 -16 146
-4 4 -2 13 4 21 9 10 8 13 -1 13 -7 0 -10 7 -6 16 3 8 2 12 -4 9 -6 -3 -10 1
-10 9 0 9 -4 16 -8 16 -4 0 -7 -69 -7 -152z"/>
<path d="M3664 1747 c-3 -8 1 -27 7 -43 7 -16 13 -32 13 -36 1 -9 47 -48 57
-48 4 0 14 -2 21 -5 8 -3 14 2 15 14 1 11 -6 21 -17 24 -11 3 -29 26 -41 51
-18 36 -26 43 -36 34 -11 -8 -12 -7 -7 6 3 9 3 16 0 16 -4 0 -9 -6 -12 -13z"/>
<path d="M7878 1589 c-10 -5 -18 -17 -18 -25 0 -9 -5 -12 -12 -8 -6 4 -8 3 -4
-4 7 -12 -45 -26 -71 -18 -42 12 -189 36 -225 36 -13 0 -71 3 -130 6 -92 6
-108 4 -108 -9 0 -13 -83 -57 -109 -57 -6 0 -11 -4 -11 -8 0 -4 -8 -8 -17 -9
-10 -1 -58 -6 -108 -12 -49 -5 -119 -8 -155 -7 -62 3 -110 -8 -110 -25 0 -18
40 -26 125 -25 l90 1 49 -52 c26 -29 54 -53 61 -53 7 0 15 -4 17 -10 2 -5 13
-7 26 -3 22 5 21 9 -34 64 -47 47 -54 59 -39 60 35 3 69 8 98 15 21 5 27 3 27
-10 0 -9 7 -16 15 -16 8 0 15 9 15 19 0 21 48 55 92 66 22 6 40 -2 95 -39 37
-25 79 -56 93 -68 14 -13 42 -34 62 -48 21 -14 38 -30 38 -36 0 -6 11 -19 24
-30 14 -10 23 -21 20 -25 -2 -4 3 -12 12 -17 9 -5 16 -13 16 -18 0 -21 35 -84
43 -77 5 5 4 1 -3 -8 -9 -12 -9 -20 3 -35 8 -10 15 -29 15 -41 0 -12 6 -28 13
-35 19 -20 15 -82 -6 -86 -44 -9 -3 -152 43 -152 12 0 19 4 16 9 -3 5 2 8 11
7 11 -1 20 10 26 31 20 67 -85 373 -151 443 -15 15 -37 39 -48 52 -12 12 -38
37 -58 53 -21 17 -43 36 -51 43 -7 6 -18 12 -23 12 -6 0 -12 7 -16 15 -3 8
-12 15 -21 15 -8 0 -15 4 -15 8 0 5 -11 14 -25 20 -14 6 -25 17 -25 23 0 9 24
10 88 5 48 -4 94 -7 102 -7 8 -1 33 -5 55 -9 22 -5 58 -11 80 -14 24 -4 46
-14 54 -26 15 -23 50 -26 70 -7 11 10 13 10 7 0 -5 -9 -1 -13 11 -13 31 0 25
34 -8 49 -28 12 -29 14 -14 31 11 12 13 20 6 25 -20 12 -11 22 14 17 20 -3 24
-1 19 12 -7 18 -12 19 -36 5z m2 -43 c0 -3 -4 -8 -10 -11 -5 -3 -10 -1 -10 4
0 6 5 11 10 11 6 0 10 -2 10 -4z m-15 -76 c3 -5 1 -10 -4 -10 -6 0 -11 5 -11
10 0 6 2 10 4 10 3 0 8 -4 11 -10z"/>
<path d="M1649 1419 c-1 -8 -3 -25 -4 -39 -2 -14 -6 -72 -8 -130 -5 -99 -4
-106 14 -106 15 0 19 8 20 36 1 19 0 39 -1 45 -1 5 -4 53 -6 105 -4 84 -12
128 -15 89z"/>
<path d="M7230 1400 c0 -5 5 -10 10 -10 6 0 9 -3 9 -7 -3 -21 2 -33 16 -33 19
0 19 5 -1 35 -17 25 -34 33 -34 15z"/>
<path d="M2415 1100 c-8 -9 -15 -22 -15 -29 0 -7 -4 -10 -9 -6 -12 7 -62 -65
-55 -77 3 -4 1 -8 -3 -8 -5 0 -9 -9 -9 -20 0 -11 2 -20 4 -20 7 0 47 23 52 30
53 75 110 114 70 48 -11 -18 -20 -42 -20 -53 0 -11 -13 -47 -29 -80 -16 -33
-25 -64 -21 -68 10 -11 55 -5 55 8 1 6 6 19 12 30 6 11 23 51 38 90 56 140 53
176 -15 173 -23 -1 -46 -8 -55 -18z"/>
<path d="M2045 910 c-3 -5 -3 -15 1 -22 4 -6 3 -8 -4 -4 -6 4 -11 -1 -11 -11
0 -10 -3 -57 -6 -105 l-5 -88 25 0 c20 0 25 5 26 28 1 15 3 69 5 120 3 75 1
92 -10 92 -8 0 -18 -4 -21 -10z"/>
<path d="M479 873 c-5 -15 -13 -46 -16 -70 -5 -38 -3 -44 18 -52 27 -9 36 6
38 63 1 16 8 37 17 47 20 22 10 39 -22 39 -17 0 -27 -8 -35 -27z"/>
<path d="M8293 810 c-26 -4 -40 -17 -72 -67 -22 -34 -49 -67 -60 -73 -30 -16
-27 -48 6 -56 17 -5 28 -3 31 4 2 7 9 12 15 12 18 0 66 65 93 127 14 30 24 56
22 57 -2 1 -17 -1 -35 -4z"/>
<path d="M7633 693 c4 -10 12 -38 19 -63 13 -46 23 -60 46 -60 10 0 12 11 6
48 -11 75 -20 92 -50 92 -21 0 -25 -4 -21 -17z"/>
</g>
</svg>
