<?xml version="1.0" standalone="no"?>
<!DOCTYPE svg PUBLIC "-//W3C//DTD SVG 20010904//EN"
 "http://www.w3.org/TR/2001/REC-SVG-20010904/DTD/svg10.dtd">
<svg version="1.0" xmlns="http://www.w3.org/2000/svg"
 width="512.000000pt" height="512.000000pt" viewBox="0 0 512.000000 512.000000"
 preserveAspectRatio="xMidYMid meet">

<g transform="translate(0.000000,512.000000) scale(0.100000,-0.100000)"
fill="#000000" stroke="none">
<path d="M199 5012 c-39 -20 -62 -41 -84 -77 l-30 -48 -3 -532 -3 -532 29 -54
c34 -65 96 -108 171 -118 l50 -6 -40 -89 c-246 -554 -275 -1210 -78 -1786 28
-80 51 -151 52 -159 1 -8 -28 -27 -73 -46 -120 -54 -112 -21 -108 -435 4 -328
6 -360 26 -427 88 -291 287 -500 567 -594 89 -29 161 -29 250 0 141 47 249
115 351 220 l67 67 103 -51 c249 -125 505 -203 809 -247 119 -17 502 -17 620
1 237 35 461 96 648 176 l87 37 45 -41 c24 -22 53 -41 63 -41 11 0 43 11 73
24 l53 23 56 -24 c30 -13 61 -27 69 -31 7 -4 22 -30 32 -57 30 -80 41 -85 189
-85 149 0 166 8 195 88 17 47 21 50 89 79 l72 29 52 -24 c35 -16 62 -21 80
-17 40 8 200 171 207 210 4 20 -2 47 -18 79 l-23 50 29 72 c29 68 32 72 79 89
80 29 88 46 88 195 0 148 -5 159 -85 189 -27 10 -53 25 -57 32 -4 8 -18 39
-31 69 l-24 56 23 53 c13 30 24 62 24 73 0 10 -19 39 -41 63 l-41 45 37 87
c207 482 250 1044 119 1568 -30 120 -83 279 -124 371 l-31 67 45 57 c271 345
240 829 -73 1137 -303 298 -783 323 -1121 57 l-57 -45 -69 32 c-110 49 -319
115 -449 142 -213 44 -290 52 -525 52 -221 -1 -339 -12 -515 -48 -59 -13 -61
-13 -109 18 l-49 30 -817 3 -817 2 -54 -28z m1663 -149 c17 -15 18 -44 18
-519 l0 -503 -22 -15 c-20 -14 -112 -16 -800 -16 -765 0 -778 0 -798 20 -19
19 -20 33 -20 515 0 482 1 496 20 515 20 20 33 20 802 20 713 0 783 -1 800
-17z m1038 -8 c136 -22 221 -41 335 -76 128 -40 257 -89 253 -97 -2 -4 -26
-54 -55 -112 -29 -58 -59 -132 -68 -165 -23 -85 -30 -258 -15 -352 57 -356
346 -646 702 -703 97 -16 260 -9 352 15 38 10 117 42 175 71 58 29 107 52 108
50 14 -13 92 -247 119 -352 55 -218 68 -332 68 -574 0 -292 -33 -502 -119
-749 -55 -158 -72 -191 -95 -191 -12 0 -42 -9 -68 -20 l-47 -20 -70 28 c-67
28 -70 31 -91 82 -12 29 -30 59 -40 67 -13 9 -56 13 -154 13 -156 0 -161 -2
-194 -92 -10 -27 -22 -48 -28 -48 -6 0 -36 -12 -68 -26 l-58 -26 -47 21 c-84
37 -97 32 -202 -72 -104 -105 -109 -118 -72 -202 l21 -47 -26 -58 c-14 -32
-26 -62 -26 -68 0 -6 -21 -18 -47 -28 -91 -33 -93 -38 -93 -194 0 -98 4 -141
13 -154 8 -10 38 -28 67 -40 51 -21 54 -24 82 -91 l28 -70 -20 -47 c-11 -26
-20 -56 -20 -68 0 -23 -33 -40 -191 -95 -524 -182 -1120 -162 -1645 56 -158
66 -236 109 -228 128 27 64 65 187 73 241 6 36 11 208 11 382 0 315 0 317 -22
342 -15 16 -138 74 -354 165 -181 78 -336 141 -344 141 -7 0 -94 -34 -192 -76
-118 -50 -183 -73 -189 -67 -16 16 -85 220 -112 333 -96 393 -85 828 30 1213
25 84 27 87 39 64 7 -13 26 -29 41 -36 21 -8 198 -11 661 -9 l634 3 19 24 c15
19 19 39 19 105 0 97 -17 137 -79 181 -39 27 -50 30 -147 33 l-104 4 0 29 0
28 233 3 234 3 49 30 c37 23 56 44 77 84 l27 55 0 497 0 498 38 10 c35 9 209
36 297 45 84 9 433 -4 525 -19z m1210 -115 l0 -70 -42 1 c-24 1 -53 4 -65 7
-22 7 -20 10 33 70 31 34 60 62 65 62 5 0 9 -31 9 -70z m248 -11 c19 -22 32
-43 28 -46 -3 -4 -31 -8 -61 -11 l-55 -4 0 71 0 72 27 -21 c15 -11 42 -39 61
-61z m226 25 c17 -12 18 -14 3 -20 -21 -8 -31 -1 -59 39 l-23 32 30 -19 c17
-11 39 -25 49 -32z m-744 6 c-21 -30 -44 -38 -54 -21 -6 9 50 50 67 51 5 0 -1
-13 -13 -30z m-107 -186 c-1 -5 -11 -35 -23 -66 -11 -32 -28 -98 -37 -148
l-17 -90 -78 0 -77 0 5 33 c18 97 66 209 121 284 l23 32 43 -18 c23 -10 41
-23 40 -27z m1025 4 c56 -82 112 -224 112 -284 0 -23 -3 -24 -75 -24 -69 0
-75 2 -79 23 -26 135 -41 198 -57 239 l-19 48 38 19 c20 11 40 20 44 21 4 0
20 -19 36 -42z m-748 -61 l95 -13 3 -117 3 -117 -146 0 -146 0 7 38 c20 116
56 222 77 221 6 0 55 -6 107 -12z m493 -25 c20 -49 37 -114 46 -174 l8 -48
-143 0 -144 0 0 120 0 120 43 1 c23 0 62 4 87 8 83 15 87 14 103 -27z m-833
-459 c7 -43 23 -109 36 -148 13 -38 24 -75 24 -81 0 -6 -18 -19 -40 -29 -39
-18 -40 -18 -59 6 -33 39 -98 180 -111 239 -6 30 -14 63 -17 73 -4 15 4 17 75
17 l79 0 13 -77z m440 -41 l0 -117 -110 -15 -109 -15 -21 55 c-17 46 -49 177
-50 203 0 4 65 7 145 7 l145 0 0 -118z m444 86 c-11 -60 -44 -180 -59 -207
l-14 -27 -73 12 c-40 7 -88 13 -105 14 l-33 0 0 120 0 120 145 0 145 0 -6 -32z
m316 11 c0 -65 -85 -274 -127 -312 -19 -16 -22 -16 -59 -1 -21 9 -40 17 -41
18 -2 1 6 24 16 52 16 41 31 106 57 242 4 20 10 22 79 22 69 0 75 -2 75 -21z
m-760 -456 l-1 -78 -67 70 -67 70 35 6 c19 4 50 7 68 8 l32 1 0 -77z m243 71
c20 -4 37 -10 37 -13 0 -11 -101 -121 -111 -121 -5 0 -9 32 -9 70 0 78 -1 77
83 64z m-3653 -83 l0 -29 -97 -4 c-54 -2 -106 -8 -116 -13 -18 -7 -17 -5 2 34
l21 41 95 0 95 0 0 -29z m560 -1 l0 -30 -200 0 -200 0 0 30 0 30 200 0 200 0
0 -30z m2579 -1 c13 -17 21 -32 19 -34 -7 -7 -78 47 -73 55 11 18 31 10 54
-21z m749 22 c14 -8 0 -21 -57 -50 -23 -13 -23 -12 4 23 29 38 33 40 53 27z
m-3000 -228 c3 -10 -107 -13 -527 -13 -292 0 -531 4 -531 8 0 5 3 12 7 15 3 4
240 6 526 5 406 -2 521 -6 525 -15z m-508 -1881 l275 -118 0 -309 c-1 -309 -1
-310 -28 -390 -68 -204 -216 -360 -419 -443 -80 -32 -135 -32 -221 3 -183 74
-328 219 -398 400 -44 112 -50 175 -47 470 l3 269 270 117 c149 64 275 117
280 118 6 1 134 -52 285 -117z m3175 48 c10 -43 50 -87 88 -95 17 -4 65 -22
106 -41 86 -40 95 -40 152 -14 l44 19 34 -33 34 -34 -23 -55 -23 -54 42 -90
c22 -49 41 -97 41 -105 0 -27 39 -66 85 -84 45 -17 45 -17 45 -65 l0 -48 -57
-28 c-55 -27 -58 -30 -79 -93 -11 -36 -33 -89 -48 -119 l-28 -54 22 -55 21
-56 -34 -33 -33 -34 -56 21 -55 22 -54 -28 c-30 -15 -83 -37 -119 -48 -62 -21
-66 -24 -94 -79 l-28 -57 -48 0 c-47 0 -47 0 -64 45 -18 46 -57 85 -84 85 -8
0 -56 19 -105 41 l-90 42 -54 -23 -55 -23 -34 34 -33 34 19 44 c26 57 26 66
-14 152 -19 41 -37 89 -41 106 -8 38 -52 78 -95 88 -29 6 -30 9 -30 59 l0 52
52 25 c51 23 54 27 79 94 14 39 35 89 47 112 27 51 27 76 3 128 l-18 40 34 37
35 36 42 -19 c53 -24 78 -24 129 3 23 12 74 33 112 47 67 25 71 28 94 79 l25
52 52 0 c50 0 53 -1 59 -30z"/>
<path d="M407 4769 c-43 -25 -47 -60 -47 -422 0 -354 4 -398 40 -417 20 -11
1287 -14 1315 -4 42 16 45 45 45 419 0 379 -2 400 -49 425 -28 14 -1279 13
-1304 -1z m1193 -419 l0 -270 -540 0 -540 0 0 270 0 270 540 0 540 0 0 -270z"/>
<path d="M2421 3565 c-157 -44 -280 -144 -352 -287 -43 -85 -59 -166 -59 -305
l0 -122 -54 -11 c-43 -9 -62 -19 -90 -50 -20 -22 -38 -50 -41 -62 -3 -13 -4
-249 -3 -525 3 -491 3 -502 24 -530 11 -15 36 -38 54 -50 l33 -23 627 0 627 0
33 23 c18 12 43 35 54 50 21 28 21 39 24 530 1 276 0 512 -3 525 -3 12 -21 40
-41 62 -28 31 -47 41 -90 50 l-54 11 0 122 c0 73 -6 148 -15 186 -42 176 -181
331 -350 392 -79 28 -247 35 -324 14z m255 -160 c67 -20 150 -79 196 -140 58
-75 78 -153 78 -296 l0 -119 -25 0 c-25 0 -25 1 -25 83 0 166 -26 250 -101
332 -122 133 -356 133 -478 0 -75 -82 -101 -166 -101 -332 0 -82 0 -83 -25
-83 l-25 0 0 119 c0 137 18 210 69 284 31 46 95 103 141 127 77 41 207 52 296
25z m-20 -227 c59 -41 77 -88 82 -215 l5 -113 -183 0 -183 0 5 113 c5 121 16
156 66 202 53 50 146 55 208 13z m482 -955 l2 -463 -580 0 -580 0 0 458 c0
252 3 462 7 465 3 4 263 6 577 5 l571 -3 3 -462z"/>
<path d="M2444 2586 c-62 -29 -118 -92 -140 -159 -29 -88 -4 -208 55 -261 18
-17 21 -31 21 -105 1 -152 62 -231 180 -231 118 0 179 79 180 231 0 74 3 88
21 105 59 53 84 173 55 261 -37 111 -137 183 -256 183 -47 0 -79 -7 -116 -24z
m176 -149 c68 -53 66 -129 -4 -188 -31 -26 -31 -28 -36 -140 -4 -92 -8 -114
-20 -114 -12 0 -16 22 -20 114 -5 112 -5 114 -36 140 -70 59 -72 135 -4 188
20 16 100 16 120 0z"/>
<path d="M1033 1151 c-38 -33 -115 -102 -173 -155 -58 -53 -110 -96 -115 -96
-6 0 -37 27 -70 60 -69 69 -105 78 -145 35 -45 -48 -33 -77 77 -187 54 -54
107 -101 118 -104 36 -9 67 12 215 147 246 224 270 248 270 279 0 43 -35 80
-75 80 -28 0 -48 -12 -102 -59z"/>
<path d="M4054 1406 c-134 -42 -250 -143 -312 -273 -33 -71 -37 -87 -40 -180
-4 -83 0 -115 17 -171 76 -250 333 -397 589 -337 86 21 150 55 219 119 169
157 209 387 104 594 -59 115 -164 204 -288 242 -76 23 -223 26 -289 6z m284
-175 c66 -34 128 -97 159 -160 23 -47 27 -70 28 -141 0 -72 -4 -94 -26 -141
-34 -72 -96 -134 -168 -168 -47 -22 -69 -26 -141 -26 -71 1 -94 5 -141 28 -63
31 -126 93 -160 159 -30 57 -38 187 -16 252 33 95 110 175 205 211 58 23 205
15 260 -14z"/>
</g>
</svg>
